  0
SECTION
  2
HEADER
  9
$ACADVER
  1
AC1015
  9
$ACADMAINTVER
 70
     6
  9
$DWGCODEPAGE
  3
ANSI_1252
  9
$INSBASE
 10
0.0
 20
0.0
 30
0.0
  9
$EXTMIN
 10
0.0
 20
-8.3482194564
 30
0.0
  9
$EXTMAX
 10
141.3129251535
 20
8.3482194564
 30
0.0
  9
$LIMMIN
 10
0.0
 20
0.0
  9
$LIMMAX
 10
420.0
 20
297.0
  9
$ORTHOMODE
 70
     0
  9
$REGENMODE
 70
     1
  9
$FILLMODE
 70
     1
  9
$QTEXTMODE
 70
     0
  9
$MIRRTEXT
 70
     1
  9
$LTSCALE
 40
1.0
  9
$ATTMODE
 70
     1
  9
$TEXTSIZE
 40
3.5
  9
$TRACEWID
 40
1.0
  9
$TEXTSTYLE
  7
Standard
  9
$CLAYER
  8
0
  9
$CELTYPE
  6
ByLayer
  9
$CECOLOR
 62
   256
  9
$CELTSCALE
 40
1.0
  9
$DISPSILH
 70
     0
  9
$DIMSCALE
 40
1.0
  9
$DIMASZ
 40
3.302
  9
$DIMEXO
 40
0.0
  9
$DIMDLI
 40
3.75
  9
$DIMRND
 40
0.0
  9
$DIMDLE
 40
0.0
  9
$DIMEXE
 40
1.0
  9
$DIMTP
 40
0.0
  9
$DIMTM
 40
0.0
  9
$DIMTXT
 40
3.5
  9
$DIMCEN
 40
2.5
  9
$DIMTSZ
 40
0.0
  9
$DIMTOL
 70
     0
  9
$DIMLIM
 70
     0
  9
$DIMTIH
 70
     1
  9
$DIMTOH
 70
     1
  9
$DIMSE1
 70
     0
  9
$DIMSE2
 70
     0
  9
$DIMTAD
 70
     1
  9
$DIMZIN
 70
     1
  9
$DIMBLK
  1

  9
$DIMASO
 70
     1
  9
$DIMSHO
 70
     1
  9
$DIMPOST
  1

  9
$DIMAPOST
  1

  9
$DIMALT
 70
     0
  9
$DIMALTD
 70
     3
  9
$DIMALTF
 40
0.0393700787
  9
$DIMLFAC
 40
1.0
  9
$DIMTOFL
 70
     1
  9
$DIMTVP
 40
0.0
  9
$DIMTIX
 70
     0
  9
$DIMSOXD
 70
     0
  9
$DIMSAH
 70
     0
  9
$DIMBLK1
  1

  9
$DIMBLK2
  1

  9
$DIMSTYLE
  2
ISO-25
  9
$DIMCLRD
 70
     0
  9
$DIMCLRE
 70
     0
  9
$DIMCLRT
 70
     0
  9
$DIMTFAC
 40
1.0
  9
$DIMGAP
 40
1.524
  9
$DIMJUST
 70
     0
  9
$DIMSD1
 70
     0
  9
$DIMSD2
 70
     0
  9
$DIMTOLJ
 70
     0
  9
$DIMTZIN
 70
     1
  9
$DIMALTZ
 70
     0
  9
$DIMALTTZ
 70
     0
  9
$DIMUPT
 70
     0
  9
$DIMDEC
 70
     2
  9
$DIMTDEC
 70
     2
  9
$DIMALTU
 70
     2
  9
$DIMALTTD
 70
     3
  9
$DIMTXSTY
  7
Standard
  9
$DIMAUNIT
 70
     0
  9
$DIMADEC
 70
     2
  9
$DIMALTRND
 40
0.0
  9
$DIMAZIN
 70
     0
  9
$DIMDSEP
 70
    44
  9
$DIMATFIT
 70
     3
  9
$DIMFRAC
 70
     0
  9
$DIMLDRBLK
  1

  9
$DIMLUNIT
 70
     2
  9
$DIMLWD
 70
    -2
  9
$DIMLWE
 70
    -2
  9
$DIMTMOVE
 70
     0
  9
$LUNITS
 70
     2
  9
$LUPREC
 70
     2
  9
$SKETCHINC
 40
1.0
  9
$FILLETRAD
 40
0.0
  9
$AUNITS
 70
     0
  9
$AUPREC
 70
     2
  9
$MENU
  1
.
  9
$ELEVATION
 40
0.0
  9
$PELEVATION
 40
0.0
  9
$THICKNESS
 40
0.0
  9
$LIMCHECK
 70
     0
  9
$CHAMFERA
 40
0.0
  9
$CHAMFERB
 40
0.0
  9
$CHAMFERC
 40
0.0
  9
$CHAMFERD
 40
0.0
  9
$SKPOLY
 70
     0
  9
$TDCREATE
 40
2461297.435680833
  9
$TDUCREATE
 40
2461297.310680833
  9
$TDUPDATE
 40
2461297.435718195
  9
$TDUUPDATE
 40
2461297.310718195
  9
$TDINDWG
 40
0.0000000116
  9
$TDUSRTIMER
 40
0.0000000116
  9
$USRTIMER
 70
     1
  9
$ANGBASE
 50
0.0
  9
$ANGDIR
 70
     0
  9
$PDMODE
 70
     0
  9
$PDSIZE
 40
-1.0
  9
$PLINEWID
 40
0.0
  9
$SPLFRAME
 70
     0
  9
$SPLINETYPE
 70
     6
  9
$SPLINESEGS
 70
     8
  9
$HANDSEED
  5
7A
  9
$SURFTAB1
 70
     6
  9
$SURFTAB2
 70
     6
  9
$SURFTYPE
 70
     6
  9
$SURFU
 70
     6
  9
$SURFV
 70
     6
  9
$UCSBASE
  2

  9
$UCSNAME
  2

  9
$UCSORG
 10
0.0
 20
0.0
 30
0.0
  9
$UCSXDIR
 10
1.0
 20
0.0
 30
0.0
  9
$UCSYDIR
 10
0.0
 20
1.0
 30
0.0
  9
$UCSORTHOREF
  2

  9
$UCSORTHOVIEW
 70
     0
  9
$UCSORGTOP
 10
0.0
 20
0.0
 30
0.0
  9
$UCSORGBOTTOM
 10
0.0
 20
0.0
 30
0.0
  9
$UCSORGLEFT
 10
0.0
 20
0.0
 30
0.0
  9
$UCSORGRIGHT
 10
0.0
 20
0.0
 30
0.0
  9
$UCSORGFRONT
 10
0.0
 20
0.0
 30
0.0
  9
$UCSORGBACK
 10
0.0
 20
0.0
 30
0.0
  9
$PUCSBASE
  2

  9
$PUCSNAME
  2

  9
$PUCSORG
 10
0.0
 20
0.0
 30
0.0
  9
$PUCSXDIR
 10
1.0
 20
0.0
 30
0.0
  9
$PUCSYDIR
 10
0.0
 20
1.0
 30
0.0
  9
$PUCSORTHOREF
  2

  9
$PUCSORTHOVIEW
 70
     0
  9
$PUCSORGTOP
 10
0.0
 20
0.0
 30
0.0
  9
$PUCSORGBOTTOM
 10
0.0
 20
0.0
 30
0.0
  9
$PUCSORGLEFT
 10
0.0
 20
0.0
 30
0.0
  9
$PUCSORGRIGHT
 10
0.0
 20
0.0
 30
0.0
  9
$PUCSORGFRONT
 10
0.0
 20
0.0
 30
0.0
  9
$PUCSORGBACK
 10
0.0
 20
0.0
 30
0.0
  9
$USERI1
 70
     0
  9
$USERI2
 70
     0
  9
$USERI3
 70
     0
  9
$USERI4
 70
     0
  9
$USERI5
 70
     0
  9
$USERR1
 40
0.0
  9
$USERR2
 40
0.0
  9
$USERR3
 40
0.0
  9
$USERR4
 40
0.0
  9
$USERR5
 40
0.0
  9
$WORLDVIEW
 70
     1
  9
$SHADEDGE
 70
     3
  9
$SHADEDIF
 70
    70
  9
$TILEMODE
 70
     1
  9
$MAXACTVP
 70
    64
  9
$PINSBASE
 10
0.0
 20
0.0
 30
0.0
  9
$PLIMCHECK
 70
     0
  9
$PEXTMIN
 10
1.0000000000E+20
 20
1.0000000000E+20
 30
1.0000000000E+20
  9
$PEXTMAX
 10
-1.0000000000E+20
 20
-1.0000000000E+20
 30
-1.0000000000E+20
  9
$PLIMMIN
 10
0.0
 20
0.0
  9
$PLIMMAX
 10
420.0
 20
297.0
  9
$UNITMODE
 70
     0
  9
$VISRETAIN
 70
     1
  9
$PLINEGEN
 70
     0
  9
$PSLTSCALE
 70
     1
  9
$TREEDEPTH
 70
  3020
  9
$CMLSTYLE
  2
Standard
  9
$CMLJUST
 70
     0
  9
$CMLSCALE
 40
20.0
  9
$PROXYGRAPHICS
 70
     1
  9
$MEASUREMENT
 70
     1
  9
$CELWEIGHT
370
    -1
  9
$ENDCAPS
280
     0
  9
$JOINSTYLE
280
     0
  9
$LWDISPLAY
290
     1
  9
$INSUNITS
 70
     4
  9
$HYPERLINKBASE
  1

  9
$STYLESHEET
  1

  9
$XEDIT
290
     1
  9
$CEPSNTYPE
380
     0
  9
$PSTYLEMODE
290
     1
  9
$FINGERPRINTGUID
  2
{8fb44fea-33dc-47d5-a53f-2e3be8c1c481}
  9
$VERSIONGUID
  2
{FAEB1C32-E019-11D5-929B-00C0DF256EC4}
  9
$EXTNAMES
290
     1
  9
$PSVPSCALE
 40
0.0
  9
$OLESTARTUP
290
     0
  0
ENDSEC
  0
SECTION
  2
CLASSES
  0
CLASS
  1
ACDBDICTIONARYWDFLT
  2
AcDbDictionaryWithDefault
  3
ObjectDBX Classes
 90
        0
280
     0
281
     0
  0
CLASS
  1
VISUALSTYLE
  2
AcDbVisualStyle
  3
ObjectDBX Classes
 90
     4095
280
     0
281
     0
  0
CLASS
  1
MATERIAL
  2
AcDbMaterial
  3
ObjectDBX Classes
 90
     1153
280
     0
281
     0
  0
CLASS
  1
SCALE
  2
AcDbScale
  3
ObjectDBX Classes
 90
     1153
280
     0
281
     0
  0
CLASS
  1
TABLESTYLE
  2
AcDbTableStyle
  3
ObjectDBX Classes
 90
     4095
280
     0
281
     0
  0
CLASS
  1
MLEADERSTYLE
  2
AcDbMLeaderStyle
  3
ACDB_MLEADERSTYLE_CLASS
 90
     4095
280
     0
281
     0
  0
CLASS
  1
SUN
  2
AcDbSun
  3
SCENEOE
 90
     1153
280
     0
281
     0
  0
CLASS
  1
ACDBPLACEHOLDER
  2
AcDbPlaceHolder
  3
ObjectDBX Classes
 90
        0
280
     0
281
     0
  0
CLASS
  1
LAYOUT
  2
AcDbLayout
  3
ObjectDBX Classes
 90
        0
280
     0
281
     0
  0
ENDSEC
  0
SECTION
  2
TABLES
  0
TABLE
  2
VPORT
  5
8
330
0
100
AcDbSymbolTable
 70
     1
  0
VPORT
  5
29
330
8
100
AcDbSymbolTableRecord
100
AcDbViewportTableRecord
  2
*Active
 70
     0
 10
0.0
 20
0.0
 11
1.0
 21
1.0
 12
70.6564625768
 22
0.0
 13
0.0
 23
0.0
 14
10.0
 24
10.0
 15
10.0
 25
10.0
 16
0.0
 26
0.0
 36
1.0
 17
0.0
 27
0.0
 37
0.0
 40
17.030367691
 41
8.4636565852
 42
50.0
 43
0.0
 44
0.0
 50
0.0
 51
0.0
 71
     0
 72
   100
 73
     1
 74
     3
 75
     0
 76
     0
 77
     0
 78
     0
281
     0
 65
     1
110
0.0
120
0.0
130
0.0
111
1.0
121
0.0
131
0.0
112
0.0
122
1.0
132
0.0
 79
     0
146
0.0
  0
ENDTAB
  0
TABLE
  2
LTYPE
  5
5
330
0
100
AcDbSymbolTable
 70
     6
  0
LTYPE
  5
14
330
5
100
AcDbSymbolTableRecord
100
AcDbLinetypeTableRecord
  2
ByBlock
 70
     0
  3

 72
    65
 73
     0
 40
0.0
  0
LTYPE
  5
15
330
5
100
AcDbSymbolTableRecord
100
AcDbLinetypeTableRecord
  2
ByLayer
 70
     0
  3

 72
    65
 73
     0
 40
0.0
  0
LTYPE
  5
16
330
5
100
AcDbSymbolTableRecord
100
AcDbLinetypeTableRecord
  2
Continuous
 70
     0
  3
Solid line
 72
    65
 73
     0
 40
0.0
  0
LTYPE
  5
5E
330
5
100
AcDbSymbolTableRecord
100
AcDbLinetypeTableRecord
  2
HIDDEN
 70
     0
  3
Hidden __ __ __ __ __ __ __ __ __ __ __ __ __ __
 72
    65
 73
     2
 40
1.905
 49
1.27
 74
     0
 49
-0.635
 74
     0
  0
LTYPE
  5
5F
330
5
100
AcDbSymbolTableRecord
100
AcDbLinetypeTableRecord
  2
PHANTOM
 70
     0
  3
Phantom ______  __  __  ______  __  __  ______
 72
    65
 73
     6
 40
12.7
 49
6.35
 74
     0
 49
-1.27
 74
     0
 49
1.27
 74
     0
 49
-1.27
 74
     0
 49
1.27
 74
     0
 49
-1.27
 74
     0
  0
LTYPE
  5
60
330
5
100
AcDbSymbolTableRecord
100
AcDbLinetypeTableRecord
  2
CENTER
 70
     0
  3
Center ____ _ ____ _ ____ _ ____ _ ____ _ ____
 72
    65
 73
     4
 40
10.16
 49
6.35
 74
     0
 49
-1.27
 74
     0
 49
1.27
 74
     0
 49
-1.27
 74
     0
  0
LTYPE
  5
61
330
5
100
AcDbSymbolTableRecord
100
AcDbLinetypeTableRecord
  2
CENTERX2
 70
     0
  3
Center (2x) ________  __  ________  __  _____
 72
    65
 73
     4
 40
20.32
 49
12.7
 74
     0
 49
-2.54
 74
     0
 49
2.54
 74
     0
 49
-2.54
 74
     0
  0
LTYPE
  5
62
330
5
100
AcDbSymbolTableRecord
100
AcDbLinetypeTableRecord
  2
DOT2
 70
     0
  3
Dot (.5x) ........................................
 72
    65
 73
     2
 40
0.635
 49
0.0
 74
     0
 49
-0.635
 74
     0
  0
ENDTAB
  0
TABLE
  2
LAYER
  5
2
330
0
100
AcDbSymbolTable
 70
     1
  0
LAYER
  5
10
330
2
100
AcDbSymbolTableRecord
100
AcDbLayerTableRecord
  2
0
 70
     0
 62
     7
  6
Continuous
370
    -3
390
F
  0
ENDTAB
  0
TABLE
  2
STYLE
  5
3
330
0
100
AcDbSymbolTable
 70
     2
  0
STYLE
  5
11
330
3
100
AcDbSymbolTableRecord
100
AcDbTextStyleTableRecord
  2
Standard
 70
     0
 40
0.0
 41
1.0
 50
0.0
 71
     0
 42
3.5
  3
txt
  4

  0
STYLE
  5
76
330
3
100
AcDbSymbolTableRecord
100
AcDbTextStyleTableRecord
  2
SLDTEXTSTYLE0
 70
     0
 40
0.0
 41
0.7
 50
0.0
 71
     0
 42
3.5
  3
TXT
  4

  0
ENDTAB
  0
TABLE
  2
VIEW
  5
6
330
0
100
AcDbSymbolTable
 70
     0
  0
ENDTAB
  0
TABLE
  2
UCS
  5
7
330
0
100
AcDbSymbolTable
 70
     0
  0
ENDTAB
  0
TABLE
  2
APPID
  5
9
330
0
100
AcDbSymbolTable
 70
     1
  0
APPID
  5
12
330
9
100
AcDbSymbolTableRecord
100
AcDbRegAppTableRecord
  2
ACAD
 70
     0
  0
ENDTAB
  0
TABLE
  2
DIMSTYLE
  5
A
330
0
100
AcDbSymbolTable
 70
     1
100
AcDbDimStyleTable
  0
DIMSTYLE
105
27
330
A
100
AcDbSymbolTableRecord
100
AcDbDimStyleTableRecord
  2
ISO-25
 70
     0
 41
2.5
 42
0.625
 43
3.75
 44
1.25
 73
     0
 74
     0
 77
     1
 78
     8
140
2.5
141
2.5
143
0.0393700787
147
0.625
171
     3
172
     1
178
     0
271
     2
272
     2
274
     3
278
    44
283
     0
284
     8
340
11
  0
ENDTAB
  0
TABLE
  2
BLOCK_RECORD
  5
1
330
0
100
AcDbSymbolTable
 70
     1
  0
BLOCK_RECORD
  5
1F
330
1
100
AcDbSymbolTableRecord
100
AcDbBlockTableRecord
  2
*Model_Space
340
22
  0
BLOCK_RECORD
  5
1B
330
1
100
AcDbSymbolTableRecord
100
AcDbBlockTableRecord
  2
*Paper_Space
340
1E
  0
BLOCK_RECORD
  5
23
330
1
100
AcDbSymbolTableRecord
100
AcDbBlockTableRecord
  2
*Paper_Space0
340
26
  0
ENDTAB
  0
ENDSEC
  0
SECTION
  2
BLOCKS
  0
BLOCK
  5
20
330
1F
100
AcDbEntity
  8
0
100
AcDbBlockBegin
  2
*Model_Space
 70
     0
 10
0.0
 20
0.0
 30
0.0
  3
*Model_Space
  1

  0
ENDBLK
  5
21
330
1F
100
AcDbEntity
  8
0
100
AcDbBlockEnd
  0
BLOCK
  5
1C
330
1B
100
AcDbEntity
 67
     1
  8
0
100
AcDbBlockBegin
  2
*Paper_Space
 70
     0
 10
0.0
 20
0.0
 30
0.0
  3
*Paper_Space
  1

  0
ENDBLK
  5
1D
330
1B
100
AcDbEntity
 67
     1
  8
0
100
AcDbBlockEnd
  0
BLOCK
  5
24
330
23
100
AcDbEntity
  8
0
100
AcDbBlockBegin
  2
*Paper_Space0
 70
     0
 10
0.0
 20
0.0
 30
0.0
  3
*Paper_Space0
  1

  0
ENDBLK
  5
25
330
23
100
AcDbEntity
  8
0
100
AcDbBlockEnd
  0
ENDSEC
  0
SECTION
  2
ENTITIES
  0
LINE
  5
63
330
1F
100
AcDbEntity
  8
0
  6
Continuous
 62
     7
370
    25
100
AcDbLine
 10
83.75
 20
4.25
 30
0.0
 11
80.25
 21
4.25
 31
0.0
  0
LINE
  5
64
330
1F
100
AcDbEntity
  8
0
  6
Continuous
 62
     7
370
    25
100
AcDbLine
 10
83.75
 20
-4.25
 30
0.0
 11
83.75
 21
4.25
 31
0.0
  0
LINE
  5
65
330
1F
100
AcDbEntity
  8
0
  6
Continuous
 62
     7
370
    25
100
AcDbLine
 10
80.25
 20
-4.25
 30
0.0
 11
83.75
 21
-4.25
 31
0.0
  0
LINE
  5
66
330
1F
100
AcDbEntity
  8
0
  6
Continuous
 62
     7
370
    25
100
AcDbLine
 10
80.25
 20
4.25
 30
0.0
 11
80.25
 21
-4.25
 31
0.0
  0
LINE
  5
67
330
1F
100
AcDbEntity
  8
0
  6
Continuous
 62
     7
370
    25
100
AcDbLine
 10
26.75
 20
4.25
 30
0.0
 11
23.25
 21
4.25
 31
0.0
  0
LINE
  5
68
330
1F
100
AcDbEntity
  8
0
  6
Continuous
 62
     7
370
    25
100
AcDbLine
 10
26.75
 20
-4.25
 30
0.0
 11
26.75
 21
4.25
 31
0.0
  0
LINE
  5
69
330
1F
100
AcDbEntity
  8
0
  6
Continuous
 62
     7
370
    25
100
AcDbLine
 10
23.25
 20
-4.25
 30
0.0
 11
26.75
 21
-4.25
 31
0.0
  0
LINE
  5
6A
330
1F
100
AcDbEntity
  8
0
  6
Continuous
 62
     7
370
    25
100
AcDbLine
 10
23.25
 20
4.25
 30
0.0
 11
23.25
 21
-4.25
 31
0.0
  0
SPLINE
  5
6B
330
1F
100
AcDbEntity
  8
0
  6
Continuous
 62
     7
370
    25
100
AcDbSpline
210
0.0
220
0.0
230
1.0
 70
    11
 71
     3
 72
   138
 73
   134
 74
     0
 42
0.00000001
 43
0.00000001
 40
0.0
 40
0.0
 40
0.0
 40
0.0
 40
0.0021061680707412
 40
0.0043205901155111
 40
0.00677278324255
 40
0.0095566969740557
 40
0.0127340412762951
 40
0.016342887665016
 40
0.0204056041416188
 40
0.0249341021959062
 40
0.0299330711387399
 40
0.0354022405625184
 40
0.0413374297387623
 40
0.0477315899593609
 40
0.0545753893368606
 40
0.0618574049639954
 40
0.0695645708943233
 40
0.0776823107915671
 40
0.0861946839628209
 40
0.0950844406286816
 40
0.1043332440826675
 40
0.1139217001652501
 40
0.1238293388173807
 40
0.1340347075877426
 40
0.1445155308376062
 40
0.1552487162444546
 40
0.1662103559114239
 40
0.1773757827851012
 40
0.1887198210860831
 40
0.2002166471905668
 40
0.2118399506598019
 40
0.223562989450439
 40
0.2353586527269131
 40
0.2471996247425814
 40
0.2590583952397627
 40
0.2709072260003518
 40
0.2827184568406497
 40
0.294464514017973
 40
0.3061176891751031
 40
0.3176507706404048
 40
0.3290366181378914
 40
0.3402485103878132
 40
0.3512599991079841
 40
0.3620452732879947
 40
0.3725788910118388
 40
0.3828361423787241
 40
0.3927927394522929
 40
0.4024253201575171
 40
0.4117111148153431
 40
0.4206282443910386
 40
0.4291556726786626
 40
0.4372731794892729
 40
0.4449615609568891
 40
0.4522025749754582
 40
0.4589790625951323
 40
0.4652748756520636
 40
0.4710749628198788
 40
0.4763655692602005
 40
0.4811339605823388
 40
0.4853687677728626
 40
0.4890597841785489
 40
0.4921981479581782
 40
0.494776266124308
 40
0.4967880100265546
 40
0.4982284254079303
 40
0.4990940729269256
 40
0.4993828620531811
 40
0.5006171379468192
 40
0.5009059270730747
 40
0.5017715745920699
 40
0.5032119899734457
 40
0.5052237338756922
 40
0.5078018520418222
 40
0.5109402158214513
 40
0.5146312322271377
 40
0.5188660394176614
 40
0.5236344307397998
 40
0.5289250371801215
 40
0.5347251243479365
 40
0.5410209374048679
 40
0.5477974250245419
 40
0.5550384390431111
 40
0.5627268205107272
 40
0.5708443273213376
 40
0.5793717556089617
 40
0.5882888851846572
 40
0.5975746798424832
 40
0.6072072605477075
 40
0.6171638576212762
 40
0.6274211089881614
 40
0.6379547267120056
 40
0.6487400008920161
 40
0.659751489612187
 40
0.6709633818621088
 40
0.6823492293595954
 40
0.693882310824897
 40
0.7055354859820271
 40
0.7172815431593506
 40
0.7290927739996484
 40
0.7409416047602375
 40
0.7528003752574187
 40
0.7646413472730871
 40
0.7764370105495613
 40
0.7881600493401983
 40
0.7997833528094334
 40
0.811280178913917
 40
0.8226242172148989
 40
0.8337896440885763
 40
0.8447512837555455
 40
0.855484469162394
 40
0.8659652924122576
 40
0.8761706611826194
 40
0.8860782998347502
 40
0.8956667559173327
 40
0.9049155593713186
 40
0.9138053160371792
 40
0.922317689208433
 40
0.9304354291056768
 40
0.9381425950360048
 40
0.9454246106631397
 40
0.9522684100406392
 40
0.9586625702612378
 40
0.9645977594374817
 40
0.9700669288612601
 40
0.9750658978040939
 40
0.9795943958583813
 40
0.9836571123349841
 40
0.9872659587237052
 40
0.9904433030259444
 40
0.99322721675745
 40
0.9956794098844889
 40
0.9978938319292588
 40
1.0
 40
1.0
 40
1.0
 40
1.0
 10
-0.0000000000000001
 20
0.0000000000000021
 30
0.0
 10
0.0000000000000001
 20
-0.2030541827778806
 30
0.0
 10
0.0581896114140226
 20
-0.6195992378525171
 30
0.0
 10
0.3191773093149595
 20
-1.223381515564378
 30
0.0
 10
0.7456655806153341
 20
-1.804480923907529
 30
0.0
 10
1.332477212773448
 20
-2.365419581806635
 30
0.0
 10
2.077713539877517
 20
-2.90816773613148
 30
0.0
 10
2.980289458886739
 20
-3.433243959706632
 30
0.0
 10
4.03888404038248
 20
-3.940051667093574
 30
0.0
 10
5.251620375487683
 20
-4.427442033240692
 30
0.0
 10
6.616092539124928
 20
-4.89396433230457
 30
0.0
 10
8.129388245420097
 20
-5.338055618239119
 30
0.0
 10
9.788176996226646
 20
-5.758042772406714
 30
0.0
 10
11.58869343787816
 20
-6.152401123061557
 30
0.0
 10
13.52684026723097
 20
-6.519510646368636
 30
0.0
 10
15.59813703499069
 20
-6.858035653059331
 30
0.0
 10
17.79780327113866
 20
-7.166586843200102
 30
0.0
 10
20.1207226810032
 20
-7.444122564595557
 30
0.0
 10
22.56149674476771
 20
-7.689651458850673
 30
0.0
 10
25.11443407523679
 20
-7.902490344269157
 30
0.0
 10
27.77358604239673
 20
-8.082146893620553
 30
0.0
 10
30.53275786321452
 20
-8.228319469966147
 30
0.0
 10
33.38550722793792
 20
-8.341040732206919
 30
0.0
 10
36.32517366831915
 20
-8.420521403523168
 30
0.0
 10
39.34489684754178
 20
-8.467195798206566
 30
0.0
 10
42.43763149729017
 20
-8.481786451098564
 30
0.0
 10
45.59615423540145
 20
-8.465165845310379
 30
0.0
 10
48.81309015149763
 20
-8.418420877046657
 30
0.0
 10
52.08092780292682
 20
-8.34281814729416
 30
0.0
 10
55.39204372420659
 20
-8.239794783009238
 30
0.0
 10
58.7387042677377
 20
-8.110855525760938
 30
0.0
 10
62.11309230958714
 20
-7.957659228941727
 30
0.0
 10
65.50732982063056
 20
-7.78194470174014
 30
0.0
 10
68.91349498663234
 20
-7.585482152360351
 30
0.0
 10
72.32363405088621
 20
-7.370096763702124
 30
0.0
 10
75.7297830895392
 20
-7.137619981890612
 30
0.0
 10
79.12399118915634
 20
-6.889877086181261
 30
0.0
 10
82.49833005730609
 20
-6.628725099710222
 30
0.0
 10
85.8449211754799
 20
-6.35591151927768
 30
0.0
 10
89.1559431578032
 20
-6.073218469654755
 30
0.0
 10
92.42367532081657
 20
-5.782359306957725
 30
0.0
 10
95.64047635053748
 20
-5.485006553716055
 30
0.0
 10
98.79884127399495
 20
-5.182828885257257
 30
0.0
 10
101.8913831590939
 20
-4.87736402079256
 30
0.0
 10
104.9108936706492
 20
-4.570198591177137
 30
0.0
 10
107.8503076887212
 20
-4.262826047370013
 30
0.0
 10
110.7027675202018
 20
-3.956757782787511
 30
0.0
 10
113.46160524836
 20
-3.653482749467065
 30
0.0
 10
116.1203752018015
 20
-3.354359815180984
 30
0.0
 10
118.6728782637859
 20
-3.060908921949688
 30
0.0
 10
121.1131479541725
 20
-2.774494699313031
 30
0.0
 10
123.4354846383821
 20
-2.496524334153328
 30
0.0
 10
125.6344578328087
 20
-2.22836746267226
 30
0.0
 10
127.7049409519375
 20
-1.971429715653325
 30
0.0
 10
129.6420927985407
 20
-1.727006471360558
 30
0.0
 10
131.4413927107796
 20
-1.496464848352465
 30
0.0
 10
133.0986309503739
 20
-1.280990573036514
 30
0.0
 10
134.6099423347677
 20
-1.081896103686479
 30
0.0
 10
135.9718110656823
 20
-0.9002879556585484
 30
0.0
 10
137.1810029692693
 20
-0.7371918184264469
 30
0.0
 10
138.234866348668
 20
-0.5939288415999382
 30
0.0
 10
139.1304229685707
 20
-0.4703480149027419
 30
0.0
 10
139.8670565425136
 20
-0.3702718767938709
 30
0.0
 10
140.4391056140806
 20
-0.2861696173496042
 30
0.0
 10
140.8548058789855
 20
-0.2384540107493795
 30
0.0
 10
141.0936152783128
 20
-0.1868189899570232
 30
0.0
 10
141.3385678817048
 20
-0.1914854317065429
 30
0.0
 10
141.3385678817047
 20
0.1914854317065632
 30
0.0
 10
141.0936152783129
 20
0.1868189899570138
 30
0.0
 10
140.8548058789855
 20
0.2384540107493897
 30
0.0
 10
140.4391056140806
 20
0.2861696173495974
 30
0.0
 10
139.8670565425136
 20
0.370271876793876
 30
0.0
 10
139.1304229685707
 20
0.4703480149027374
 30
0.0
 10
138.234866348668
 20
0.5939288415999437
 30
0.0
 10
137.1810029692694
 20
0.7371918184264403
 30
0.0
 10
135.9718110656822
 20
0.9002879556585536
 30
0.0
 10
134.6099423347677
 20
1.081896103686477
 30
0.0
 10
133.098630950374
 20
1.280990573036511
 30
0.0
 10
131.4413927107796
 20
1.49646484835247
 30
0.0
 10
129.6420927985407
 20
1.727006471360556
 30
0.0
 10
127.7049409519374
 20
1.971429715653327
 30
0.0
 10
125.6344578328087
 20
2.22836746267226
 30
0.0
 10
123.435484638382
 20
2.496524334153329
 30
0.0
 10
121.1131479541726
 20
2.774494699313032
 30
0.0
 10
118.6728782637859
 20
3.060908921949685
 30
0.0
 10
116.1203752018015
 20
3.354359815180988
 30
0.0
 10
113.46160524836
 20
3.653482749467063
 30
0.0
 10
110.7027675202018
 20
3.95675778278751
 30
0.0
 10
107.8503076887212
 20
4.262826047370014
 30
0.0
 10
104.9108936706491
 20
4.570198591177138
 30
0.0
 10
101.8913831590939
 20
4.877364020792559
 30
0.0
 10
98.79884127399491
 20
5.182828885257255
 30
0.0
 10
95.64047635053748
 20
5.485006553716058
 30
0.0
 10
92.42367532081656
 20
5.782359306957724
 30
0.0
 10
89.1559431578032
 20
6.073218469654755
 30
0.0
 10
85.8449211754799
 20
6.355911519277684
 30
0.0
 10
82.49833005730608
 20
6.62872509971022
 30
0.0
 10
79.12399118915634
 20
6.889877086181261
 30
0.0
 10
75.7297830895392
 20
7.137619981890613
 30
0.0
 10
72.32363405088626
 20
7.370096763702127
 30
0.0
 10
68.91349498663227
 20
7.585482152360345
 30
0.0
 10
65.50732982063059
 20
7.781944701740144
 30
0.0
 10
62.11309230958711
 20
7.957659228941726
 30
0.0
 10
58.73870426773774
 20
8.11085552576094
 30
0.0
 10
55.39204372420656
 20
8.239794783009234
 30
0.0
 10
52.08092780292685
 20
8.342818147294166
 30
0.0
 10
48.81309015149763
 20
8.41842087704666
 30
0.0
 10
45.59615423540146
 20
8.465165845310377
 30
0.0
 10
42.43763149729016
 20
8.481786451098568
 30
0.0
 10
39.34489684754177
 20
8.467195798206566
 30
0.0
 10
36.32517366831917
 20
8.420521403523168
 30
0.0
 10
33.38550722793787
 20
8.341040732206915
 30
0.0
 10
30.53275786321454
 20
8.228319469966147
 30
0.0
 10
27.77358604239674
 20
8.082146893620559
 30
0.0
 10
25.11443407523678
 20
7.902490344269155
 30
0.0
 10
22.56149674476772
 20
7.689651458850675
 30
0.0
 10
20.12072268100321
 20
7.444122564595556
 30
0.0
 10
17.79780327113865
 20
7.166586843200101
 30
0.0
 10
15.5981370349907
 20
6.858035653059334
 30
0.0
 10
13.52684026723098
 20
6.519510646368637
 30
0.0
 10
11.58869343787815
 20
6.152401123061553
 30
0.0
 10
9.788176996226643
 20
5.758042772406714
 30
0.0
 10
8.129388245420122
 20
5.338055618239125
 30
0.0
 10
6.616092539124899
 20
4.89396433230456
 30
0.0
 10
5.251620375487694
 20
4.427442033240696
 30
0.0
 10
4.038884040382476
 20
3.940051667093573
 30
0.0
 10
2.980289458886733
 20
3.43324395970663
 30
0.0
 10
2.077713539877524
 20
2.908167736131485
 30
0.0
 10
1.332477212773468
 20
2.365419581806652
 30
0.0
 10
0.7456655806153194
 20
1.804480923907513
 30
0.0
 10
0.3191773093149596
 20
1.223381515564377
 30
0.0
 10
0.0581896114140217
 20
0.6195992378525137
 30
0.0
 10
-0.0000000000000002
 20
0.2030541827778848
 30
0.0
 10
-0.0000000000000001
 20
0.0000000000000021
 30
0.0
  0
LINE
  5
6C
330
1F
100
AcDbEntity
  8
0
  6
Continuous
 62
     7
370
    25
100
AcDbLine
 10
60.25
 20
4.25
 30
0.0
 11
56.75
 21
4.25
 31
0.0
  0
LINE
  5
6D
330
1F
100
AcDbEntity
  8
0
  6
Continuous
 62
     7
370
    25
100
AcDbLine
 10
60.25
 20
-4.25
 30
0.0
 11
60.25
 21
4.25
 31
0.0
  0
LINE
  5
6E
330
1F
100
AcDbEntity
  8
0
  6
Continuous
 62
     7
370
    25
100
AcDbLine
 10
56.75
 20
-4.25
 30
0.0
 11
60.25
 21
-4.25
 31
0.0
  0
LINE
  5
6F
330
1F
100
AcDbEntity
  8
0
  6
Continuous
 62
     7
370
    25
100
AcDbLine
 10
56.75
 20
4.25
 30
0.0
 11
56.75
 21
-4.25
 31
0.0
  0
ARC
  5
70
330
1F
100
AcDbEntity
  8
0
  6
Continuous
 62
     7
370
    25
100
AcDbCircle
 10
47.75
 20
0.0
 30
0.0
 40
4.000000000000006
100
AcDbArc
 50
270.0
 51
90.0
  0
LINE
  5
71
330
1F
100
AcDbEntity
  8
0
  6
Continuous
 62
     7
370
    25
100
AcDbLine
 10
35.75
 20
-4.0
 30
0.0
 11
47.75
 21
-4.0
 31
0.0
  0
ARC
  5
72
330
1F
100
AcDbEntity
  8
0
  6
Continuous
 62
     7
370
    25
100
AcDbCircle
 10
35.75
 20
0.0
 30
0.0
 40
4.000000000000001
100
AcDbArc
 50
90.0
 51
270.0
  0
LINE
  5
73
330
1F
100
AcDbEntity
  8
0
  6
Continuous
 62
     7
370
    25
100
AcDbLine
 10
47.75
 20
4.0
 30
0.0
 11
35.75
 21
4.0
 31
0.0
  0
CIRCLE
  5
74
330
1F
100
AcDbEntity
  8
0
  6
Continuous
 62
     7
370
    25
100
AcDbCircle
 10
70.25
 20
0.0
 30
0.0
 40
4.000000000000014
  0
CIRCLE
  5
75
330
1F
100
AcDbEntity
  8
0
  6
Continuous
 62
     7
370
    25
100
AcDbCircle
 10
13.0
 20
0.0
 30
0.0
 40
4.000000000000009
  0
MTEXT
  5
77
330
1F
100
AcDbEntity
  8
0
  6
Continuous
 62
     7
100
AcDbMText
 10
0.0
 20
-9.367785848
 30
0.0
 40
4.83362
 41
0.0
 71
     1
 72
     1
  1
SOLIDWORKS Educational Product.
  7
SLDTEXTSTYLE0
 73
     1
 44
1.0
  0
MTEXT
  5
78
330
1F
100
AcDbEntity
  8
0
  6
Continuous
 62
     7
100
AcDbMText
 10
0.0
 20
-16.618215848
 30
0.0
 40
4.83362
 41
0.0
 71
     1
 72
     1
  1
For Instructional Use Only.
  7
SLDTEXTSTYLE0
 73
     1
 44
1.0
  0
ENDSEC
  0
SECTION
  2
OBJECTS
  0
DICTIONARY
  5
C
330
0
100
AcDbDictionary
281
     1
  3
ACAD_GROUP
350
D
  3
ACAD_LAYOUT
350
1A
  3
ACAD_MLINESTYLE
350
17
  3
ACAD_PLOTSETTINGS
350
19
  3
ACAD_PLOTSTYLENAME
350
E
  3
ACAD_SCALELIST
350
47
  3
DWGPROPS
350
79
  0
DICTIONARY
  5
D
102
{ACAD_REACTORS
330
C
102
}
330
C
100
AcDbDictionary
281
     1
  0
DICTIONARY
  5
1A
102
{ACAD_REACTORS
330
C
102
}
330
C
100
AcDbDictionary
281
     1
  3
Layout1
350
1E
  3
Layout2
350
26
  3
Model
350
22
  0
DICTIONARY
  5
17
102
{ACAD_REACTORS
330
C
102
}
330
C
100
AcDbDictionary
281
     1
  3
Standard
350
18
  0
DICTIONARY
  5
19
102
{ACAD_REACTORS
330
C
102
}
330
C
100
AcDbDictionary
281
     1
  0
ACDBDICTIONARYWDFLT
  5
E
102
{ACAD_REACTORS
330
C
102
}
330
C
100
AcDbDictionary
281
     1
  3
Normal
350
F
100
AcDbDictionaryWithDefault
340
F
  0
DICTIONARY
  5
47
102
{ACAD_REACTORS
330
C
102
}
330
C
100
AcDbDictionary
281
     1
  3
A0
350
48
  3
A1
350
49
  3
A2
350
4A
  3
A3
350
4B
  3
A4
350
4C
  3
A5
350
4D
  3
A6
350
4E
  3
A7
350
4F
  3
A8
350
50
  3
A9
350
51
  3
B0
350
52
  3
B1
350
53
  3
B2
350
54
  3
B3
350
55
  3
B4
350
56
  3
B5
350
57
  3
B6
350
58
  0
XRECORD
  5
79
102
{ACAD_REACTORS
330
C
102
}
330
C
100
AcDbXrecord
280
     1
  1
DWGPROPS COOKIE
  2

  3

  4

  6

  7

  8
mahmo
  9

300
=
301
=
302
=
303
=
304
=
305
=
306
=
307
=
308
=
309
=
 40
0.0
 41
2461297.310680833
 42
2461297.310718195
  1

 90
        0
  0
LAYOUT
  5
1E
102
{ACAD_REACTORS
330
1A
102
}
330
1A
100
AcDbPlotSettings
  1

  2
none_device
  4

  6

 40
0.0
 41
0.0
 42
0.0
 43
0.0
 44
0.0
 45
0.0
 46
0.0
 47
0.0
 48
0.0
 49
0.0
140
0.0
141
0.0
142
1.0
143
1.0
 70
   688
 72
     1
 73
     0
 74
     5
  7

 75
    16
147
1.0
148
0.0
149
0.0
100
AcDbLayout
  1
Layout1
 70
     1
 71
     1
 10
0.0
 20
0.0
 11
420.0
 21
297.0
 12
0.0
 22
0.0
 32
0.0
 14
1.0000000000E+20
 24
1.0000000000E+20
 34
1.0000000000E+20
 15
-1.0000000000E+20
 25
-1.0000000000E+20
 35
-1.0000000000E+20
146
0.0
 13
0.0
 23
0.0
 33
0.0
 16
1.0
 26
0.0
 36
0.0
 17
0.0
 27
1.0
 37
0.0
 76
     0
330
1B
  0
LAYOUT
  5
26
102
{ACAD_REACTORS
330
1A
102
}
330
1A
100
AcDbPlotSettings
  1

  2
none_device
  4

  6

 40
0.0
 41
0.0
 42
0.0
 43
0.0
 44
0.0
 45
0.0
 46
0.0
 47
0.0
 48
0.0
 49
0.0
140
0.0
141
0.0
142
1.0
143
1.0
 70
   688
 72
     1
 73
     0
 74
     5
  7

 75
    16
147
1.0
148
0.0
149
0.0
100
AcDbLayout
  1
Layout2
 70
     1
 71
     2
 10
0.0
 20
0.0
 11
0.0
 21
0.0
 12
0.0
 22
0.0
 32
0.0
 14
0.0
 24
0.0
 34
0.0
 15
0.0
 25
0.0
 35
0.0
146
0.0
 13
0.0
 23
0.0
 33
0.0
 16
1.0
 26
0.0
 36
0.0
 17
0.0
 27
1.0
 37
0.0
 76
     0
330
23
  0
LAYOUT
  5
22
102
{ACAD_REACTORS
330
1A
102
}
330
1A
100
AcDbPlotSettings
  1

  2
none_device
  4
ANSI_A_(11.00_x_8.50_Inches)
  6

 40
6.35
 41
19.05
 42
6.35000508
 43
19.05000254
 44
279.4
 45
215.9
 46
-4.95300254
 47
88.89999873
 48
0.0
 49
0.0
140
0.0
141
0.0
142
0.0770630145
143
1.0
 70
  1696
 72
     0
 73
     0
 74
     0
  7

 75
     0
147
0.0179189148
148
-1300.4909072572
149
0.0
100
AcDbLayout
  1
Model
 70
     1
 71
     0
 10
0.0
 20
0.0
 11
420.0
 21
297.0
 12
0.0
 22
0.0
 32
0.0
 14
0.0
 24
-8.3482194564
 34
0.0
 15
141.3129251535
 25
8.3482194564
 35
0.0
146
0.0
 13
0.0
 23
0.0
 33
0.0
 16
1.0
 26
0.0
 36
0.0
 17
0.0
 27
1.0
 37
0.0
 76
     0
330
1F
331
29
  0
MLINESTYLE
  5
18
102
{ACAD_REACTORS
330
17
102
}
330
17
100
AcDbMlineStyle
  2
Standard
 70
     0
  3

 62
   256
 51
90.0
 52
90.0
 71
     2
 49
0.5
 62
   256
  6
BYLAYER
 49
-0.5
 62
   256
  6
BYLAYER
  0
ACDBPLACEHOLDER
  5
F
102
{ACAD_REACTORS
330
E
102
}
330
E
  0
SCALE
  5
48
102
{ACAD_REACTORS
330
47
102
}
330
47
100
AcDbScale
 70
     0
300
1:1
140
1.0
141
1.0
290
     1
  0
SCALE
  5
49
102
{ACAD_REACTORS
330
47
102
}
330
47
100
AcDbScale
 70
     0
300
1:2
140
1.0
141
2.0
290
     0
  0
SCALE
  5
4A
102
{ACAD_REACTORS
330
47
102
}
330
47
100
AcDbScale
 70
     0
300
1:4
140
1.0
141
4.0
290
     0
  0
SCALE
  5
4B
102
{ACAD_REACTORS
330
47
102
}
330
47
100
AcDbScale
 70
     0
300
1:5
140
1.0
141
5.0
290
     0
  0
SCALE
  5
4C
102
{ACAD_REACTORS
330
47
102
}
330
47
100
AcDbScale
 70
     0
300
1:8
140
1.0
141
8.0
290
     0
  0
SCALE
  5
4D
102
{ACAD_REACTORS
330
47
102
}
330
47
100
AcDbScale
 70
     0
300
1:10
140
1.0
141
10.0
290
     0
  0
SCALE
  5
4E
102
{ACAD_REACTORS
330
47
102
}
330
47
100
AcDbScale
 70
     0
300
1:16
140
1.0
141
16.0
290
     0
  0
SCALE
  5
4F
102
{ACAD_REACTORS
330
47
102
}
330
47
100
AcDbScale
 70
     0
300
1:20
140
1.0
141
20.0
290
     0
  0
SCALE
  5
50
102
{ACAD_REACTORS
330
47
102
}
330
47
100
AcDbScale
 70
     0
300
1:30
140
1.0
141
30.0
290
     0
  0
SCALE
  5
51
102
{ACAD_REACTORS
330
47
102
}
330
47
100
AcDbScale
 70
     0
300
1:40
140
1.0
141
40.0
290
     0
  0
SCALE
  5
52
102
{ACAD_REACTORS
330
47
102
}
330
47
100
AcDbScale
 70
     0
300
1:50
140
1.0
141
50.0
290
     0
  0
SCALE
  5
53
102
{ACAD_REACTORS
330
47
102
}
330
47
100
AcDbScale
 70
     0
300
1:100
140
1.0
141
100.0
290
     0
  0
SCALE
  5
54
102
{ACAD_REACTORS
330
47
102
}
330
47
100
AcDbScale
 70
     0
300
2:1
140
2.0
141
1.0
290
     0
  0
SCALE
  5
55
102
{ACAD_REACTORS
330
47
102
}
330
47
100
AcDbScale
 70
     0
300
4:1
140
4.0
141
1.0
290
     0
  0
SCALE
  5
56
102
{ACAD_REACTORS
330
47
102
}
330
47
100
AcDbScale
 70
     0
300
8:1
140
8.0
141
1.0
290
     0
  0
SCALE
  5
57
102
{ACAD_REACTORS
330
47
102
}
330
47
100
AcDbScale
 70
     0
300
10:1
140
10.0
141
1.0
290
     0
  0
SCALE
  5
58
102
{ACAD_REACTORS
330
47
102
}
330
47
100
AcDbScale
 70
     0
300
100:1
140
100.0
141
1.0
290
     0
  0
ENDSEC
  0
EOF
