  0
SECTION
  2
HEADER
  9
$ACADVER
  1
AC1015
  9
$ACADMAINTVER
 70
     6
  9
$DWGCODEPAGE
  3
ANSI_1252
  9
$INSBASE
 10
0.0
 20
0.0
 30
0.0
  9
$EXTMIN
 10
0.0
 20
-5.9108298419
 30
0.0
  9
$EXTMAX
 10
100.0544678313
 20
5.9108298419
 30
0.0
  9
$LIMMIN
 10
0.0
 20
0.0
  9
$LIMMAX
 10
420.0
 20
297.0
  9
$ORTHOMODE
 70
     0
  9
$REGENMODE
 70
     1
  9
$FILLMODE
 70
     1
  9
$QTEXTMODE
 70
     0
  9
$MIRRTEXT
 70
     1
  9
$LTSCALE
 40
1.0
  9
$ATTMODE
 70
     1
  9
$TEXTSIZE
 40
3.5
  9
$TRACEWID
 40
1.0
  9
$TEXTSTYLE
  7
Standard
  9
$CLAYER
  8
0
  9
$CELTYPE
  6
ByLayer
  9
$CECOLOR
 62
   256
  9
$CELTSCALE
 40
1.0
  9
$DISPSILH
 70
     0
  9
$DIMSCALE
 40
1.0
  9
$DIMASZ
 40
3.302
  9
$DIMEXO
 40
0.0
  9
$DIMDLI
 40
3.75
  9
$DIMRND
 40
0.0
  9
$DIMDLE
 40
0.0
  9
$DIMEXE
 40
1.0
  9
$DIMTP
 40
0.0
  9
$DIMTM
 40
0.0
  9
$DIMTXT
 40
3.5
  9
$DIMCEN
 40
2.5
  9
$DIMTSZ
 40
0.0
  9
$DIMTOL
 70
     0
  9
$DIMLIM
 70
     0
  9
$DIMTIH
 70
     1
  9
$DIMTOH
 70
     1
  9
$DIMSE1
 70
     0
  9
$DIMSE2
 70
     0
  9
$DIMTAD
 70
     1
  9
$DIMZIN
 70
     1
  9
$DIMBLK
  1

  9
$DIMASO
 70
     1
  9
$DIMSHO
 70
     1
  9
$DIMPOST
  1

  9
$DIMAPOST
  1

  9
$DIMALT
 70
     0
  9
$DIMALTD
 70
     3
  9
$DIMALTF
 40
0.0393700787
  9
$DIMLFAC
 40
1.0
  9
$DIMTOFL
 70
     1
  9
$DIMTVP
 40
0.0
  9
$DIMTIX
 70
     0
  9
$DIMSOXD
 70
     0
  9
$DIMSAH
 70
     0
  9
$DIMBLK1
  1

  9
$DIMBLK2
  1

  9
$DIMSTYLE
  2
ISO-25
  9
$DIMCLRD
 70
     0
  9
$DIMCLRE
 70
     0
  9
$DIMCLRT
 70
     0
  9
$DIMTFAC
 40
1.0
  9
$DIMGAP
 40
1.524
  9
$DIMJUST
 70
     0
  9
$DIMSD1
 70
     0
  9
$DIMSD2
 70
     0
  9
$DIMTOLJ
 70
     0
  9
$DIMTZIN
 70
     1
  9
$DIMALTZ
 70
     0
  9
$DIMALTTZ
 70
     0
  9
$DIMUPT
 70
     0
  9
$DIMDEC
 70
     2
  9
$DIMTDEC
 70
     2
  9
$DIMALTU
 70
     2
  9
$DIMALTTD
 70
     3
  9
$DIMTXSTY
  7
Standard
  9
$DIMAUNIT
 70
     0
  9
$DIMADEC
 70
     2
  9
$DIMALTRND
 40
0.0
  9
$DIMAZIN
 70
     0
  9
$DIMDSEP
 70
    44
  9
$DIMATFIT
 70
     3
  9
$DIMFRAC
 70
     0
  9
$DIMLDRBLK
  1

  9
$DIMLUNIT
 70
     2
  9
$DIMLWD
 70
    -2
  9
$DIMLWE
 70
    -2
  9
$DIMTMOVE
 70
     0
  9
$LUNITS
 70
     2
  9
$LUPREC
 70
     2
  9
$SKETCHINC
 40
1.0
  9
$FILLETRAD
 40
0.0
  9
$AUNITS
 70
     0
  9
$AUPREC
 70
     2
  9
$MENU
  1
.
  9
$ELEVATION
 40
0.0
  9
$PELEVATION
 40
0.0
  9
$THICKNESS
 40
0.0
  9
$LIMCHECK
 70
     0
  9
$CHAMFERA
 40
0.0
  9
$CHAMFERB
 40
0.0
  9
$CHAMFERC
 40
0.0
  9
$CHAMFERD
 40
0.0
  9
$SKPOLY
 70
     0
  9
$TDCREATE
 40
2461297.437923392
  9
$TDUCREATE
 40
2461297.312923392
  9
$TDUPDATE
 40
2461297.438019422
  9
$TDUUPDATE
 40
2461297.313019422
  9
$TDINDWG
 40
0.0000000116
  9
$TDUSRTIMER
 40
0.0000000116
  9
$USRTIMER
 70
     1
  9
$ANGBASE
 50
0.0
  9
$ANGDIR
 70
     0
  9
$PDMODE
 70
     0
  9
$PDSIZE
 40
-1.0
  9
$PLINEWID
 40
0.0
  9
$SPLFRAME
 70
     0
  9
$SPLINETYPE
 70
     6
  9
$SPLINESEGS
 70
     8
  9
$HANDSEED
  5
73
  9
$SURFTAB1
 70
     6
  9
$SURFTAB2
 70
     6
  9
$SURFTYPE
 70
     6
  9
$SURFU
 70
     6
  9
$SURFV
 70
     6
  9
$UCSBASE
  2

  9
$UCSNAME
  2

  9
$UCSORG
 10
0.0
 20
0.0
 30
0.0
  9
$UCSXDIR
 10
1.0
 20
0.0
 30
0.0
  9
$UCSYDIR
 10
0.0
 20
1.0
 30
0.0
  9
$UCSORTHOREF
  2

  9
$UCSORTHOVIEW
 70
     0
  9
$UCSORGTOP
 10
0.0
 20
0.0
 30
0.0
  9
$UCSORGBOTTOM
 10
0.0
 20
0.0
 30
0.0
  9
$UCSORGLEFT
 10
0.0
 20
0.0
 30
0.0
  9
$UCSORGRIGHT
 10
0.0
 20
0.0
 30
0.0
  9
$UCSORGFRONT
 10
0.0
 20
0.0
 30
0.0
  9
$UCSORGBACK
 10
0.0
 20
0.0
 30
0.0
  9
$PUCSBASE
  2

  9
$PUCSNAME
  2

  9
$PUCSORG
 10
0.0
 20
0.0
 30
0.0
  9
$PUCSXDIR
 10
1.0
 20
0.0
 30
0.0
  9
$PUCSYDIR
 10
0.0
 20
1.0
 30
0.0
  9
$PUCSORTHOREF
  2

  9
$PUCSORTHOVIEW
 70
     0
  9
$PUCSORGTOP
 10
0.0
 20
0.0
 30
0.0
  9
$PUCSORGBOTTOM
 10
0.0
 20
0.0
 30
0.0
  9
$PUCSORGLEFT
 10
0.0
 20
0.0
 30
0.0
  9
$PUCSORGRIGHT
 10
0.0
 20
0.0
 30
0.0
  9
$PUCSORGFRONT
 10
0.0
 20
0.0
 30
0.0
  9
$PUCSORGBACK
 10
0.0
 20
0.0
 30
0.0
  9
$USERI1
 70
     0
  9
$USERI2
 70
     0
  9
$USERI3
 70
     0
  9
$USERI4
 70
     0
  9
$USERI5
 70
     0
  9
$USERR1
 40
0.0
  9
$USERR2
 40
0.0
  9
$USERR3
 40
0.0
  9
$USERR4
 40
0.0
  9
$USERR5
 40
0.0
  9
$WORLDVIEW
 70
     1
  9
$SHADEDGE
 70
     3
  9
$SHADEDIF
 70
    70
  9
$TILEMODE
 70
     1
  9
$MAXACTVP
 70
    64
  9
$PINSBASE
 10
0.0
 20
0.0
 30
0.0
  9
$PLIMCHECK
 70
     0
  9
$PEXTMIN
 10
1.0000000000E+20
 20
1.0000000000E+20
 30
1.0000000000E+20
  9
$PEXTMAX
 10
-1.0000000000E+20
 20
-1.0000000000E+20
 30
-1.0000000000E+20
  9
$PLIMMIN
 10
0.0
 20
0.0
  9
$PLIMMAX
 10
420.0
 20
297.0
  9
$UNITMODE
 70
     0
  9
$VISRETAIN
 70
     1
  9
$PLINEGEN
 70
     0
  9
$PSLTSCALE
 70
     1
  9
$TREEDEPTH
 70
  3020
  9
$CMLSTYLE
  2
Standard
  9
$CMLJUST
 70
     0
  9
$CMLSCALE
 40
20.0
  9
$PROXYGRAPHICS
 70
     1
  9
$MEASUREMENT
 70
     1
  9
$CELWEIGHT
370
    -1
  9
$ENDCAPS
280
     0
  9
$JOINSTYLE
280
     0
  9
$LWDISPLAY
290
     1
  9
$INSUNITS
 70
     4
  9
$HYPERLINKBASE
  1

  9
$STYLESHEET
  1

  9
$XEDIT
290
     1
  9
$CEPSNTYPE
380
     0
  9
$PSTYLEMODE
290
     1
  9
$FINGERPRINTGUID
  2
{bf59d65f-439a-4cde-9416-8b4b117d5541}
  9
$VERSIONGUID
  2
{FAEB1C32-E019-11D5-929B-00C0DF256EC4}
  9
$EXTNAMES
290
     1
  9
$PSVPSCALE
 40
0.0
  9
$OLESTARTUP
290
     0
  0
ENDSEC
  0
SECTION
  2
CLASSES
  0
CLASS
  1
ACDBDICTIONARYWDFLT
  2
AcDbDictionaryWithDefault
  3
ObjectDBX Classes
 90
        0
280
     0
281
     0
  0
CLASS
  1
VISUALSTYLE
  2
AcDbVisualStyle
  3
ObjectDBX Classes
 90
     4095
280
     0
281
     0
  0
CLASS
  1
MATERIAL
  2
AcDbMaterial
  3
ObjectDBX Classes
 90
     1153
280
     0
281
     0
  0
CLASS
  1
SCALE
  2
AcDbScale
  3
ObjectDBX Classes
 90
     1153
280
     0
281
     0
  0
CLASS
  1
TABLESTYLE
  2
AcDbTableStyle
  3
ObjectDBX Classes
 90
     4095
280
     0
281
     0
  0
CLASS
  1
MLEADERSTYLE
  2
AcDbMLeaderStyle
  3
ACDB_MLEADERSTYLE_CLASS
 90
     4095
280
     0
281
     0
  0
CLASS
  1
SUN
  2
AcDbSun
  3
SCENEOE
 90
     1153
280
     0
281
     0
  0
CLASS
  1
ACDBPLACEHOLDER
  2
AcDbPlaceHolder
  3
ObjectDBX Classes
 90
        0
280
     0
281
     0
  0
CLASS
  1
LAYOUT
  2
AcDbLayout
  3
ObjectDBX Classes
 90
        0
280
     0
281
     0
  0
ENDSEC
  0
SECTION
  2
TABLES
  0
TABLE
  2
VPORT
  5
8
330
0
100
AcDbSymbolTable
 70
     1
  0
VPORT
  5
29
330
8
100
AcDbSymbolTableRecord
100
AcDbViewportTableRecord
  2
*Active
 70
     0
 10
0.0
 20
0.0
 11
1.0
 21
1.0
 12
50.0272339157
 22
0.0
 13
0.0
 23
0.0
 14
10.0
 24
10.0
 15
10.0
 25
10.0
 16
0.0
 26
0.0
 36
1.0
 17
0.0
 27
0.0
 37
0.0
 40
12.0580928775
 41
8.4636565852
 42
50.0
 43
0.0
 44
0.0
 50
0.0
 51
0.0
 71
     0
 72
   100
 73
     1
 74
     3
 75
     0
 76
     0
 77
     0
 78
     0
281
     0
 65
     1
110
0.0
120
0.0
130
0.0
111
1.0
121
0.0
131
0.0
112
0.0
122
1.0
132
0.0
 79
     0
146
0.0
  0
ENDTAB
  0
TABLE
  2
LTYPE
  5
5
330
0
100
AcDbSymbolTable
 70
     6
  0
LTYPE
  5
14
330
5
100
AcDbSymbolTableRecord
100
AcDbLinetypeTableRecord
  2
ByBlock
 70
     0
  3

 72
    65
 73
     0
 40
0.0
  0
LTYPE
  5
15
330
5
100
AcDbSymbolTableRecord
100
AcDbLinetypeTableRecord
  2
ByLayer
 70
     0
  3

 72
    65
 73
     0
 40
0.0
  0
LTYPE
  5
16
330
5
100
AcDbSymbolTableRecord
100
AcDbLinetypeTableRecord
  2
Continuous
 70
     0
  3
Solid line
 72
    65
 73
     0
 40
0.0
  0
LTYPE
  5
5E
330
5
100
AcDbSymbolTableRecord
100
AcDbLinetypeTableRecord
  2
HIDDEN
 70
     0
  3
Hidden __ __ __ __ __ __ __ __ __ __ __ __ __ __
 72
    65
 73
     2
 40
1.905
 49
1.27
 74
     0
 49
-0.635
 74
     0
  0
LTYPE
  5
5F
330
5
100
AcDbSymbolTableRecord
100
AcDbLinetypeTableRecord
  2
PHANTOM
 70
     0
  3
Phantom ______  __  __  ______  __  __  ______
 72
    65
 73
     6
 40
12.7
 49
6.35
 74
     0
 49
-1.27
 74
     0
 49
1.27
 74
     0
 49
-1.27
 74
     0
 49
1.27
 74
     0
 49
-1.27
 74
     0
  0
LTYPE
  5
60
330
5
100
AcDbSymbolTableRecord
100
AcDbLinetypeTableRecord
  2
CENTER
 70
     0
  3
Center ____ _ ____ _ ____ _ ____ _ ____ _ ____
 72
    65
 73
     4
 40
10.16
 49
6.35
 74
     0
 49
-1.27
 74
     0
 49
1.27
 74
     0
 49
-1.27
 74
     0
  0
LTYPE
  5
61
330
5
100
AcDbSymbolTableRecord
100
AcDbLinetypeTableRecord
  2
CENTERX2
 70
     0
  3
Center (2x) ________  __  ________  __  _____
 72
    65
 73
     4
 40
20.32
 49
12.7
 74
     0
 49
-2.54
 74
     0
 49
2.54
 74
     0
 49
-2.54
 74
     0
  0
LTYPE
  5
62
330
5
100
AcDbSymbolTableRecord
100
AcDbLinetypeTableRecord
  2
DOT2
 70
     0
  3
Dot (.5x) ........................................
 72
    65
 73
     2
 40
0.635
 49
0.0
 74
     0
 49
-0.635
 74
     0
  0
ENDTAB
  0
TABLE
  2
LAYER
  5
2
330
0
100
AcDbSymbolTable
 70
     1
  0
LAYER
  5
10
330
2
100
AcDbSymbolTableRecord
100
AcDbLayerTableRecord
  2
0
 70
     0
 62
     7
  6
Continuous
370
    -3
390
F
  0
ENDTAB
  0
TABLE
  2
STYLE
  5
3
330
0
100
AcDbSymbolTable
 70
     1
  0
STYLE
  5
11
330
3
100
AcDbSymbolTableRecord
100
AcDbTextStyleTableRecord
  2
Standard
 70
     0
 40
0.0
 41
1.0
 50
0.0
 71
     0
 42
3.5
  3
txt
  4

  0
ENDTAB
  0
TABLE
  2
VIEW
  5
6
330
0
100
AcDbSymbolTable
 70
     0
  0
ENDTAB
  0
TABLE
  2
UCS
  5
7
330
0
100
AcDbSymbolTable
 70
     0
  0
ENDTAB
  0
TABLE
  2
APPID
  5
9
330
0
100
AcDbSymbolTable
 70
     1
  0
APPID
  5
12
330
9
100
AcDbSymbolTableRecord
100
AcDbRegAppTableRecord
  2
ACAD
 70
     0
  0
ENDTAB
  0
TABLE
  2
DIMSTYLE
  5
A
330
0
100
AcDbSymbolTable
 70
     1
100
AcDbDimStyleTable
  0
DIMSTYLE
105
27
330
A
100
AcDbSymbolTableRecord
100
AcDbDimStyleTableRecord
  2
ISO-25
 70
     0
 41
2.5
 42
0.625
 43
3.75
 44
1.25
 73
     0
 74
     0
 77
     1
 78
     8
140
2.5
141
2.5
143
0.0393700787
147
0.625
171
     3
172
     1
178
     0
271
     2
272
     2
274
     3
278
    44
283
     0
284
     8
340
11
  0
ENDTAB
  0
TABLE
  2
BLOCK_RECORD
  5
1
330
0
100
AcDbSymbolTable
 70
     1
  0
BLOCK_RECORD
  5
1F
330
1
100
AcDbSymbolTableRecord
100
AcDbBlockTableRecord
  2
*Model_Space
340
22
  0
BLOCK_RECORD
  5
1B
330
1
100
AcDbSymbolTableRecord
100
AcDbBlockTableRecord
  2
*Paper_Space
340
1E
  0
BLOCK_RECORD
  5
23
330
1
100
AcDbSymbolTableRecord
100
AcDbBlockTableRecord
  2
*Paper_Space0
340
26
  0
ENDTAB
  0
ENDSEC
  0
SECTION
  2
BLOCKS
  0
BLOCK
  5
20
330
1F
100
AcDbEntity
  8
0
100
AcDbBlockBegin
  2
*Model_Space
 70
     0
 10
0.0
 20
0.0
 30
0.0
  3
*Model_Space
  1

  0
ENDBLK
  5
21
330
1F
100
AcDbEntity
  8
0
100
AcDbBlockEnd
  0
BLOCK
  5
1C
330
1B
100
AcDbEntity
 67
     1
  8
0
100
AcDbBlockBegin
  2
*Paper_Space
 70
     0
 10
0.0
 20
0.0
 30
0.0
  3
*Paper_Space
  1

  0
ENDBLK
  5
1D
330
1B
100
AcDbEntity
 67
     1
  8
0
100
AcDbBlockEnd
  0
BLOCK
  5
24
330
23
100
AcDbEntity
  8
0
100
AcDbBlockBegin
  2
*Paper_Space0
 70
     0
 10
0.0
 20
0.0
 30
0.0
  3
*Paper_Space0
  1

  0
ENDBLK
  5
25
330
23
100
AcDbEntity
  8
0
100
AcDbBlockEnd
  0
ENDSEC
  0
SECTION
  2
ENTITIES
  0
LINE
  5
63
330
1F
100
AcDbEntity
  8
0
  6
Continuous
 62
     7
370
    25
100
AcDbLine
 10
48.7217899131
 20
1.9992800674
 30
0.0
 11
51.7217899131
 21
1.9992800674
 31
0.0
  0
LINE
  5
64
330
1F
100
AcDbEntity
  8
0
  6
Continuous
 62
     7
370
    25
100
AcDbLine
 10
51.7217899131
 20
1.9992800674
 30
0.0
 11
51.7217899131
 21
-2.0007199326
 31
0.0
  0
LINE
  5
65
330
1F
100
AcDbEntity
  8
0
  6
Continuous
 62
     7
370
    25
100
AcDbLine
 10
51.7217899131
 20
-2.0007199326
 30
0.0
 11
48.7217899131
 21
-2.0007199326
 31
0.0
  0
LINE
  5
66
330
1F
100
AcDbEntity
  8
0
  6
Continuous
 62
     7
370
    25
100
AcDbLine
 10
48.7217899131
 20
-2.0007199326
 30
0.0
 11
48.7217899131
 21
1.9992800674
 31
0.0
  0
LINE
  5
67
330
1F
100
AcDbEntity
  8
0
  6
Continuous
 62
     7
370
    25
100
AcDbLine
 10
69.5843821299
 20
1.9989717933
 30
0.0
 11
72.5843821299
 21
1.9989717933
 31
0.0
  0
LINE
  5
68
330
1F
100
AcDbEntity
  8
0
  6
Continuous
 62
     7
370
    25
100
AcDbLine
 10
72.5843821299
 20
1.9989717933
 30
0.0
 11
72.5843821299
 21
-2.0010282067
 31
0.0
  0
LINE
  5
69
330
1F
100
AcDbEntity
  8
0
  6
Continuous
 62
     7
370
    25
100
AcDbLine
 10
72.5843821299
 20
-2.0010282067
 30
0.0
 11
69.5843821299
 21
-2.0010282067
 31
0.0
  0
LINE
  5
6A
330
1F
100
AcDbEntity
  8
0
  6
Continuous
 62
     7
370
    25
100
AcDbLine
 10
69.5843821299
 20
-2.0010282067
 30
0.0
 11
69.5843821299
 21
1.9989717933
 31
0.0
  0
SPLINE
  5
6B
330
1F
100
AcDbEntity
  8
0
  6
Continuous
 62
     7
370
    25
100
AcDbSpline
210
0.0
220
0.0
230
1.0
 70
    11
 71
     3
 72
   138
 73
   134
 74
     0
 42
0.00000001
 43
0.00000001
 40
0.0
 40
0.0
 40
0.0
 40
0.0
 40
0.0021061680707412
 40
0.0043205901155111
 40
0.00677278324255
 40
0.0095566969740557
 40
0.0127340412762951
 40
0.016342887665016
 40
0.0204056041416188
 40
0.0249341021959062
 40
0.0299330711387399
 40
0.0354022405625184
 40
0.0413374297387623
 40
0.0477315899593609
 40
0.0545753893368606
 40
0.0618574049639954
 40
0.0695645708943233
 40
0.0776823107915671
 40
0.0861946839628209
 40
0.0950844406286816
 40
0.1043332440826675
 40
0.1139217001652501
 40
0.1238293388173807
 40
0.1340347075877426
 40
0.1445155308376062
 40
0.1552487162444546
 40
0.1662103559114239
 40
0.1773757827851012
 40
0.1887198210860831
 40
0.2002166471905668
 40
0.2118399506598019
 40
0.223562989450439
 40
0.2353586527269131
 40
0.2471996247425814
 40
0.2590583952397627
 40
0.2709072260003518
 40
0.2827184568406497
 40
0.294464514017973
 40
0.3061176891751031
 40
0.3176507706404048
 40
0.3290366181378914
 40
0.3402485103878132
 40
0.3512599991079841
 40
0.3620452732879947
 40
0.3725788910118388
 40
0.3828361423787241
 40
0.3927927394522929
 40
0.4024253201575171
 40
0.4117111148153431
 40
0.4206282443910386
 40
0.4291556726786626
 40
0.4372731794892729
 40
0.4449615609568891
 40
0.4522025749754582
 40
0.4589790625951323
 40
0.4652748756520636
 40
0.4710749628198788
 40
0.4763655692602005
 40
0.4811339605823388
 40
0.4853687677728626
 40
0.4890597841785489
 40
0.4921981479581782
 40
0.494776266124308
 40
0.4967880100265546
 40
0.4982284254079303
 40
0.4990940729269256
 40
0.4993828620531811
 40
0.5006171379468192
 40
0.5009059270730747
 40
0.5017715745920699
 40
0.5032119899734457
 40
0.5052237338756922
 40
0.5078018520418222
 40
0.5109402158214513
 40
0.5146312322271377
 40
0.5188660394176614
 40
0.5236344307397998
 40
0.5289250371801215
 40
0.5347251243479365
 40
0.5410209374048679
 40
0.5477974250245419
 40
0.5550384390431111
 40
0.5627268205107272
 40
0.5708443273213376
 40
0.5793717556089617
 40
0.5882888851846572
 40
0.5975746798424832
 40
0.6072072605477075
 40
0.6171638576212762
 40
0.6274211089881614
 40
0.6379547267120056
 40
0.6487400008920161
 40
0.659751489612187
 40
0.6709633818621088
 40
0.6823492293595954
 40
0.693882310824897
 40
0.7055354859820271
 40
0.7172815431593506
 40
0.7290927739996484
 40
0.7409416047602375
 40
0.7528003752574187
 40
0.7646413472730871
 40
0.7764370105495613
 40
0.7881600493401983
 40
0.7997833528094334
 40
0.811280178913917
 40
0.8226242172148989
 40
0.8337896440885763
 40
0.8447512837555455
 40
0.855484469162394
 40
0.8659652924122576
 40
0.8761706611826194
 40
0.8860782998347502
 40
0.8956667559173327
 40
0.9049155593713186
 40
0.9138053160371792
 40
0.922317689208433
 40
0.9304354291056768
 40
0.9381425950360048
 40
0.9454246106631397
 40
0.9522684100406392
 40
0.9586625702612378
 40
0.9645977594374817
 40
0.9700669288612601
 40
0.9750658978040939
 40
0.9795943958583813
 40
0.9836571123349841
 40
0.9872659587237052
 40
0.9904433030259444
 40
0.99322721675745
 40
0.9956794098844889
 40
0.9978938319292588
 40
1.0
 40
1.0
 40
1.0
 40
1.0
 10
0.0
 20
0.0000000000000015
 30
0.0
 10
0.0000000000000001
 20
-0.1437694264462765
 30
0.0
 10
0.0412002695225299
 20
-0.4386978186509448
 30
0.0
 10
0.2259886404067528
 20
-0.8661966791891512
 30
0.0
 10
0.5279571756621526
 20
-1.277635278989649
 30
0.0
 10
0.9434402286739798
 20
-1.674799366005361
 30
0.0
 10
1.471093477914768
 20
-2.059083943572598
 30
0.0
 10
2.110148632676704
 20
-2.430856179294302
 30
0.0
 10
2.859670428971154
 20
-2.789693669922495
 30
0.0
 10
3.718329950008253
 20
-3.134783007348569
 30
0.0
 10
4.684423717121757
 20
-3.465097027199031
 30
0.0
 10
5.755889730583114
 20
-3.779529109292315
 30
0.0
 10
6.930369881823671
 20
-4.076894627418725
 30
0.0
 10
8.205198169436411
 20
-4.356114060933011
 30
0.0
 10
9.577473560234596
 20
-4.616040376593102
 30
0.0
 10
11.04402374022566
 20
-4.855727859923017
 30
0.0
 10
12.6014639703054
 20
-5.074192838230704
 30
0.0
 10
14.24617173583057
 20
-5.270697785518717
 30
0.0
 10
15.97432469693567
 20
-5.444540785550193
 30
0.0
 10
17.78189315346101
 20
-5.595238121913628
 30
0.0
 10
19.66466526838106
 20
-5.722441209799886
 30
0.0
 10
21.61825491976801
 20
-5.825936479761249
 30
0.0
 10
23.63810072816444
 20
-5.905747055435937
 30
0.0
 10
25.71948685030747
 20
-5.962022136167479
 30
0.0
 10
27.85755592903347
 20
-5.995069231585845
 30
0.0
 10
30.04731966924286
 20
-6.005399921498567
 30
0.0
 10
32.28366366503494
 20
-5.993631954305441
 30
0.0
 10
34.56136622326049
 20
-5.960534890336675
 30
0.0
 10
36.87510898116983
 20
-5.907005527160844
 30
0.0
 10
39.2194942599516
 20
-5.834061400666234
 30
0.0
 10
41.58904636802206
 20
-5.74276792023951
 30
0.0
 10
43.97823050964869
 20
-5.634299611800452
 30
0.0
 10
46.38146876610439
 20
-5.50988761275444
 30
0.0
 10
48.79315221727981
 20
-5.370785292102406
 30
0.0
 10
51.20764932668497
 20
-5.218284942842549
 30
0.0
 10
53.6193213591363
 20
-5.053683292554565
 30
0.0
 10
56.02253879127886
 20
-4.878272702459825
 30
0.0
 10
58.41168811621517
 20
-4.693368009551735
 30
0.0
 10
60.78119106871707
 20
-4.500206502366993
 30
0.0
 10
63.12550983544917
 20
-4.300049987250554
 30
0.0
 10
65.43917790388977
 20
-4.094111579947027
 30
0.0
 10
67.7167849578684
 20
-3.88357548460079
 30
0.0
 10
69.9530172153946
 20
-3.669623181403384
 30
0.0
 10
72.14264447152516
 20
-3.453343429059553
 30
0.0
 10
74.28056297414314
 20
-3.235859617419776
 30
0.0
 10
76.36177037250849
 20
-3.018229161725971
 30
0.0
 10
78.38141118129502
 20
-2.801522181104113
 30
0.0
 10
80.33476428345466
 20
-2.586792905403097
 30
0.0
 10
82.2172659193703
 20
-2.37500346028598
 30
0.0
 10
84.02452689869861
 20
-2.167230017587872
 30
0.0
 10
85.7523227459031
 20
-1.964438782503727
 30
0.0
 10
87.39661792138922
 20
-1.767626092307689
 30
0.0
 10
88.95356745381665
 20
-1.577761697085486
 30
0.0
 10
90.41954154226703
 20
-1.395840832339159
 30
0.0
 10
91.79111245065918
 20
-1.22278067095086
 30
0.0
 10
93.06507939312004
 20
-1.059549180427346
 30
0.0
 10
94.23846172847414
 20
-0.9069858963211107
 30
0.0
 10
95.30852277298706
 20
-0.7660200847554781
 30
0.0
 10
96.2727732191494
 20
-0.6374351971025736
 30
0.0
 10
97.12892315934721
 20
-0.5219574571974946
 30
0.0
 10
97.87509509994013
 20
-0.4205222849318533
 30
0.0
 10
98.5091803467061
 20
-0.3330227597758118
 30
0.0
 10
99.03074254738577
 20
-0.2621653719592331
 30
0.0
 10
99.43577319385258
 20
-0.2026180460301496
 30
0.0
 10
99.73010344522355
 20
-0.1688337363468833
 30
0.0
 10
99.89918880904894
 20
-0.1322743450440251
 30
0.0
 10
100.0726237750979
 20
-0.1355783481662227
 30
0.0
 10
100.0726237750979
 20
0.1355783481662371
 30
0.0
 10
99.89918880904897
 20
0.1322743450440185
 30
0.0
 10
99.73010344522355
 20
0.1688337363468905
 30
0.0
 10
99.43577319385261
 20
0.2026180460301448
 30
0.0
 10
99.03074254738576
 20
0.2621653719592368
 30
0.0
 10
98.50918034670612
 20
0.3330227597758086
 30
0.0
 10
97.87509509994013
 20
0.4205222849318573
 30
0.0
 10
97.12892315934728
 20
0.5219574571974901
 30
0.0
 10
96.27277321914937
 20
0.6374351971025772
 30
0.0
 10
95.30852277298706
 20
0.7660200847554763
 30
0.0
 10
94.23846172847414
 20
0.9069858963211088
 30
0.0
 10
93.06507939312004
 20
1.05954918042735
 30
0.0
 10
91.79111245065923
 20
1.222780670950858
 30
0.0
 10
90.419541542267
 20
1.39584083233916
 30
0.0
 10
88.95356745381667
 20
1.577761697085486
 30
0.0
 10
87.3966179213892
 20
1.76762609230769
 30
0.0
 10
85.75232274590313
 20
1.964438782503727
 30
0.0
 10
84.02452689869862
 20
2.16723001758787
 30
0.0
 10
82.21726591937033
 20
2.375003460285983
 30
0.0
 10
80.3347642834546
 20
2.586792905403096
 30
0.0
 10
78.38141118129508
 20
2.801522181104112
 30
0.0
 10
76.3617703725085
 20
3.018229161725972
 30
0.0
 10
74.28056297414311
 20
3.235859617419777
 30
0.0
 10
72.14264447152519
 20
3.453343429059552
 30
0.0
 10
69.95301721539458
 20
3.669623181403383
 30
0.0
 10
67.71678495786841
 20
3.883575484600792
 30
0.0
 10
65.43917790388976
 20
4.094111579947026
 30
0.0
 10
63.12550983544917
 20
4.300049987250554
 30
0.0
 10
60.78119106871707
 20
4.500206502366995
 30
0.0
 10
58.41168811621516
 20
4.693368009551733
 30
0.0
 10
56.02253879127886
 20
4.878272702459824
 30
0.0
 10
53.6193213591363
 20
5.053683292554566
 30
0.0
 10
51.207649326685
 20
5.21828494284255
 30
0.0
 10
48.79315221727975
 20
5.370785292102402
 30
0.0
 10
46.38146876610442
 20
5.509887612754443
 30
0.0
 10
43.97823050964868
 20
5.634299611800452
 30
0.0
 10
41.5890463680221
 20
5.742767920239511
 30
0.0
 10
39.21949425995158
 20
5.834061400666231
 30
0.0
 10
36.87510898116985
 20
5.907005527160845
 30
0.0
 10
34.56136622326049
 20
5.960534890336678
 30
0.0
 10
32.28366366503496
 20
5.993631954305441
 30
0.0
 10
30.04731966924286
 20
6.005399921498569
 30
0.0
 10
27.85755592903347
 20
5.995069231585845
 30
0.0
 10
25.71948685030749
 20
5.962022136167479
 30
0.0
 10
23.6381007281644
 20
5.905747055435936
 30
0.0
 10
21.61825491976803
 20
5.82593647976125
 30
0.0
 10
19.66466526838107
 20
5.722441209799889
 30
0.0
 10
17.78189315346101
 20
5.595238121913625
 30
0.0
 10
15.97432469693568
 20
5.444540785550195
 30
0.0
 10
14.24617173583058
 20
5.270697785518717
 30
0.0
 10
12.60146397030539
 20
5.074192838230704
 30
0.0
 10
11.04402374022568
 20
4.85572785992302
 30
0.0
 10
9.577473560234605
 20
4.616040376593102
 30
0.0
 10
8.205198169436398
 20
4.356114060933009
 30
0.0
 10
6.930369881823668
 20
4.076894627418725
 30
0.0
 10
5.755889730583132
 20
3.77952910929232
 30
0.0
 10
4.684423717121737
 20
3.465097027199024
 30
0.0
 10
3.718329950008261
 20
3.134783007348572
 30
0.0
 10
2.859670428971151
 20
2.789693669922494
 30
0.0
 10
2.1101486326767
 20
2.430856179294301
 30
0.0
 10
1.471093477914774
 20
2.0590839435726
 30
0.0
 10
0.9434402286739939
 20
1.674799366005373
 30
0.0
 10
0.5279571756621422
 20
1.277635278989637
 30
0.0
 10
0.2259886404067529
 20
0.8661966791891506
 30
0.0
 10
0.0412002695225293
 20
0.4386978186509423
 30
0.0
 10
-0.0000000000000002
 20
0.1437694264462795
 30
0.0
 10
0.0
 20
0.0000000000000015
 30
0.0
  0
ARC
  5
6C
330
1F
100
AcDbEntity
  8
0
  6
Continuous
 62
     7
370
    25
100
AcDbCircle
 10
38.25
 20
0.0
 30
0.0
 40
4.000000000000001
100
AcDbArc
 50
270.0
 51
90.0
  0
LINE
  5
6D
330
1F
100
AcDbEntity
  8
0
  6
Continuous
 62
     7
370
    25
100
AcDbLine
 10
25.75
 20
-4.0
 30
0.0
 11
38.25
 21
-4.0
 31
0.0
  0
ARC
  5
6E
330
1F
100
AcDbEntity
  8
0
  6
Continuous
 62
     7
370
    25
100
AcDbCircle
 10
25.75
 20
0.0
 30
0.0
 40
4.0
100
AcDbArc
 50
90.0
 51
270.0
  0
LINE
  5
6F
330
1F
100
AcDbEntity
  8
0
  6
Continuous
 62
     7
370
    25
100
AcDbLine
 10
38.25
 20
4.0
 30
0.0
 11
25.75
 21
4.0
 31
0.0
  0
CIRCLE
  5
70
330
1F
100
AcDbEntity
  8
0
  6
Continuous
 62
     7
370
    25
100
AcDbCircle
 10
9.0
 20
0.0
 30
0.0
 40
3.0
  0
CIRCLE
  5
71
330
1F
100
AcDbEntity
  8
0
  6
Continuous
 62
     7
370
    25
100
AcDbCircle
 10
58.0
 20
0.0
 30
0.0
 40
3.000000000000007
  0
ENDSEC
  0
SECTION
  2
OBJECTS
  0
DICTIONARY
  5
C
330
0
100
AcDbDictionary
281
     1
  3
ACAD_GROUP
350
D
  3
ACAD_LAYOUT
350
1A
  3
ACAD_MLINESTYLE
350
17
  3
ACAD_PLOTSETTINGS
350
19
  3
ACAD_PLOTSTYLENAME
350
E
  3
ACAD_SCALELIST
350
47
  3
DWGPROPS
350
72
  0
DICTIONARY
  5
D
102
{ACAD_REACTORS
330
C
102
}
330
C
100
AcDbDictionary
281
     1
  0
DICTIONARY
  5
1A
102
{ACAD_REACTORS
330
C
102
}
330
C
100
AcDbDictionary
281
     1
  3
Layout1
350
1E
  3
Layout2
350
26
  3
Model
350
22
  0
DICTIONARY
  5
17
102
{ACAD_REACTORS
330
C
102
}
330
C
100
AcDbDictionary
281
     1
  3
Standard
350
18
  0
DICTIONARY
  5
19
102
{ACAD_REACTORS
330
C
102
}
330
C
100
AcDbDictionary
281
     1
  0
ACDBDICTIONARYWDFLT
  5
E
102
{ACAD_REACTORS
330
C
102
}
330
C
100
AcDbDictionary
281
     1
  3
Normal
350
F
100
AcDbDictionaryWithDefault
340
F
  0
DICTIONARY
  5
47
102
{ACAD_REACTORS
330
C
102
}
330
C
100
AcDbDictionary
281
     1
  3
A0
350
48
  3
A1
350
49
  3
A2
350
4A
  3
A3
350
4B
  3
A4
350
4C
  3
A5
350
4D
  3
A6
350
4E
  3
A7
350
4F
  3
A8
350
50
  3
A9
350
51
  3
B0
350
52
  3
B1
350
53
  3
B2
350
54
  3
B3
350
55
  3
B4
350
56
  3
B5
350
57
  3
B6
350
58
  0
XRECORD
  5
72
102
{ACAD_REACTORS
330
C
102
}
330
C
100
AcDbXrecord
280
     1
  1
DWGPROPS COOKIE
  2

  3

  4

  6

  7

  8
mahmo
  9

300
=
301
=
302
=
303
=
304
=
305
=
306
=
307
=
308
=
309
=
 40
0.0
 41
2461297.312923392
 42
2461297.313019422
  1

 90
        0
  0
LAYOUT
  5
1E
102
{ACAD_REACTORS
330
1A
102
}
330
1A
100
AcDbPlotSettings
  1

  2
none_device
  4

  6

 40
0.0
 41
0.0
 42
0.0
 43
0.0
 44
0.0
 45
0.0
 46
0.0
 47
0.0
 48
0.0
 49
0.0
140
0.0
141
0.0
142
1.0
143
1.0
 70
   688
 72
     1
 73
     0
 74
     5
  7

 75
    16
147
1.0
148
0.0
149
0.0
100
AcDbLayout
  1
Layout1
 70
     1
 71
     1
 10
0.0
 20
0.0
 11
420.0
 21
297.0
 12
0.0
 22
0.0
 32
0.0
 14
1.0000000000E+20
 24
1.0000000000E+20
 34
1.0000000000E+20
 15
-1.0000000000E+20
 25
-1.0000000000E+20
 35
-1.0000000000E+20
146
0.0
 13
0.0
 23
0.0
 33
0.0
 16
1.0
 26
0.0
 36
0.0
 17
0.0
 27
1.0
 37
0.0
 76
     0
330
1B
  0
LAYOUT
  5
26
102
{ACAD_REACTORS
330
1A
102
}
330
1A
100
AcDbPlotSettings
  1

  2
none_device
  4

  6

 40
0.0
 41
0.0
 42
0.0
 43
0.0
 44
0.0
 45
0.0
 46
0.0
 47
0.0
 48
0.0
 49
0.0
140
0.0
141
0.0
142
1.0
143
1.0
 70
   688
 72
     1
 73
     0
 74
     5
  7

 75
    16
147
1.0
148
0.0
149
0.0
100
AcDbLayout
  1
Layout2
 70
     1
 71
     2
 10
0.0
 20
0.0
 11
0.0
 21
0.0
 12
0.0
 22
0.0
 32
0.0
 14
0.0
 24
0.0
 34
0.0
 15
0.0
 25
0.0
 35
0.0
146
0.0
 13
0.0
 23
0.0
 33
0.0
 16
1.0
 26
0.0
 36
0.0
 17
0.0
 27
1.0
 37
0.0
 76
     0
330
23
  0
LAYOUT
  5
22
102
{ACAD_REACTORS
330
1A
102
}
330
1A
100
AcDbPlotSettings
  1

  2
none_device
  4
ANSI_A_(11.00_x_8.50_Inches)
  6

 40
6.35
 41
19.05
 42
6.35000508
 43
19.05000254
 44
279.4
 45
215.9
 46
-4.95300254
 47
88.89999873
 48
0.0
 49
0.0
140
0.0
141
0.0
142
0.1088407168
143
1.0
 70
  1696
 72
     0
 73
     0
 74
     0
  7

 75
     0
147
0.0179189148
148
-1300.4909072572
149
0.0
100
AcDbLayout
  1
Model
 70
     1
 71
     0
 10
0.0
 20
0.0
 11
420.0
 21
297.0
 12
0.0
 22
0.0
 32
0.0
 14
0.0
 24
-5.9108298419
 34
0.0
 15
100.0544678313
 25
5.9108298419
 35
0.0
146
0.0
 13
0.0
 23
0.0
 33
0.0
 16
1.0
 26
0.0
 36
0.0
 17
0.0
 27
1.0
 37
0.0
 76
     0
330
1F
331
29
  0
MLINESTYLE
  5
18
102
{ACAD_REACTORS
330
17
102
}
330
17
100
AcDbMlineStyle
  2
Standard
 70
     0
  3

 62
   256
 51
90.0
 52
90.0
 71
     2
 49
0.5
 62
   256
  6
BYLAYER
 49
-0.5
 62
   256
  6
BYLAYER
  0
ACDBPLACEHOLDER
  5
F
102
{ACAD_REACTORS
330
E
102
}
330
E
  0
SCALE
  5
48
102
{ACAD_REACTORS
330
47
102
}
330
47
100
AcDbScale
 70
     0
300
1:1
140
1.0
141
1.0
290
     1
  0
SCALE
  5
49
102
{ACAD_REACTORS
330
47
102
}
330
47
100
AcDbScale
 70
     0
300
1:2
140
1.0
141
2.0
290
     0
  0
SCALE
  5
4A
102
{ACAD_REACTORS
330
47
102
}
330
47
100
AcDbScale
 70
     0
300
1:4
140
1.0
141
4.0
290
     0
  0
SCALE
  5
4B
102
{ACAD_REACTORS
330
47
102
}
330
47
100
AcDbScale
 70
     0
300
1:5
140
1.0
141
5.0
290
     0
  0
SCALE
  5
4C
102
{ACAD_REACTORS
330
47
102
}
330
47
100
AcDbScale
 70
     0
300
1:8
140
1.0
141
8.0
290
     0
  0
SCALE
  5
4D
102
{ACAD_REACTORS
330
47
102
}
330
47
100
AcDbScale
 70
     0
300
1:10
140
1.0
141
10.0
290
     0
  0
SCALE
  5
4E
102
{ACAD_REACTORS
330
47
102
}
330
47
100
AcDbScale
 70
     0
300
1:16
140
1.0
141
16.0
290
     0
  0
SCALE
  5
4F
102
{ACAD_REACTORS
330
47
102
}
330
47
100
AcDbScale
 70
     0
300
1:20
140
1.0
141
20.0
290
     0
  0
SCALE
  5
50
102
{ACAD_REACTORS
330
47
102
}
330
47
100
AcDbScale
 70
     0
300
1:30
140
1.0
141
30.0
290
     0
  0
SCALE
  5
51
102
{ACAD_REACTORS
330
47
102
}
330
47
100
AcDbScale
 70
     0
300
1:40
140
1.0
141
40.0
290
     0
  0
SCALE
  5
52
102
{ACAD_REACTORS
330
47
102
}
330
47
100
AcDbScale
 70
     0
300
1:50
140
1.0
141
50.0
290
     0
  0
SCALE
  5
53
102
{ACAD_REACTORS
330
47
102
}
330
47
100
AcDbScale
 70
     0
300
1:100
140
1.0
141
100.0
290
     0
  0
SCALE
  5
54
102
{ACAD_REACTORS
330
47
102
}
330
47
100
AcDbScale
 70
     0
300
2:1
140
2.0
141
1.0
290
     0
  0
SCALE
  5
55
102
{ACAD_REACTORS
330
47
102
}
330
47
100
AcDbScale
 70
     0
300
4:1
140
4.0
141
1.0
290
     0
  0
SCALE
  5
56
102
{ACAD_REACTORS
330
47
102
}
330
47
100
AcDbScale
 70
     0
300
8:1
140
8.0
141
1.0
290
     0
  0
SCALE
  5
57
102
{ACAD_REACTORS
330
47
102
}
330
47
100
AcDbScale
 70
     0
300
10:1
140
10.0
141
1.0
290
     0
  0
SCALE
  5
58
102
{ACAD_REACTORS
330
47
102
}
330
47
100
AcDbScale
 70
     0
300
100:1
140
100.0
141
1.0
290
     0
  0
ENDSEC
  0
EOF
