  0
SECTION
  2
HEADER
  9
$ACADVER
  1
AC1015
  9
$ACADMAINTVER
 70
     6
  9
$DWGCODEPAGE
  3
ANSI_1252
  9
$INSBASE
 10
0.0
 20
0.0
 30
0.0
  9
$EXTMIN
 10
10.0054467831
 20
-5.3197468577
 30
0.0
  9
$EXTMAX
 10
100.0544678313
 20
5.3197468577
 30
0.0
  9
$LIMMIN
 10
0.0
 20
0.0
  9
$LIMMAX
 10
420.0
 20
297.0
  9
$ORTHOMODE
 70
     0
  9
$REGENMODE
 70
     1
  9
$FILLMODE
 70
     1
  9
$QTEXTMODE
 70
     0
  9
$MIRRTEXT
 70
     1
  9
$LTSCALE
 40
1.0
  9
$ATTMODE
 70
     1
  9
$TEXTSIZE
 40
3.5
  9
$TRACEWID
 40
1.0
  9
$TEXTSTYLE
  7
Standard
  9
$CLAYER
  8
0
  9
$CELTYPE
  6
ByLayer
  9
$CECOLOR
 62
   256
  9
$CELTSCALE
 40
1.0
  9
$DISPSILH
 70
     0
  9
$DIMSCALE
 40
1.0
  9
$DIMASZ
 40
3.302
  9
$DIMEXO
 40
0.0
  9
$DIMDLI
 40
3.75
  9
$DIMRND
 40
0.0
  9
$DIMDLE
 40
0.0
  9
$DIMEXE
 40
1.0
  9
$DIMTP
 40
0.0
  9
$DIMTM
 40
0.0
  9
$DIMTXT
 40
3.5
  9
$DIMCEN
 40
2.5
  9
$DIMTSZ
 40
0.0
  9
$DIMTOL
 70
     0
  9
$DIMLIM
 70
     0
  9
$DIMTIH
 70
     1
  9
$DIMTOH
 70
     1
  9
$DIMSE1
 70
     0
  9
$DIMSE2
 70
     0
  9
$DIMTAD
 70
     1
  9
$DIMZIN
 70
     1
  9
$DIMBLK
  1

  9
$DIMASO
 70
     1
  9
$DIMSHO
 70
     1
  9
$DIMPOST
  1

  9
$DIMAPOST
  1

  9
$DIMALT
 70
     0
  9
$DIMALTD
 70
     3
  9
$DIMALTF
 40
0.0393700787
  9
$DIMLFAC
 40
1.0
  9
$DIMTOFL
 70
     1
  9
$DIMTVP
 40
0.0
  9
$DIMTIX
 70
     0
  9
$DIMSOXD
 70
     0
  9
$DIMSAH
 70
     0
  9
$DIMBLK1
  1

  9
$DIMBLK2
  1

  9
$DIMSTYLE
  2
ISO-25
  9
$DIMCLRD
 70
     0
  9
$DIMCLRE
 70
     0
  9
$DIMCLRT
 70
     0
  9
$DIMTFAC
 40
1.0
  9
$DIMGAP
 40
1.524
  9
$DIMJUST
 70
     0
  9
$DIMSD1
 70
     0
  9
$DIMSD2
 70
     0
  9
$DIMTOLJ
 70
     0
  9
$DIMTZIN
 70
     1
  9
$DIMALTZ
 70
     0
  9
$DIMALTTZ
 70
     0
  9
$DIMUPT
 70
     0
  9
$DIMDEC
 70
     2
  9
$DIMTDEC
 70
     2
  9
$DIMALTU
 70
     2
  9
$DIMALTTD
 70
     3
  9
$DIMTXSTY
  7
Standard
  9
$DIMAUNIT
 70
     0
  9
$DIMADEC
 70
     2
  9
$DIMALTRND
 40
0.0
  9
$DIMAZIN
 70
     0
  9
$DIMDSEP
 70
    44
  9
$DIMATFIT
 70
     3
  9
$DIMFRAC
 70
     0
  9
$DIMLDRBLK
  1

  9
$DIMLUNIT
 70
     2
  9
$DIMLWD
 70
    -2
  9
$DIMLWE
 70
    -2
  9
$DIMTMOVE
 70
     0
  9
$LUNITS
 70
     2
  9
$LUPREC
 70
     2
  9
$SKETCHINC
 40
1.0
  9
$FILLETRAD
 40
0.0
  9
$AUNITS
 70
     0
  9
$AUPREC
 70
     2
  9
$MENU
  1
.
  9
$ELEVATION
 40
0.0
  9
$PELEVATION
 40
0.0
  9
$THICKNESS
 40
0.0
  9
$LIMCHECK
 70
     0
  9
$CHAMFERA
 40
0.0
  9
$CHAMFERB
 40
0.0
  9
$CHAMFERC
 40
0.0
  9
$CHAMFERD
 40
0.0
  9
$SKPOLY
 70
     0
  9
$TDCREATE
 40
2461297.437923414
  9
$TDUCREATE
 40
2461297.312923414
  9
$TDUPDATE
 40
2461297.438019665
  9
$TDUUPDATE
 40
2461297.313019665
  9
$TDINDWG
 40
0.0000000116
  9
$TDUSRTIMER
 40
0.0000000116
  9
$USRTIMER
 70
     1
  9
$ANGBASE
 50
0.0
  9
$ANGDIR
 70
     0
  9
$PDMODE
 70
     0
  9
$PDSIZE
 40
-1.0
  9
$PLINEWID
 40
0.0
  9
$SPLFRAME
 70
     0
  9
$SPLINETYPE
 70
     6
  9
$SPLINESEGS
 70
     8
  9
$HANDSEED
  5
75
  9
$SURFTAB1
 70
     6
  9
$SURFTAB2
 70
     6
  9
$SURFTYPE
 70
     6
  9
$SURFU
 70
     6
  9
$SURFV
 70
     6
  9
$UCSBASE
  2

  9
$UCSNAME
  2

  9
$UCSORG
 10
0.0
 20
0.0
 30
0.0
  9
$UCSXDIR
 10
1.0
 20
0.0
 30
0.0
  9
$UCSYDIR
 10
0.0
 20
1.0
 30
0.0
  9
$UCSORTHOREF
  2

  9
$UCSORTHOVIEW
 70
     0
  9
$UCSORGTOP
 10
0.0
 20
0.0
 30
0.0
  9
$UCSORGBOTTOM
 10
0.0
 20
0.0
 30
0.0
  9
$UCSORGLEFT
 10
0.0
 20
0.0
 30
0.0
  9
$UCSORGRIGHT
 10
0.0
 20
0.0
 30
0.0
  9
$UCSORGFRONT
 10
0.0
 20
0.0
 30
0.0
  9
$UCSORGBACK
 10
0.0
 20
0.0
 30
0.0
  9
$PUCSBASE
  2

  9
$PUCSNAME
  2

  9
$PUCSORG
 10
0.0
 20
0.0
 30
0.0
  9
$PUCSXDIR
 10
1.0
 20
0.0
 30
0.0
  9
$PUCSYDIR
 10
0.0
 20
1.0
 30
0.0
  9
$PUCSORTHOREF
  2

  9
$PUCSORTHOVIEW
 70
     0
  9
$PUCSORGTOP
 10
0.0
 20
0.0
 30
0.0
  9
$PUCSORGBOTTOM
 10
0.0
 20
0.0
 30
0.0
  9
$PUCSORGLEFT
 10
0.0
 20
0.0
 30
0.0
  9
$PUCSORGRIGHT
 10
0.0
 20
0.0
 30
0.0
  9
$PUCSORGFRONT
 10
0.0
 20
0.0
 30
0.0
  9
$PUCSORGBACK
 10
0.0
 20
0.0
 30
0.0
  9
$USERI1
 70
     0
  9
$USERI2
 70
     0
  9
$USERI3
 70
     0
  9
$USERI4
 70
     0
  9
$USERI5
 70
     0
  9
$USERR1
 40
0.0
  9
$USERR2
 40
0.0
  9
$USERR3
 40
0.0
  9
$USERR4
 40
0.0
  9
$USERR5
 40
0.0
  9
$WORLDVIEW
 70
     1
  9
$SHADEDGE
 70
     3
  9
$SHADEDIF
 70
    70
  9
$TILEMODE
 70
     1
  9
$MAXACTVP
 70
    64
  9
$PINSBASE
 10
0.0
 20
0.0
 30
0.0
  9
$PLIMCHECK
 70
     0
  9
$PEXTMIN
 10
1.0000000000E+20
 20
1.0000000000E+20
 30
1.0000000000E+20
  9
$PEXTMAX
 10
-1.0000000000E+20
 20
-1.0000000000E+20
 30
-1.0000000000E+20
  9
$PLIMMIN
 10
0.0
 20
0.0
  9
$PLIMMAX
 10
420.0
 20
297.0
  9
$UNITMODE
 70
     0
  9
$VISRETAIN
 70
     1
  9
$PLINEGEN
 70
     0
  9
$PSLTSCALE
 70
     1
  9
$TREEDEPTH
 70
  3020
  9
$CMLSTYLE
  2
Standard
  9
$CMLJUST
 70
     0
  9
$CMLSCALE
 40
20.0
  9
$PROXYGRAPHICS
 70
     1
  9
$MEASUREMENT
 70
     1
  9
$CELWEIGHT
370
    -1
  9
$ENDCAPS
280
     0
  9
$JOINSTYLE
280
     0
  9
$LWDISPLAY
290
     1
  9
$INSUNITS
 70
     4
  9
$HYPERLINKBASE
  1

  9
$STYLESHEET
  1

  9
$XEDIT
290
     1
  9
$CEPSNTYPE
380
     0
  9
$PSTYLEMODE
290
     1
  9
$FINGERPRINTGUID
  2
{7a5fee3f-5608-4a76-b991-15eb709a2b69}
  9
$VERSIONGUID
  2
{FAEB1C32-E019-11D5-929B-00C0DF256EC4}
  9
$EXTNAMES
290
     1
  9
$PSVPSCALE
 40
0.0
  9
$OLESTARTUP
290
     0
  0
ENDSEC
  0
SECTION
  2
CLASSES
  0
CLASS
  1
ACDBDICTIONARYWDFLT
  2
AcDbDictionaryWithDefault
  3
ObjectDBX Classes
 90
        0
280
     0
281
     0
  0
CLASS
  1
VISUALSTYLE
  2
AcDbVisualStyle
  3
ObjectDBX Classes
 90
     4095
280
     0
281
     0
  0
CLASS
  1
MATERIAL
  2
AcDbMaterial
  3
ObjectDBX Classes
 90
     1153
280
     0
281
     0
  0
CLASS
  1
SCALE
  2
AcDbScale
  3
ObjectDBX Classes
 90
     1153
280
     0
281
     0
  0
CLASS
  1
TABLESTYLE
  2
AcDbTableStyle
  3
ObjectDBX Classes
 90
     4095
280
     0
281
     0
  0
CLASS
  1
MLEADERSTYLE
  2
AcDbMLeaderStyle
  3
ACDB_MLEADERSTYLE_CLASS
 90
     4095
280
     0
281
     0
  0
CLASS
  1
SUN
  2
AcDbSun
  3
SCENEOE
 90
     1153
280
     0
281
     0
  0
CLASS
  1
ACDBPLACEHOLDER
  2
AcDbPlaceHolder
  3
ObjectDBX Classes
 90
        0
280
     0
281
     0
  0
CLASS
  1
LAYOUT
  2
AcDbLayout
  3
ObjectDBX Classes
 90
        0
280
     0
281
     0
  0
ENDSEC
  0
SECTION
  2
TABLES
  0
TABLE
  2
VPORT
  5
8
330
0
100
AcDbSymbolTable
 70
     1
  0
VPORT
  5
29
330
8
100
AcDbSymbolTableRecord
100
AcDbViewportTableRecord
  2
*Active
 70
     0
 10
0.0
 20
0.0
 11
1.0
 21
1.0
 12
55.0299573072
 22
0.0
 13
0.0
 23
0.0
 14
10.0
 24
10.0
 15
10.0
 25
10.0
 16
0.0
 26
0.0
 36
1.0
 17
0.0
 27
0.0
 37
0.0
 40
10.8522835898
 41
8.4636565852
 42
50.0
 43
0.0
 44
0.0
 50
0.0
 51
0.0
 71
     0
 72
   100
 73
     1
 74
     3
 75
     0
 76
     0
 77
     0
 78
     0
281
     0
 65
     1
110
0.0
120
0.0
130
0.0
111
1.0
121
0.0
131
0.0
112
0.0
122
1.0
132
0.0
 79
     0
146
0.0
  0
ENDTAB
  0
TABLE
  2
LTYPE
  5
5
330
0
100
AcDbSymbolTable
 70
     6
  0
LTYPE
  5
14
330
5
100
AcDbSymbolTableRecord
100
AcDbLinetypeTableRecord
  2
ByBlock
 70
     0
  3

 72
    65
 73
     0
 40
0.0
  0
LTYPE
  5
15
330
5
100
AcDbSymbolTableRecord
100
AcDbLinetypeTableRecord
  2
ByLayer
 70
     0
  3

 72
    65
 73
     0
 40
0.0
  0
LTYPE
  5
16
330
5
100
AcDbSymbolTableRecord
100
AcDbLinetypeTableRecord
  2
Continuous
 70
     0
  3
Solid line
 72
    65
 73
     0
 40
0.0
  0
LTYPE
  5
5E
330
5
100
AcDbSymbolTableRecord
100
AcDbLinetypeTableRecord
  2
HIDDEN
 70
     0
  3
Hidden __ __ __ __ __ __ __ __ __ __ __ __ __ __
 72
    65
 73
     2
 40
1.905
 49
1.27
 74
     0
 49
-0.635
 74
     0
  0
LTYPE
  5
5F
330
5
100
AcDbSymbolTableRecord
100
AcDbLinetypeTableRecord
  2
PHANTOM
 70
     0
  3
Phantom ______  __  __  ______  __  __  ______
 72
    65
 73
     6
 40
12.7
 49
6.35
 74
     0
 49
-1.27
 74
     0
 49
1.27
 74
     0
 49
-1.27
 74
     0
 49
1.27
 74
     0
 49
-1.27
 74
     0
  0
LTYPE
  5
60
330
5
100
AcDbSymbolTableRecord
100
AcDbLinetypeTableRecord
  2
CENTER
 70
     0
  3
Center ____ _ ____ _ ____ _ ____ _ ____ _ ____
 72
    65
 73
     4
 40
10.16
 49
6.35
 74
     0
 49
-1.27
 74
     0
 49
1.27
 74
     0
 49
-1.27
 74
     0
  0
LTYPE
  5
61
330
5
100
AcDbSymbolTableRecord
100
AcDbLinetypeTableRecord
  2
CENTERX2
 70
     0
  3
Center (2x) ________  __  ________  __  _____
 72
    65
 73
     4
 40
20.32
 49
12.7
 74
     0
 49
-2.54
 74
     0
 49
2.54
 74
     0
 49
-2.54
 74
     0
  0
LTYPE
  5
62
330
5
100
AcDbSymbolTableRecord
100
AcDbLinetypeTableRecord
  2
DOT2
 70
     0
  3
Dot (.5x) ........................................
 72
    65
 73
     2
 40
0.635
 49
0.0
 74
     0
 49
-0.635
 74
     0
  0
ENDTAB
  0
TABLE
  2
LAYER
  5
2
330
0
100
AcDbSymbolTable
 70
     1
  0
LAYER
  5
10
330
2
100
AcDbSymbolTableRecord
100
AcDbLayerTableRecord
  2
0
 70
     0
 62
     7
  6
Continuous
370
    -3
390
F
  0
ENDTAB
  0
TABLE
  2
STYLE
  5
3
330
0
100
AcDbSymbolTable
 70
     1
  0
STYLE
  5
11
330
3
100
AcDbSymbolTableRecord
100
AcDbTextStyleTableRecord
  2
Standard
 70
     0
 40
0.0
 41
1.0
 50
0.0
 71
     0
 42
3.5
  3
txt
  4

  0
ENDTAB
  0
TABLE
  2
VIEW
  5
6
330
0
100
AcDbSymbolTable
 70
     0
  0
ENDTAB
  0
TABLE
  2
UCS
  5
7
330
0
100
AcDbSymbolTable
 70
     0
  0
ENDTAB
  0
TABLE
  2
APPID
  5
9
330
0
100
AcDbSymbolTable
 70
     1
  0
APPID
  5
12
330
9
100
AcDbSymbolTableRecord
100
AcDbRegAppTableRecord
  2
ACAD
 70
     0
  0
ENDTAB
  0
TABLE
  2
DIMSTYLE
  5
A
330
0
100
AcDbSymbolTable
 70
     1
100
AcDbDimStyleTable
  0
DIMSTYLE
105
27
330
A
100
AcDbSymbolTableRecord
100
AcDbDimStyleTableRecord
  2
ISO-25
 70
     0
 41
2.5
 42
0.625
 43
3.75
 44
1.25
 73
     0
 74
     0
 77
     1
 78
     8
140
2.5
141
2.5
143
0.0393700787
147
0.625
171
     3
172
     1
178
     0
271
     2
272
     2
274
     3
278
    44
283
     0
284
     8
340
11
  0
ENDTAB
  0
TABLE
  2
BLOCK_RECORD
  5
1
330
0
100
AcDbSymbolTable
 70
     1
  0
BLOCK_RECORD
  5
1F
330
1
100
AcDbSymbolTableRecord
100
AcDbBlockTableRecord
  2
*Model_Space
340
22
  0
BLOCK_RECORD
  5
1B
330
1
100
AcDbSymbolTableRecord
100
AcDbBlockTableRecord
  2
*Paper_Space
340
1E
  0
BLOCK_RECORD
  5
23
330
1
100
AcDbSymbolTableRecord
100
AcDbBlockTableRecord
  2
*Paper_Space0
340
26
  0
ENDTAB
  0
ENDSEC
  0
SECTION
  2
BLOCKS
  0
BLOCK
  5
20
330
1F
100
AcDbEntity
  8
0
100
AcDbBlockBegin
  2
*Model_Space
 70
     0
 10
0.0
 20
0.0
 30
0.0
  3
*Model_Space
  1

  0
ENDBLK
  5
21
330
1F
100
AcDbEntity
  8
0
100
AcDbBlockEnd
  0
BLOCK
  5
1C
330
1B
100
AcDbEntity
 67
     1
  8
0
100
AcDbBlockBegin
  2
*Paper_Space
 70
     0
 10
0.0
 20
0.0
 30
0.0
  3
*Paper_Space
  1

  0
ENDBLK
  5
1D
330
1B
100
AcDbEntity
 67
     1
  8
0
100
AcDbBlockEnd
  0
BLOCK
  5
24
330
23
100
AcDbEntity
  8
0
100
AcDbBlockBegin
  2
*Paper_Space0
 70
     0
 10
0.0
 20
0.0
 30
0.0
  3
*Paper_Space0
  1

  0
ENDBLK
  5
25
330
23
100
AcDbEntity
  8
0
100
AcDbBlockEnd
  0
ENDSEC
  0
SECTION
  2
ENTITIES
  0
LINE
  5
63
330
1F
100
AcDbEntity
  8
0
  6
Continuous
 62
     7
370
    25
100
AcDbLine
 10
48.7217899131
 20
1.9992800674
 30
0.0
 11
51.7217899131
 21
1.9992800674
 31
0.0
  0
LINE
  5
64
330
1F
100
AcDbEntity
  8
0
  6
Continuous
 62
     7
370
    25
100
AcDbLine
 10
51.7217899131
 20
1.9992800674
 30
0.0
 11
51.7217899131
 21
-2.0007199326
 31
0.0
  0
LINE
  5
65
330
1F
100
AcDbEntity
  8
0
  6
Continuous
 62
     7
370
    25
100
AcDbLine
 10
51.7217899131
 20
-2.0007199326
 30
0.0
 11
48.7217899131
 21
-2.0007199326
 31
0.0
  0
LINE
  5
66
330
1F
100
AcDbEntity
  8
0
  6
Continuous
 62
     7
370
    25
100
AcDbLine
 10
48.7217899131
 20
-2.0007199326
 30
0.0
 11
48.7217899131
 21
1.9992800674
 31
0.0
  0
LINE
  5
67
330
1F
100
AcDbEntity
  8
0
  6
Continuous
 62
     7
370
    25
100
AcDbLine
 10
69.5843821299
 20
1.9989717933
 30
0.0
 11
72.5843821299
 21
1.9989717933
 31
0.0
  0
LINE
  5
68
330
1F
100
AcDbEntity
  8
0
  6
Continuous
 62
     7
370
    25
100
AcDbLine
 10
72.5843821299
 20
1.9989717933
 30
0.0
 11
72.5843821299
 21
-2.0010282067
 31
0.0
  0
LINE
  5
69
330
1F
100
AcDbEntity
  8
0
  6
Continuous
 62
     7
370
    25
100
AcDbLine
 10
72.5843821299
 20
-2.0010282067
 30
0.0
 11
69.5843821299
 21
-2.0010282067
 31
0.0
  0
LINE
  5
6A
330
1F
100
AcDbEntity
  8
0
  6
Continuous
 62
     7
370
    25
100
AcDbLine
 10
69.5843821299
 20
-2.0010282067
 30
0.0
 11
69.5843821299
 21
1.9989717933
 31
0.0
  0
ARC
  5
6B
330
1F
100
AcDbEntity
  8
0
  6
Continuous
 62
     7
370
    25
100
AcDbCircle
 10
56.9057899355
 20
0.0
 30
0.0
 40
2.840224154735479
100
AcDbArc
 50
90.0
 51
270.0
  0
LINE
  5
6C
330
1F
100
AcDbEntity
  8
0
  6
Continuous
 62
     7
370
    25
100
AcDbLine
 10
64.978099484
 20
2.8402241547
 30
0.0
 11
56.9057899355
 21
2.8402241547
 31
0.0
  0
ARC
  5
6D
330
1F
100
AcDbEntity
  8
0
  6
Continuous
 62
     7
370
    25
100
AcDbCircle
 10
64.978099484
 20
0.0
 30
0.0
 40
2.840224154735479
100
AcDbArc
 50
270.0
 51
90.0
  0
LINE
  5
6E
330
1F
100
AcDbEntity
  8
0
  6
Continuous
 62
     7
370
    25
100
AcDbLine
 10
56.9057899355
 20
-2.8402241547
 30
0.0
 11
64.978099484
 21
-2.8402241547
 31
0.0
  0
SPLINE
  5
6F
330
1F
100
AcDbEntity
  8
0
  6
Continuous
 62
     7
370
    25
100
AcDbSpline
210
0.0
220
0.0
230
1.0
 70
    11
 71
     3
 72
   138
 73
   134
 74
     0
 42
0.00000001
 43
0.00000001
 40
0.0
 40
0.0
 40
0.0
 40
0.0
 40
0.0021061680707412
 40
0.0043205901155111
 40
0.00677278324255
 40
0.0095566969740557
 40
0.0127340412762951
 40
0.016342887665016
 40
0.0204056041416188
 40
0.0249341021959062
 40
0.0299330711387399
 40
0.0354022405625184
 40
0.0413374297387623
 40
0.0477315899593609
 40
0.0545753893368606
 40
0.0618574049639954
 40
0.0695645708943233
 40
0.0776823107915671
 40
0.0861946839628209
 40
0.0950844406286816
 40
0.1043332440826675
 40
0.1139217001652501
 40
0.1238293388173807
 40
0.1340347075877426
 40
0.1445155308376062
 40
0.1552487162444546
 40
0.1662103559114239
 40
0.1773757827851012
 40
0.1887198210860831
 40
0.2002166471905668
 40
0.2118399506598019
 40
0.223562989450439
 40
0.2353586527269131
 40
0.2471996247425814
 40
0.2590583952397627
 40
0.2709072260003518
 40
0.2827184568406497
 40
0.294464514017973
 40
0.3061176891751031
 40
0.3176507706404048
 40
0.3290366181378914
 40
0.3402485103878132
 40
0.3512599991079841
 40
0.3620452732879947
 40
0.3725788910118388
 40
0.3828361423787241
 40
0.3927927394522929
 40
0.4024253201575171
 40
0.4117111148153431
 40
0.4206282443910386
 40
0.4291556726786626
 40
0.4372731794892729
 40
0.4449615609568891
 40
0.4522025749754582
 40
0.4589790625951323
 40
0.4652748756520636
 40
0.4710749628198788
 40
0.4763655692602005
 40
0.4811339605823388
 40
0.4853687677728626
 40
0.4890597841785489
 40
0.4921981479581782
 40
0.494776266124308
 40
0.4967880100265546
 40
0.4982284254079303
 40
0.4990940729269256
 40
0.4993828620531811
 40
0.5006171379468192
 40
0.5009059270730747
 40
0.5017715745920699
 40
0.5032119899734457
 40
0.5052237338756922
 40
0.5078018520418222
 40
0.5109402158214513
 40
0.5146312322271377
 40
0.5188660394176614
 40
0.5236344307397998
 40
0.5289250371801215
 40
0.5347251243479365
 40
0.5410209374048679
 40
0.5477974250245419
 40
0.5550384390431111
 40
0.5627268205107272
 40
0.5708443273213376
 40
0.5793717556089617
 40
0.5882888851846572
 40
0.5975746798424832
 40
0.6072072605477075
 40
0.6171638576212762
 40
0.6274211089881614
 40
0.6379547267120056
 40
0.6487400008920161
 40
0.659751489612187
 40
0.6709633818621088
 40
0.6823492293595954
 40
0.693882310824897
 40
0.7055354859820271
 40
0.7172815431593506
 40
0.7290927739996484
 40
0.7409416047602375
 40
0.7528003752574187
 40
0.7646413472730871
 40
0.7764370105495613
 40
0.7881600493401983
 40
0.7997833528094334
 40
0.811280178913917
 40
0.8226242172148989
 40
0.8337896440885763
 40
0.8447512837555455
 40
0.855484469162394
 40
0.8659652924122576
 40
0.8761706611826194
 40
0.8860782998347502
 40
0.8956667559173327
 40
0.9049155593713186
 40
0.9138053160371792
 40
0.922317689208433
 40
0.9304354291056768
 40
0.9381425950360048
 40
0.9454246106631397
 40
0.9522684100406392
 40
0.9586625702612378
 40
0.9645977594374817
 40
0.9700669288612601
 40
0.9750658978040939
 40
0.9795943958583813
 40
0.9836571123349841
 40
0.9872659587237052
 40
0.9904433030259444
 40
0.99322721675745
 40
0.9956794098844889
 40
0.9978938319292588
 40
1.0
 40
1.0
 40
1.0
 40
1.0
 10
10.00544678313231
 20
-0.0000000000000065
 30
0.0
 10
10.00544678313231
 20
-0.1293924838016567
 30
0.0
 10
10.04252702570259
 20
-0.3948280367858582
 30
0.0
 10
10.20883655949839
 20
-0.7795770112702439
 30
0.0
 10
10.48060824122825
 20
-1.149871751090693
 30
0.0
 10
10.85454298893889
 20
-1.507319429404834
 30
0.0
 10
11.3294309132556
 20
-1.853175549215347
 30
0.0
 10
11.90458055254134
 20
-2.187770561364879
 30
0.0
 10
12.57915016920635
 20
-2.510724302930251
 30
0.0
 10
13.35194373813974
 20
-2.821304706613717
 30
0.0
 10
14.22142812854189
 20
-3.118587324479134
 30
0.0
 10
15.18574754065711
 20
-3.40157619836309
 30
0.0
 10
16.24277967677362
 20
-3.669205164676857
 30
0.0
 10
17.39012513562508
 20
-3.920502654839717
 30
0.0
 10
18.62517298734345
 20
-4.154436338933797
 30
0.0
 10
19.94506814933541
 20
-4.37015507393072
 30
0.0
 10
21.34676435640716
 20
-4.566773554407638
 30
0.0
 10
22.82700134537983
 20
-4.74362800696685
 30
0.0
 10
24.38233901037442
 20
-4.900086706995179
 30
0.0
 10
26.00915062124723
 20
-5.035714309722269
 30
0.0
 10
27.70364552467527
 20
-5.150197088819901
 30
0.0
 10
29.46187621092352
 20
-5.243342831785128
 30
0.0
 10
31.2797374384803
 20
-5.315172349892348
 30
0.0
 10
33.15298494840903
 20
-5.365819922550736
 30
0.0
 10
35.07724711926244
 20
-5.395562308427266
 30
0.0
 10
37.04803448545088
 20
-5.404859929348715
 30
0.0
 10
39.06074408166376
 20
-5.394268758874901
 30
0.0
 10
41.11067638406675
 20
-5.364481401303013
 30
0.0
 10
43.19304486618516
 20
-5.316304974444764
 30
0.0
 10
45.30299161708875
 20
-5.250655260599615
 30
0.0
 10
47.43558851435217
 20
-5.168491128215564
 30
0.0
 10
49.58585424181614
 20
-5.070869650620412
 30
0.0
 10
51.74876867262626
 20
-4.958898851479
 30
0.0
 10
53.91928377868415
 20
-4.833706762892169
 30
0.0
 10
56.09233117714878
 20
-4.696456448558299
 30
0.0
 10
58.26283600635499
 20
-4.548314963299114
 30
0.0
 10
60.42573169528328
 20
-4.390445432213848
 30
0.0
 10
62.57596608772596
 20
-4.224031208596567
 30
0.0
 10
64.70851874497768
 20
-4.050185852130298
 30
0.0
 10
66.81840563503657
 20
-3.870044988525504
 30
0.0
 10
68.90070689663311
 20
-3.68470042195233
 30
0.0
 10
70.95055324521388
 20
-3.495217936140717
 30
0.0
 10
72.96316227698745
 20
-3.302660863263052
 30
0.0
 10
74.93382680750496
 20
-3.108009086153603
 30
0.0
 10
76.85795345986112
 20
-2.912273655677803
 30
0.0
 10
78.73104011838996
 20
-2.716406245553379
 30
0.0
 10
80.54871684629784
 20
-2.521369962993708
 30
0.0
 10
82.30673463824151
 20
-2.328113614862794
 30
0.0
 10
84.00098611056558
 20
-2.137503114257387
 30
0.0
 10
85.62752099196105
 20
-1.950507015829094
 30
0.0
 10
87.1825372544451
 20
-1.767994904253363
 30
0.0
 10
88.66240291238262
 20
-1.590863483076929
 30
0.0
 10
90.0636574915673
 20
-1.419985527376946
 30
0.0
 10
91.38303417117264
 20
-1.256256749105252
 30
0.0
 10
92.61744798872557
 20
-1.100502603855783
 30
0.0
 10
93.76401823694034
 20
-0.9535942623846195
 30
0.0
 10
94.82006233875903
 20
-0.8162873066890073
 30
0.0
 10
95.78311727882067
 20
-0.6894180762799379
 30
0.0
 10
96.65094268036677
 20
-0.573691677392324
 30
0.0
 10
97.4214776265448
 20
-0.4697617114777531
 30
0.0
 10
98.09303237307843
 20
-0.378470056438676
 30
0.0
 10
98.66370909516779
 20
-0.2997204837982385
 30
0.0
 10
99.1331150757795
 20
-0.2359488347633177
 30
0.0
 10
99.49764265759964
 20
-0.1823562414271425
 30
0.0
 10
99.7625398838335
 20
-0.1519503627122029
 30
0.0
 10
99.91471671127636
 20
-0.1190469105396305
 30
0.0
 10
100.0708081807205
 20
-0.122020513349608
 30
0.0
 10
100.0708081807204
 20
0.1220205133496054
 30
0.0
 10
99.91471671127638
 20
0.1190469105396088
 30
0.0
 10
99.7625398838335
 20
0.1519503627121936
 30
0.0
 10
99.49764265759966
 20
0.1823562414271224
 30
0.0
 10
99.13311507577949
 20
0.2359488347633053
 30
0.0
 10
98.6637090951678
 20
0.2997204837982199
 30
0.0
 10
98.09303237307843
 20
0.3784700564386636
 30
0.0
 10
97.42147762654487
 20
0.4697617114777331
 30
0.0
 10
96.65094268036675
 20
0.5736916773923119
 30
0.0
 10
95.78311727882067
 20
0.689418076279921
 30
0.0
 10
94.82006233875903
 20
0.8162873066889902
 30
0.0
 10
93.76401823694034
 20
0.9535942623846068
 30
0.0
 10
92.61744798872562
 20
1.100502603855763
 30
0.0
 10
91.38303417117262
 20
1.256256749105235
 30
0.0
 10
90.06365749156733
 20
1.419985527376928
 30
0.0
 10
88.66240291238259
 20
1.590863483076912
 30
0.0
 10
87.18253725444512
 20
1.767994904253345
 30
0.0
 10
85.62752099196108
 20
1.950507015829076
 30
0.0
 10
84.0009861105656
 20
2.137503114257378
 30
0.0
 10
82.30673463824147
 20
2.32811361486278
 30
0.0
 10
80.54871684629788
 20
2.521369962993695
 30
0.0
 10
78.73104011838997
 20
2.716406245553369
 30
0.0
 10
76.85795345986111
 20
2.912273655677793
 30
0.0
 10
74.93382680750497
 20
3.108009086153591
 30
0.0
 10
72.96316227698743
 20
3.30266086326304
 30
0.0
 10
70.95055324521388
 20
3.495217936140707
 30
0.0
 10
68.9007068966331
 20
3.684700421952318
 30
0.0
 10
66.81840563503657
 20
3.870044988525494
 30
0.0
 10
64.70851874497768
 20
4.050185852130292
 30
0.0
 10
62.57596608772596
 20
4.224031208596554
 30
0.0
 10
60.42573169528328
 20
4.390445432213838
 30
0.0
 10
58.26283600635499
 20
4.548314963299105
 30
0.0
 10
56.09233117714881
 20
4.696456448558291
 30
0.0
 10
53.91928377868409
 20
4.833706762892158
 30
0.0
 10
51.74876867262629
 20
4.958898851478993
 30
0.0
 10
49.58585424181612
 20
5.070869650620404
 30
0.0
 10
47.4355885143522
 20
5.168491128215555
 30
0.0
 10
45.30299161708874
 20
5.250655260599602
 30
0.0
 10
43.19304486618518
 20
5.316304974444755
 30
0.0
 10
41.11067638406675
 20
5.364481401303006
 30
0.0
 10
39.06074408166377
 20
5.394268758874892
 30
0.0
 10
37.04803448545088
 20
5.404859929348707
 30
0.0
 10
35.07724711926243
 20
5.395562308427255
 30
0.0
 10
33.15298494840905
 20
5.365819922550726
 30
0.0
 10
31.27973743848027
 20
5.315172349892337
 30
0.0
 10
29.46187621092354
 20
5.24334283178512
 30
0.0
 10
27.70364552467527
 20
5.150197088819897
 30
0.0
 10
26.00915062124722
 20
5.035714309722258
 30
0.0
 10
24.38233901037442
 20
4.900086706995173
 30
0.0
 10
22.82700134537983
 20
4.743628006966842
 30
0.0
 10
21.34676435640716
 20
4.566773554407629
 30
0.0
 10
19.94506814933542
 20
4.370155073930713
 30
0.0
 10
18.62517298734345
 20
4.154436338933788
 30
0.0
 10
17.39012513562507
 20
3.920502654839701
 30
0.0
 10
16.24277967677361
 20
3.669205164676847
 30
0.0
 10
15.18574754065713
 20
3.401576198363083
 30
0.0
 10
14.22142812854187
 20
3.118587324479116
 30
0.0
 10
13.35194373813975
 20
2.821304706613708
 30
0.0
 10
12.57915016920635
 20
2.510724302930239
 30
0.0
 10
11.90458055254134
 20
2.187770561364865
 30
0.0
 10
11.32943091325561
 20
1.853175549215331
 30
0.0
 10
10.8545429889389
 20
1.507319429404827
 30
0.0
 10
10.48060824122824
 20
1.149871751090664
 30
0.0
 10
10.20883655949839
 20
0.7795770112702276
 30
0.0
 10
10.04252702570259
 20
0.3948280367858401
 30
0.0
 10
10.00544678313231
 20
0.1293924838016438
 30
0.0
 10
10.00544678313231
 20
-0.0000000000000065
 30
0.0
  0
ARC
  5
70
330
1F
100
AcDbEntity
  8
0
  6
Continuous
 62
     7
370
    25
100
AcDbCircle
 10
24.3085084188
 20
0.0
 30
0.0
 40
3.6
100
AcDbArc
 50
90.0
 51
270.0
  0
LINE
  5
71
330
1F
100
AcDbEntity
  8
0
  6
Continuous
 62
     7
370
    25
100
AcDbLine
 10
35.5585084188
 20
3.6
 30
0.0
 11
24.3085084188
 21
3.6
 31
0.0
  0
ARC
  5
72
330
1F
100
AcDbEntity
  8
0
  6
Continuous
 62
     7
370
    25
100
AcDbCircle
 10
35.5585084188
 20
0.0
 30
0.0
 40
3.6
100
AcDbArc
 50
270.0
 51
90.0
  0
LINE
  5
73
330
1F
100
AcDbEntity
  8
0
  6
Continuous
 62
     7
370
    25
100
AcDbLine
 10
24.3085084188
 20
-3.6
 30
0.0
 11
35.5585084188
 21
-3.6
 31
0.0
  0
ENDSEC
  0
SECTION
  2
OBJECTS
  0
DICTIONARY
  5
C
330
0
100
AcDbDictionary
281
     1
  3
ACAD_GROUP
350
D
  3
ACAD_LAYOUT
350
1A
  3
ACAD_MLINESTYLE
350
17
  3
ACAD_PLOTSETTINGS
350
19
  3
ACAD_PLOTSTYLENAME
350
E
  3
ACAD_SCALELIST
350
47
  3
DWGPROPS
350
74
  0
DICTIONARY
  5
D
102
{ACAD_REACTORS
330
C
102
}
330
C
100
AcDbDictionary
281
     1
  0
DICTIONARY
  5
1A
102
{ACAD_REACTORS
330
C
102
}
330
C
100
AcDbDictionary
281
     1
  3
Layout1
350
1E
  3
Layout2
350
26
  3
Model
350
22
  0
DICTIONARY
  5
17
102
{ACAD_REACTORS
330
C
102
}
330
C
100
AcDbDictionary
281
     1
  3
Standard
350
18
  0
DICTIONARY
  5
19
102
{ACAD_REACTORS
330
C
102
}
330
C
100
AcDbDictionary
281
     1
  0
ACDBDICTIONARYWDFLT
  5
E
102
{ACAD_REACTORS
330
C
102
}
330
C
100
AcDbDictionary
281
     1
  3
Normal
350
F
100
AcDbDictionaryWithDefault
340
F
  0
DICTIONARY
  5
47
102
{ACAD_REACTORS
330
C
102
}
330
C
100
AcDbDictionary
281
     1
  3
A0
350
48
  3
A1
350
49
  3
A2
350
4A
  3
A3
350
4B
  3
A4
350
4C
  3
A5
350
4D
  3
A6
350
4E
  3
A7
350
4F
  3
A8
350
50
  3
A9
350
51
  3
B0
350
52
  3
B1
350
53
  3
B2
350
54
  3
B3
350
55
  3
B4
350
56
  3
B5
350
57
  3
B6
350
58
  0
XRECORD
  5
74
102
{ACAD_REACTORS
330
C
102
}
330
C
100
AcDbXrecord
280
     1
  1
DWGPROPS COOKIE
  2

  3

  4

  6

  7

  8
mahmo
  9

300
=
301
=
302
=
303
=
304
=
305
=
306
=
307
=
308
=
309
=
 40
0.0
 41
2461297.312923414
 42
2461297.313019665
  1

 90
        0
  0
LAYOUT
  5
1E
102
{ACAD_REACTORS
330
1A
102
}
330
1A
100
AcDbPlotSettings
  1

  2
none_device
  4

  6

 40
0.0
 41
0.0
 42
0.0
 43
0.0
 44
0.0
 45
0.0
 46
0.0
 47
0.0
 48
0.0
 49
0.0
140
0.0
141
0.0
142
1.0
143
1.0
 70
   688
 72
     1
 73
     0
 74
     5
  7

 75
    16
147
1.0
148
0.0
149
0.0
100
AcDbLayout
  1
Layout1
 70
     1
 71
     1
 10
0.0
 20
0.0
 11
420.0
 21
297.0
 12
0.0
 22
0.0
 32
0.0
 14
1.0000000000E+20
 24
1.0000000000E+20
 34
1.0000000000E+20
 15
-1.0000000000E+20
 25
-1.0000000000E+20
 35
-1.0000000000E+20
146
0.0
 13
0.0
 23
0.0
 33
0.0
 16
1.0
 26
0.0
 36
0.0
 17
0.0
 27
1.0
 37
0.0
 76
     0
330
1B
  0
LAYOUT
  5
26
102
{ACAD_REACTORS
330
1A
102
}
330
1A
100
AcDbPlotSettings
  1

  2
none_device
  4

  6

 40
0.0
 41
0.0
 42
0.0
 43
0.0
 44
0.0
 45
0.0
 46
0.0
 47
0.0
 48
0.0
 49
0.0
140
0.0
141
0.0
142
1.0
143
1.0
 70
   688
 72
     1
 73
     0
 74
     5
  7

 75
    16
147
1.0
148
0.0
149
0.0
100
AcDbLayout
  1
Layout2
 70
     1
 71
     2
 10
0.0
 20
0.0
 11
0.0
 21
0.0
 12
0.0
 22
0.0
 32
0.0
 14
0.0
 24
0.0
 34
0.0
 15
0.0
 25
0.0
 35
0.0
146
0.0
 13
0.0
 23
0.0
 33
0.0
 16
1.0
 26
0.0
 36
0.0
 17
0.0
 27
1.0
 37
0.0
 76
     0
330
23
  0
LAYOUT
  5
22
102
{ACAD_REACTORS
330
1A
102
}
330
1A
100
AcDbPlotSettings
  1

  2
none_device
  4
ANSI_A_(11.00_x_8.50_Inches)
  6

 40
6.35
 41
19.05
 42
6.35000508
 43
19.05000254
 44
279.4
 45
215.9
 46
-35.68700254
 47
88.89999873
 48
0.0
 49
0.0
140
0.0
141
0.0
142
0.1209341298
143
1.0
 70
  1696
 72
     0
 73
     0
 74
     0
  7

 75
     0
147
0.0179189148
148
-1300.4909072572
149
0.0
100
AcDbLayout
  1
Model
 70
     1
 71
     0
 10
0.0
 20
0.0
 11
420.0
 21
297.0
 12
0.0
 22
0.0
 32
0.0
 14
10.0054467831
 24
-5.3197468577
 34
0.0
 15
100.0544678313
 25
5.3197468577
 35
0.0
146
0.0
 13
0.0
 23
0.0
 33
0.0
 16
1.0
 26
0.0
 36
0.0
 17
0.0
 27
1.0
 37
0.0
 76
     0
330
1F
331
29
  0
MLINESTYLE
  5
18
102
{ACAD_REACTORS
330
17
102
}
330
17
100
AcDbMlineStyle
  2
Standard
 70
     0
  3

 62
   256
 51
90.0
 52
90.0
 71
     2
 49
0.5
 62
   256
  6
BYLAYER
 49
-0.5
 62
   256
  6
BYLAYER
  0
ACDBPLACEHOLDER
  5
F
102
{ACAD_REACTORS
330
E
102
}
330
E
  0
SCALE
  5
48
102
{ACAD_REACTORS
330
47
102
}
330
47
100
AcDbScale
 70
     0
300
1:1
140
1.0
141
1.0
290
     1
  0
SCALE
  5
49
102
{ACAD_REACTORS
330
47
102
}
330
47
100
AcDbScale
 70
     0
300
1:2
140
1.0
141
2.0
290
     0
  0
SCALE
  5
4A
102
{ACAD_REACTORS
330
47
102
}
330
47
100
AcDbScale
 70
     0
300
1:4
140
1.0
141
4.0
290
     0
  0
SCALE
  5
4B
102
{ACAD_REACTORS
330
47
102
}
330
47
100
AcDbScale
 70
     0
300
1:5
140
1.0
141
5.0
290
     0
  0
SCALE
  5
4C
102
{ACAD_REACTORS
330
47
102
}
330
47
100
AcDbScale
 70
     0
300
1:8
140
1.0
141
8.0
290
     0
  0
SCALE
  5
4D
102
{ACAD_REACTORS
330
47
102
}
330
47
100
AcDbScale
 70
     0
300
1:10
140
1.0
141
10.0
290
     0
  0
SCALE
  5
4E
102
{ACAD_REACTORS
330
47
102
}
330
47
100
AcDbScale
 70
     0
300
1:16
140
1.0
141
16.0
290
     0
  0
SCALE
  5
4F
102
{ACAD_REACTORS
330
47
102
}
330
47
100
AcDbScale
 70
     0
300
1:20
140
1.0
141
20.0
290
     0
  0
SCALE
  5
50
102
{ACAD_REACTORS
330
47
102
}
330
47
100
AcDbScale
 70
     0
300
1:30
140
1.0
141
30.0
290
     0
  0
SCALE
  5
51
102
{ACAD_REACTORS
330
47
102
}
330
47
100
AcDbScale
 70
     0
300
1:40
140
1.0
141
40.0
290
     0
  0
SCALE
  5
52
102
{ACAD_REACTORS
330
47
102
}
330
47
100
AcDbScale
 70
     0
300
1:50
140
1.0
141
50.0
290
     0
  0
SCALE
  5
53
102
{ACAD_REACTORS
330
47
102
}
330
47
100
AcDbScale
 70
     0
300
1:100
140
1.0
141
100.0
290
     0
  0
SCALE
  5
54
102
{ACAD_REACTORS
330
47
102
}
330
47
100
AcDbScale
 70
     0
300
2:1
140
2.0
141
1.0
290
     0
  0
SCALE
  5
55
102
{ACAD_REACTORS
330
47
102
}
330
47
100
AcDbScale
 70
     0
300
4:1
140
4.0
141
1.0
290
     0
  0
SCALE
  5
56
102
{ACAD_REACTORS
330
47
102
}
330
47
100
AcDbScale
 70
     0
300
8:1
140
8.0
141
1.0
290
     0
  0
SCALE
  5
57
102
{ACAD_REACTORS
330
47
102
}
330
47
100
AcDbScale
 70
     0
300
10:1
140
10.0
141
1.0
290
     0
  0
SCALE
  5
58
102
{ACAD_REACTORS
330
47
102
}
330
47
100
AcDbScale
 70
     0
300
100:1
140
100.0
141
1.0
290
     0
  0
ENDSEC
  0
EOF
