  0
SECTION
  2
HEADER
  9
$ACADVER
  1
AC1015
  9
$ACADMAINTVER
 70
     6
  9
$DWGCODEPAGE
  3
ANSI_1252
  9
$INSBASE
 10
0.0
 20
0.0
 30
0.0
  9
$EXTMIN
 10
30.0163388937
 20
-4.1210911479
 30
0.0
  9
$EXTMAX
 10
100.0544608072
 20
4.1640095085
 30
0.0
  9
$LIMMIN
 10
0.0
 20
0.0
  9
$LIMMAX
 10
420.0
 20
297.0
  9
$ORTHOMODE
 70
     0
  9
$REGENMODE
 70
     1
  9
$FILLMODE
 70
     1
  9
$QTEXTMODE
 70
     0
  9
$MIRRTEXT
 70
     1
  9
$LTSCALE
 40
1.0
  9
$ATTMODE
 70
     1
  9
$TEXTSIZE
 40
3.5
  9
$TRACEWID
 40
1.0
  9
$TEXTSTYLE
  7
Standard
  9
$CLAYER
  8
0
  9
$CELTYPE
  6
ByLayer
  9
$CECOLOR
 62
   256
  9
$CELTSCALE
 40
1.0
  9
$DISPSILH
 70
     0
  9
$DIMSCALE
 40
1.0
  9
$DIMASZ
 40
3.302
  9
$DIMEXO
 40
0.0
  9
$DIMDLI
 40
3.75
  9
$DIMRND
 40
0.0
  9
$DIMDLE
 40
0.0
  9
$DIMEXE
 40
1.0
  9
$DIMTP
 40
0.0
  9
$DIMTM
 40
0.0
  9
$DIMTXT
 40
3.5
  9
$DIMCEN
 40
2.5
  9
$DIMTSZ
 40
0.0
  9
$DIMTOL
 70
     0
  9
$DIMLIM
 70
     0
  9
$DIMTIH
 70
     1
  9
$DIMTOH
 70
     1
  9
$DIMSE1
 70
     0
  9
$DIMSE2
 70
     0
  9
$DIMTAD
 70
     1
  9
$DIMZIN
 70
     1
  9
$DIMBLK
  1

  9
$DIMASO
 70
     1
  9
$DIMSHO
 70
     1
  9
$DIMPOST
  1

  9
$DIMAPOST
  1

  9
$DIMALT
 70
     0
  9
$DIMALTD
 70
     3
  9
$DIMALTF
 40
0.0393700787
  9
$DIMLFAC
 40
1.0
  9
$DIMTOFL
 70
     1
  9
$DIMTVP
 40
0.0
  9
$DIMTIX
 70
     0
  9
$DIMSOXD
 70
     0
  9
$DIMSAH
 70
     0
  9
$DIMBLK1
  1

  9
$DIMBLK2
  1

  9
$DIMSTYLE
  2
ISO-25
  9
$DIMCLRD
 70
     0
  9
$DIMCLRE
 70
     0
  9
$DIMCLRT
 70
     0
  9
$DIMTFAC
 40
1.0
  9
$DIMGAP
 40
1.524
  9
$DIMJUST
 70
     0
  9
$DIMSD1
 70
     0
  9
$DIMSD2
 70
     0
  9
$DIMTOLJ
 70
     0
  9
$DIMTZIN
 70
     1
  9
$DIMALTZ
 70
     0
  9
$DIMALTTZ
 70
     0
  9
$DIMUPT
 70
     0
  9
$DIMDEC
 70
     2
  9
$DIMTDEC
 70
     2
  9
$DIMALTU
 70
     2
  9
$DIMALTTD
 70
     3
  9
$DIMTXSTY
  7
Standard
  9
$DIMAUNIT
 70
     0
  9
$DIMADEC
 70
     2
  9
$DIMALTRND
 40
0.0
  9
$DIMAZIN
 70
     0
  9
$DIMDSEP
 70
    44
  9
$DIMATFIT
 70
     3
  9
$DIMFRAC
 70
     0
  9
$DIMLDRBLK
  1

  9
$DIMLUNIT
 70
     2
  9
$DIMLWD
 70
    -2
  9
$DIMLWE
 70
    -2
  9
$DIMTMOVE
 70
     0
  9
$LUNITS
 70
     2
  9
$LUPREC
 70
     2
  9
$SKETCHINC
 40
1.0
  9
$FILLETRAD
 40
0.0
  9
$AUNITS
 70
     0
  9
$AUPREC
 70
     2
  9
$MENU
  1
.
  9
$ELEVATION
 40
0.0
  9
$PELEVATION
 40
0.0
  9
$THICKNESS
 40
0.0
  9
$LIMCHECK
 70
     0
  9
$CHAMFERA
 40
0.0
  9
$CHAMFERB
 40
0.0
  9
$CHAMFERC
 40
0.0
  9
$CHAMFERD
 40
0.0
  9
$SKPOLY
 70
     0
  9
$TDCREATE
 40
2461297.437923461
  9
$TDUCREATE
 40
2461297.312923461
  9
$TDUPDATE
 40
2461297.438019908
  9
$TDUUPDATE
 40
2461297.313019908
  9
$TDINDWG
 40
0.0000000116
  9
$TDUSRTIMER
 40
0.0000000116
  9
$USRTIMER
 70
     1
  9
$ANGBASE
 50
0.0
  9
$ANGDIR
 70
     0
  9
$PDMODE
 70
     0
  9
$PDSIZE
 40
-1.0
  9
$PLINEWID
 40
0.0
  9
$SPLFRAME
 70
     0
  9
$SPLINETYPE
 70
     6
  9
$SPLINESEGS
 70
     8
  9
$HANDSEED
  5
76
  9
$SURFTAB1
 70
     6
  9
$SURFTAB2
 70
     6
  9
$SURFTYPE
 70
     6
  9
$SURFU
 70
     6
  9
$SURFV
 70
     6
  9
$UCSBASE
  2

  9
$UCSNAME
  2

  9
$UCSORG
 10
0.0
 20
0.0
 30
0.0
  9
$UCSXDIR
 10
1.0
 20
0.0
 30
0.0
  9
$UCSYDIR
 10
0.0
 20
1.0
 30
0.0
  9
$UCSORTHOREF
  2

  9
$UCSORTHOVIEW
 70
     0
  9
$UCSORGTOP
 10
0.0
 20
0.0
 30
0.0
  9
$UCSORGBOTTOM
 10
0.0
 20
0.0
 30
0.0
  9
$UCSORGLEFT
 10
0.0
 20
0.0
 30
0.0
  9
$UCSORGRIGHT
 10
0.0
 20
0.0
 30
0.0
  9
$UCSORGFRONT
 10
0.0
 20
0.0
 30
0.0
  9
$UCSORGBACK
 10
0.0
 20
0.0
 30
0.0
  9
$PUCSBASE
  2

  9
$PUCSNAME
  2

  9
$PUCSORG
 10
0.0
 20
0.0
 30
0.0
  9
$PUCSXDIR
 10
1.0
 20
0.0
 30
0.0
  9
$PUCSYDIR
 10
0.0
 20
1.0
 30
0.0
  9
$PUCSORTHOREF
  2

  9
$PUCSORTHOVIEW
 70
     0
  9
$PUCSORGTOP
 10
0.0
 20
0.0
 30
0.0
  9
$PUCSORGBOTTOM
 10
0.0
 20
0.0
 30
0.0
  9
$PUCSORGLEFT
 10
0.0
 20
0.0
 30
0.0
  9
$PUCSORGRIGHT
 10
0.0
 20
0.0
 30
0.0
  9
$PUCSORGFRONT
 10
0.0
 20
0.0
 30
0.0
  9
$PUCSORGBACK
 10
0.0
 20
0.0
 30
0.0
  9
$USERI1
 70
     0
  9
$USERI2
 70
     0
  9
$USERI3
 70
     0
  9
$USERI4
 70
     0
  9
$USERI5
 70
     0
  9
$USERR1
 40
0.0
  9
$USERR2
 40
0.0
  9
$USERR3
 40
0.0
  9
$USERR4
 40
0.0
  9
$USERR5
 40
0.0
  9
$WORLDVIEW
 70
     1
  9
$SHADEDGE
 70
     3
  9
$SHADEDIF
 70
    70
  9
$TILEMODE
 70
     1
  9
$MAXACTVP
 70
    64
  9
$PINSBASE
 10
0.0
 20
0.0
 30
0.0
  9
$PLIMCHECK
 70
     0
  9
$PEXTMIN
 10
1.0000000000E+20
 20
1.0000000000E+20
 30
1.0000000000E+20
  9
$PEXTMAX
 10
-1.0000000000E+20
 20
-1.0000000000E+20
 30
-1.0000000000E+20
  9
$PLIMMIN
 10
0.0
 20
0.0
  9
$PLIMMAX
 10
420.0
 20
297.0
  9
$UNITMODE
 70
     0
  9
$VISRETAIN
 70
     1
  9
$PLINEGEN
 70
     0
  9
$PSLTSCALE
 70
     1
  9
$TREEDEPTH
 70
  3020
  9
$CMLSTYLE
  2
Standard
  9
$CMLJUST
 70
     0
  9
$CMLSCALE
 40
20.0
  9
$PROXYGRAPHICS
 70
     1
  9
$MEASUREMENT
 70
     1
  9
$CELWEIGHT
370
    -1
  9
$ENDCAPS
280
     0
  9
$JOINSTYLE
280
     0
  9
$LWDISPLAY
290
     1
  9
$INSUNITS
 70
     4
  9
$HYPERLINKBASE
  1

  9
$STYLESHEET
  1

  9
$XEDIT
290
     1
  9
$CEPSNTYPE
380
     0
  9
$PSTYLEMODE
290
     1
  9
$FINGERPRINTGUID
  2
{9da6f47b-b803-4d46-84da-3aca966e343d}
  9
$VERSIONGUID
  2
{FAEB1C32-E019-11D5-929B-00C0DF256EC4}
  9
$EXTNAMES
290
     1
  9
$PSVPSCALE
 40
0.0
  9
$OLESTARTUP
290
     0
  0
ENDSEC
  0
SECTION
  2
CLASSES
  0
CLASS
  1
ACDBDICTIONARYWDFLT
  2
AcDbDictionaryWithDefault
  3
ObjectDBX Classes
 90
        0
280
     0
281
     0
  0
CLASS
  1
VISUALSTYLE
  2
AcDbVisualStyle
  3
ObjectDBX Classes
 90
     4095
280
     0
281
     0
  0
CLASS
  1
MATERIAL
  2
AcDbMaterial
  3
ObjectDBX Classes
 90
     1153
280
     0
281
     0
  0
CLASS
  1
SCALE
  2
AcDbScale
  3
ObjectDBX Classes
 90
     1153
280
     0
281
     0
  0
CLASS
  1
TABLESTYLE
  2
AcDbTableStyle
  3
ObjectDBX Classes
 90
     4095
280
     0
281
     0
  0
CLASS
  1
MLEADERSTYLE
  2
AcDbMLeaderStyle
  3
ACDB_MLEADERSTYLE_CLASS
 90
     4095
280
     0
281
     0
  0
CLASS
  1
SUN
  2
AcDbSun
  3
SCENEOE
 90
     1153
280
     0
281
     0
  0
CLASS
  1
ACDBPLACEHOLDER
  2
AcDbPlaceHolder
  3
ObjectDBX Classes
 90
        0
280
     0
281
     0
  0
CLASS
  1
LAYOUT
  2
AcDbLayout
  3
ObjectDBX Classes
 90
        0
280
     0
281
     0
  0
ENDSEC
  0
SECTION
  2
TABLES
  0
TABLE
  2
VPORT
  5
8
330
0
100
AcDbSymbolTable
 70
     1
  0
VPORT
  5
29
330
8
100
AcDbSymbolTableRecord
100
AcDbViewportTableRecord
  2
*Active
 70
     0
 10
0.0
 20
0.0
 11
1.0
 21
1.0
 12
65.0353998504
 22
0.0214591803
 13
0.0
 23
0.0
 14
10.0
 24
10.0
 15
10.0
 25
10.0
 16
0.0
 26
0.0
 36
1.0
 17
0.0
 27
0.0
 37
0.0
 40
8.4508026696
 41
8.4535028381
 42
50.0
 43
0.0
 44
0.0
 50
0.0
 51
0.0
 71
     0
 72
   100
 73
     1
 74
     3
 75
     0
 76
     0
 77
     0
 78
     0
281
     0
 65
     1
110
0.0
120
0.0
130
0.0
111
1.0
121
0.0
131
0.0
112
0.0
122
1.0
132
0.0
 79
     0
146
0.0
  0
ENDTAB
  0
TABLE
  2
LTYPE
  5
5
330
0
100
AcDbSymbolTable
 70
     6
  0
LTYPE
  5
14
330
5
100
AcDbSymbolTableRecord
100
AcDbLinetypeTableRecord
  2
ByBlock
 70
     0
  3

 72
    65
 73
     0
 40
0.0
  0
LTYPE
  5
15
330
5
100
AcDbSymbolTableRecord
100
AcDbLinetypeTableRecord
  2
ByLayer
 70
     0
  3

 72
    65
 73
     0
 40
0.0
  0
LTYPE
  5
16
330
5
100
AcDbSymbolTableRecord
100
AcDbLinetypeTableRecord
  2
Continuous
 70
     0
  3
Solid line
 72
    65
 73
     0
 40
0.0
  0
LTYPE
  5
5E
330
5
100
AcDbSymbolTableRecord
100
AcDbLinetypeTableRecord
  2
HIDDEN
 70
     0
  3
Hidden __ __ __ __ __ __ __ __ __ __ __ __ __ __
 72
    65
 73
     2
 40
1.905
 49
1.27
 74
     0
 49
-0.635
 74
     0
  0
LTYPE
  5
5F
330
5
100
AcDbSymbolTableRecord
100
AcDbLinetypeTableRecord
  2
PHANTOM
 70
     0
  3
Phantom ______  __  __  ______  __  __  ______
 72
    65
 73
     6
 40
12.7
 49
6.35
 74
     0
 49
-1.27
 74
     0
 49
1.27
 74
     0
 49
-1.27
 74
     0
 49
1.27
 74
     0
 49
-1.27
 74
     0
  0
LTYPE
  5
60
330
5
100
AcDbSymbolTableRecord
100
AcDbLinetypeTableRecord
  2
CENTER
 70
     0
  3
Center ____ _ ____ _ ____ _ ____ _ ____ _ ____
 72
    65
 73
     4
 40
10.16
 49
6.35
 74
     0
 49
-1.27
 74
     0
 49
1.27
 74
     0
 49
-1.27
 74
     0
  0
LTYPE
  5
61
330
5
100
AcDbSymbolTableRecord
100
AcDbLinetypeTableRecord
  2
CENTERX2
 70
     0
  3
Center (2x) ________  __  ________  __  _____
 72
    65
 73
     4
 40
20.32
 49
12.7
 74
     0
 49
-2.54
 74
     0
 49
2.54
 74
     0
 49
-2.54
 74
     0
  0
LTYPE
  5
62
330
5
100
AcDbSymbolTableRecord
100
AcDbLinetypeTableRecord
  2
DOT2
 70
     0
  3
Dot (.5x) ........................................
 72
    65
 73
     2
 40
0.635
 49
0.0
 74
     0
 49
-0.635
 74
     0
  0
ENDTAB
  0
TABLE
  2
LAYER
  5
2
330
0
100
AcDbSymbolTable
 70
     1
  0
LAYER
  5
10
330
2
100
AcDbSymbolTableRecord
100
AcDbLayerTableRecord
  2
0
 70
     0
 62
     7
  6
Continuous
370
    -3
390
F
  0
ENDTAB
  0
TABLE
  2
STYLE
  5
3
330
0
100
AcDbSymbolTable
 70
     1
  0
STYLE
  5
11
330
3
100
AcDbSymbolTableRecord
100
AcDbTextStyleTableRecord
  2
Standard
 70
     0
 40
0.0
 41
1.0
 50
0.0
 71
     0
 42
3.5
  3
txt
  4

  0
ENDTAB
  0
TABLE
  2
VIEW
  5
6
330
0
100
AcDbSymbolTable
 70
     0
  0
ENDTAB
  0
TABLE
  2
UCS
  5
7
330
0
100
AcDbSymbolTable
 70
     0
  0
ENDTAB
  0
TABLE
  2
APPID
  5
9
330
0
100
AcDbSymbolTable
 70
     1
  0
APPID
  5
12
330
9
100
AcDbSymbolTableRecord
100
AcDbRegAppTableRecord
  2
ACAD
 70
     0
  0
ENDTAB
  0
TABLE
  2
DIMSTYLE
  5
A
330
0
100
AcDbSymbolTable
 70
     1
100
AcDbDimStyleTable
  0
DIMSTYLE
105
27
330
A
100
AcDbSymbolTableRecord
100
AcDbDimStyleTableRecord
  2
ISO-25
 70
     0
 41
2.5
 42
0.625
 43
3.75
 44
1.25
 73
     0
 74
     0
 77
     1
 78
     8
140
2.5
141
2.5
143
0.0393700787
147
0.625
171
     3
172
     1
178
     0
271
     2
272
     2
274
     3
278
    44
283
     0
284
     8
340
11
  0
ENDTAB
  0
TABLE
  2
BLOCK_RECORD
  5
1
330
0
100
AcDbSymbolTable
 70
     1
  0
BLOCK_RECORD
  5
1F
330
1
100
AcDbSymbolTableRecord
100
AcDbBlockTableRecord
  2
*Model_Space
340
22
  0
BLOCK_RECORD
  5
1B
330
1
100
AcDbSymbolTableRecord
100
AcDbBlockTableRecord
  2
*Paper_Space
340
1E
  0
BLOCK_RECORD
  5
23
330
1
100
AcDbSymbolTableRecord
100
AcDbBlockTableRecord
  2
*Paper_Space0
340
26
  0
ENDTAB
  0
ENDSEC
  0
SECTION
  2
BLOCKS
  0
BLOCK
  5
20
330
1F
100
AcDbEntity
  8
0
100
AcDbBlockBegin
  2
*Model_Space
 70
     0
 10
0.0
 20
0.0
 30
0.0
  3
*Model_Space
  1

  0
ENDBLK
  5
21
330
1F
100
AcDbEntity
  8
0
100
AcDbBlockEnd
  0
BLOCK
  5
1C
330
1B
100
AcDbEntity
 67
     1
  8
0
100
AcDbBlockBegin
  2
*Paper_Space
 70
     0
 10
0.0
 20
0.0
 30
0.0
  3
*Paper_Space
  1

  0
ENDBLK
  5
1D
330
1B
100
AcDbEntity
 67
     1
  8
0
100
AcDbBlockEnd
  0
BLOCK
  5
24
330
23
100
AcDbEntity
  8
0
100
AcDbBlockBegin
  2
*Paper_Space0
 70
     0
 10
0.0
 20
0.0
 30
0.0
  3
*Paper_Space0
  1

  0
ENDBLK
  5
25
330
23
100
AcDbEntity
  8
0
100
AcDbBlockEnd
  0
ENDSEC
  0
SECTION
  2
ENTITIES
  0
LINE
  5
63
330
1F
100
AcDbEntity
  8
0
  6
Continuous
 62
     7
370
    25
100
AcDbLine
 10
48.7217899131
 20
1.9992800674
 30
0.0
 11
51.7217899131
 21
1.9992800674
 31
0.0
  0
LINE
  5
64
330
1F
100
AcDbEntity
  8
0
  6
Continuous
 62
     7
370
    25
100
AcDbLine
 10
51.7217899131
 20
1.9992800674
 30
0.0
 11
51.7217899131
 21
-2.0007199326
 31
0.0
  0
LINE
  5
65
330
1F
100
AcDbEntity
  8
0
  6
Continuous
 62
     7
370
    25
100
AcDbLine
 10
51.7217899131
 20
-2.0007199326
 30
0.0
 11
48.7217899131
 21
-2.0007199326
 31
0.0
  0
LINE
  5
66
330
1F
100
AcDbEntity
  8
0
  6
Continuous
 62
     7
370
    25
100
AcDbLine
 10
48.7217899131
 20
-2.0007199326
 30
0.0
 11
48.7217899131
 21
1.9992800674
 31
0.0
  0
LINE
  5
67
330
1F
100
AcDbEntity
  8
0
  6
Continuous
 62
     7
370
    25
100
AcDbLine
 10
69.5843821299
 20
1.9989717933
 30
0.0
 11
72.5843821299
 21
1.9989717933
 31
0.0
  0
LINE
  5
68
330
1F
100
AcDbEntity
  8
0
  6
Continuous
 62
     7
370
    25
100
AcDbLine
 10
72.5843821299
 20
1.9989717933
 30
0.0
 11
72.5843821299
 21
-2.0010282067
 31
0.0
  0
LINE
  5
69
330
1F
100
AcDbEntity
  8
0
  6
Continuous
 62
     7
370
    25
100
AcDbLine
 10
72.5843821299
 20
-2.0010282067
 30
0.0
 11
69.5843821299
 21
-2.0010282067
 31
0.0
  0
LINE
  5
6A
330
1F
100
AcDbEntity
  8
0
  6
Continuous
 62
     7
370
    25
100
AcDbLine
 10
69.5843821299
 20
-2.0010282067
 30
0.0
 11
69.5843821299
 21
1.9989717933
 31
0.0
  0
CIRCLE
  5
6B
330
1F
100
AcDbEntity
  8
0
  6
Continuous
 62
     7
370
    25
100
AcDbCircle
 10
77.0560132826
 20
0.0494778403
 30
0.0
 40
1.818573191743525
  0
ARC
  5
6C
330
1F
100
AcDbEntity
  8
0
  6
Continuous
 62
     7
370
    25
100
AcDbCircle
 10
44.3280487976
 20
0.0494778403
 30
0.0
 40
1.950565668733507
100
AcDbArc
 50
270.0
 51
90.0
  0
LINE
  5
6D
330
1F
100
AcDbEntity
  8
0
  6
Continuous
 62
     7
370
    25
100
AcDbLine
 10
35.8506650457
 20
-1.9010878284
 30
0.0
 11
44.3280487976
 21
-1.9010878284
 31
0.0
  0
ARC
  5
6E
330
1F
100
AcDbEntity
  8
0
  6
Continuous
 62
     7
370
    25
100
AcDbCircle
 10
35.8506650457
 20
0.0494778403
 30
0.0
 40
1.950565668733507
100
AcDbArc
 50
90.0
 51
270.0
  0
LINE
  5
6F
330
1F
100
AcDbEntity
  8
0
  6
Continuous
 62
     7
370
    25
100
AcDbLine
 10
44.3280487976
 20
2.0000435091
 30
0.0
 11
35.8506650457
 21
2.0000435091
 31
0.0
  0
SPLINE
  5
70
330
1F
100
AcDbEntity
  8
0
  6
Continuous
 62
     7
370
    25
100
AcDbSpline
210
0.0
220
0.0
230
1.0
 70
    11
 71
     3
 72
   138
 73
   134
 74
     0
 42
0.00000001
 43
0.00000001
 40
0.0
 40
0.0
 40
0.0
 40
0.0
 40
0.0021061680707412
 40
0.0043205901155111
 40
0.00677278324255
 40
0.0095566969740557
 40
0.0127340412762951
 40
0.016342887665016
 40
0.0204056041416188
 40
0.0249341021959062
 40
0.0299330711387399
 40
0.0354022405625184
 40
0.0413374297387623
 40
0.0477315899593609
 40
0.0545753893368606
 40
0.0618574049639954
 40
0.0695645708943233
 40
0.0776823107915671
 40
0.0861946839628209
 40
0.0950844406286816
 40
0.1043332440826675
 40
0.1139217001652501
 40
0.1238293388173807
 40
0.1340347075877426
 40
0.1445155308376062
 40
0.1552487162444546
 40
0.1662103559114239
 40
0.1773757827851012
 40
0.1887198210860831
 40
0.2002166471905668
 40
0.2118399506598019
 40
0.223562989450439
 40
0.2353586527269131
 40
0.2471996247425814
 40
0.2590583952397627
 40
0.2709072260003518
 40
0.2827184568406497
 40
0.294464514017973
 40
0.3061176891751031
 40
0.3176507706404048
 40
0.3290366181378914
 40
0.3402485103878132
 40
0.3512599991079841
 40
0.3620452732879947
 40
0.3725788910118388
 40
0.3828361423787241
 40
0.3927927394522929
 40
0.4024253201575171
 40
0.4117111148153431
 40
0.4206282443910386
 40
0.4291556726786626
 40
0.4372731794892729
 40
0.4449615609568891
 40
0.4522025749754582
 40
0.4589790625951323
 40
0.4652748756520636
 40
0.4710749628198788
 40
0.4763655692602005
 40
0.4811339605823388
 40
0.4853687677728626
 40
0.4890597841785489
 40
0.4921981479581782
 40
0.494776266124308
 40
0.4967880100265546
 40
0.4982284254079303
 40
0.4990940729269256
 40
0.4993828620531811
 40
0.5006171379468192
 40
0.5009059270730747
 40
0.5017715745920699
 40
0.5032119899734457
 40
0.5052237338756922
 40
0.5078018520418222
 40
0.5109402158214513
 40
0.5146312322271377
 40
0.5188660394176614
 40
0.5236344307397998
 40
0.5289250371801215
 40
0.5347251243479365
 40
0.5410209374048679
 40
0.5477974250245419
 40
0.5550384390431111
 40
0.5627268205107272
 40
0.5708443273213376
 40
0.5793717556089617
 40
0.5882888851846572
 40
0.5975746798424832
 40
0.6072072605477075
 40
0.6171638576212762
 40
0.6274211089881614
 40
0.6379547267120056
 40
0.6487400008920161
 40
0.659751489612187
 40
0.6709633818621088
 40
0.6823492293595954
 40
0.693882310824897
 40
0.7055354859820271
 40
0.7172815431593506
 40
0.7290927739996484
 40
0.7409416047602375
 40
0.7528003752574187
 40
0.7646413472730871
 40
0.7764370105495613
 40
0.7881600493401983
 40
0.7997833528094334
 40
0.811280178913917
 40
0.8226242172148989
 40
0.8337896440885763
 40
0.8447512837555455
 40
0.855484469162394
 40
0.8659652924122576
 40
0.8761706611826194
 40
0.8860782998347502
 40
0.8956667559173327
 40
0.9049155593713186
 40
0.9138053160371792
 40
0.922317689208433
 40
0.9304354291056768
 40
0.9381425950360048
 40
0.9454246106631397
 40
0.9522684100406392
 40
0.9586625702612378
 40
0.9645977594374817
 40
0.9700669288612601
 40
0.9750658978040939
 40
0.9795943958583813
 40
0.9836571123349841
 40
0.9872659587237052
 40
0.9904433030259444
 40
0.99322721675745
 40
0.9956794098844889
 40
0.9978938319292588
 40
1.0
 40
1.0
 40
1.0
 40
1.0
 10
30.01633889372438
 20
0.0494778403336378
 30
0.0
 10
30.01620936646239
 20
-0.0511607501773355
 30
0.0
 10
30.04478384079843
 20
-0.2576477271727017
 30
0.0
 10
30.17375054039523
 20
-0.5570633885228167
 30
0.0
 10
30.38475781782076
 20
-0.8453424402500906
 30
0.0
 10
30.67523811180151
 20
-1.123731603303832
 30
0.0
 10
31.04424914053227
 20
-1.393206168792197
 30
0.0
 10
31.4912527697653
 20
-1.654022461834932
 30
0.0
 10
32.01559469531954
 20
-1.905883957567597
 30
0.0
 10
32.61634540834584
 20
-2.148220073088515
 30
0.0
 10
33.29231339928351
 20
-2.380310258665669
 30
0.0
 10
34.04205626543293
 20
-2.60137802250075
 30
0.0
 10
34.86392439820138
 20
-2.810592001804552
 30
0.0
 10
35.75605256933292
 20
-3.007194130284946
 30
0.0
 10
36.71641108916349
 20
-3.190378871086843
 30
0.0
 10
37.74278019010447
 20
-3.359481366073183
 30
0.0
 10
38.83279144119886
 20
-3.513809994976016
 30
0.0
 10
39.98390974686281
 20
-3.652845225979038
 30
0.0
 10
41.19346010178582
 20
-3.776092274066334
 30
0.0
 10
42.45862215187861
 20
-3.883208907268943
 30
0.0
 10
43.77644792551084
 20
-3.973947321638116
 30
0.0
 10
45.14386732998985
 20
-4.048154066950786
 30
0.0
 10
46.55768737911638
 20
-4.105841220234793
 30
0.0
 10
48.01460684844957
 20
-4.147108972342449
 30
0.0
 10
49.5112253111983
 20
-4.172168203822594
 30
0.0
 10
51.04405050016904
 20
-4.181372526370104
 30
0.0
 10
52.60950177496327
 20
-4.175149756070595
 30
0.0
 10
54.20392325734142
 20
-4.154033880693414
 30
0.0
 10
55.8235912857162
 20
-4.11864786697442
 30
0.0
 10
57.46472656848385
 20
-4.069699127007746
 30
0.0
 10
59.12349516197326
 20
-4.007928514049089
 30
0.0
 10
60.79602165130532
 20
-3.934153209672116
 30
0.0
 10
62.47840038450369
 20
-3.849229984636137
 30
0.0
 10
64.16670398859688
 20
-3.754031143885815
 30
0.0
 10
65.85698922408017
 20
-3.649456218785776
 30
0.0
 10
67.54530780836843
 20
-3.536407838421885
 30
0.0
 10
69.22771791108988
 20
-3.415785583728697
 30
0.0
 10
70.90028889314277
 20
-3.288504783109772
 30
0.0
 10
72.55911485445827
 20
-3.155426512803828
 30
0.0
 10
74.20031818920123
 20
-3.017429047958623
 30
0.0
 10
75.82007124596923
 20
-2.875356644541959
 30
0.0
 10
77.41458573685021
 20
-2.730033371032482
 30
0.0
 10
78.98014095030682
 20
-2.582281476113262
 30
0.0
 10
80.5130747622664
 20
-2.432858378729467
 30
0.0
 10
82.00981353442708
 20
-2.282545853552438
 30
0.0
 10
83.46685466888431
 20
-2.132079584387492
 30
0.0
 10
84.88079836206953
 20
-1.982204280074639
 30
0.0
 10
86.24833888251669
 20
-1.833653648018224
 30
0.0
 10
87.56628073193276
 20
-1.687097064466841
 30
0.0
 10
88.83155050775812
 20
-1.543283895259173
 30
0.0
 10
90.04119020686197
 20
-1.402886677989647
 30
0.0
 10
91.19237405411509
 20
-1.266599212925923
 30
0.0
 10
92.2824096961091
 20
-1.135096860995322
 30
0.0
 10
93.30875537575815
 20
-1.009073016770261
 30
0.0
 10
94.26901085168086
 20
-0.8891666130413627
 30
0.0
 10
95.160934701866
 20
-0.7760523433015852
 30
0.0
 10
95.98243972128756
 20
-0.6703151970196605
 30
0.0
 10
96.73160939427315
 20
-0.5726031948493028
 30
0.0
 10
97.40670049986406
 20
-0.483462509997011
 30
0.0
 10
98.00610944857563
 20
-0.4033994360433841
 30
0.0
 10
98.52852115220935
 20
-0.3330670753561391
 30
0.0
 10
98.97245962125582
 20
-0.2723886837687208
 30
0.0
 10
99.33761697077932
 20
-0.2232584111653096
 30
0.0
 10
99.6211920491809
 20
-0.1819401936111481
 30
0.0
 10
99.82725364630996
 20
-0.1585563518623788
 30
0.0
 10
99.94564632930252
 20
-0.1331171153233944
 30
0.0
 10
100.0670478191842
 20
-0.1355861713829524
 30
0.0
 10
100.0672921144096
 20
0.0542235009586687
 30
0.0
 10
99.94588467112759
 20
0.0520669530149005
 30
0.0
 10
99.82755786358535
 20
0.0778108602305345
 30
0.0
 10
99.62155714155668
 20
0.1017250482778278
 30
0.0
 10
99.33808935998829
 20
0.1437730803962322
 30
0.0
 10
98.97305968661489
 20
0.193843142848955
 30
0.0
 10
98.52927888076843
 20
0.2556640767405087
 30
0.0
 10
98.00704995062782
 20
0.3273409459344985
 30
0.0
 10
97.40784907835966
 20
0.4089466949942663
 30
0.0
 10
96.73298966665311
 20
0.4998248385433708
 30
0.0
 10
95.98407399642815
 20
0.5994649568741234
 30
0.0
 10
95.16284387696213
 20
0.7073163913592532
 30
0.0
 10
94.27121414950615
 20
0.8227261901832439
 30
0.0
 10
93.3112705063481
 20
0.9451039931347974
 30
0.0
 10
92.28525262534292
 20
1.073769339305149
 30
0.0
 10
91.1955590952411
 20
1.208077119552001
 30
0.0
 10
90.04472987983867
 20
1.347327398855688
 30
0.0
 10
88.83545558517558
 20
1.490837888131459
 30
0.0
 10
87.57056019110591
 20
1.637907515574073
 30
0.0
 10
86.25299995977954
 20
1.787856131612564
 30
0.0
 10
84.88584635462922
 20
1.939926461636253
 30
0.0
 10
83.47229314031765
 20
2.093440906072545
 30
0.0
 10
82.01564414872063
 20
2.24765725065468
 30
0.0
 10
80.51929725518595
 20
2.401822037565414
 30
0.0
 10
78.9867531522881
 20
2.555190569389081
 30
0.0
 10
77.42158345412099
 20
2.706971875131397
 30
0.0
 10
75.82744832295025
 20
2.85639911167207
 30
0.0
 10
74.2080663414337
 20
3.002640455557529
 30
0.0
 10
72.5672236636957
 20
3.144862089596102
 30
0.0
 10
70.90874575525572
 20
3.282209907848163
 30
0.0
 10
69.23650794833182
 20
3.413795656718993
 30
0.0
 10
67.5544139135536
 20
3.538748208633653
 30
0.0
 10
65.86639192085103
 20
3.656142120351281
 30
0.0
 10
64.1763814719225
 20
3.765067667240363
 30
0.0
 10
62.48832851281246
 20
3.864612059919541
 30
0.0
 10
60.80617395447505
 20
3.953865619699791
 30
0.0
 10
59.13384291146775
 20
4.031945935063992
 30
0.0
 10
57.47523881741117
 20
4.097986184540952
 30
0.0
 10
55.83423497083574
 20
4.151159213547388
 30
0.0
 10
54.21466339567801
 20
4.190714302316259
 30
0.0
 10
52.62030155006939
 20
4.215934312811341
 30
0.0
 10
51.0548714796801
 20
4.226186695272329
 30
0.0
 10
49.52202767609829
 20
4.220928053091928
 30
0.0
 10
48.02534966661714
 20
4.1997213546648
 30
0.0
 10
46.56832879662723
 20
4.162204000012225
 30
0.0
 10
45.15436493882598
 20
4.108156356235313
 30
0.0
 10
43.78675904881554
 20
4.03746973512204
 30
0.0
 10
42.46870407112932
 20
3.950123840609308
 30
0.0
 10
41.20327048328543
 20
3.846264219677094
 30
0.0
 10
39.99340688502043
 20
3.726131087070627
 30
0.0
 10
38.84193450202003
 20
3.590059413743214
 30
0.0
 10
37.75152960436004
 20
3.438537097332425
 30
0.0
 10
36.7247286165539
 20
3.272077142336275
 30
0.0
 10
35.76390174201373
 20
3.091365070146205
 30
0.0
 10
34.87127045238741
 20
2.897060022786258
 30
0.0
 10
34.04886650414939
 20
2.689962309812574
 30
0.0
 10
33.29855707071677
 20
2.470825193716193
 30
0.0
 10
32.62199389523058
 20
2.240475788269658
 30
0.0
 10
32.02062137438154
 20
1.999686869805651
 30
0.0
 10
31.49563286855212
 20
1.749175918600715
 30
0.0
 10
31.0479593522511
 20
1.489511123014694
 30
0.0
 10
30.67825589077737
 20
1.220987322683298
 30
0.0
 10
30.38705995678857
 20
0.9433468081229966
 30
0.0
 10
30.17531131846839
 20
0.6556118659264358
 30
0.0
 10
30.0455743193959
 20
0.3565291701075683
 30
0.0
 10
30.01646842098636
 20
0.1501164308446111
 30
0.0
 10
30.01633889372438
 20
0.0494778403336378
 30
0.0
  0
ARC
  5
71
330
1F
100
AcDbEntity
  8
0
  6
Continuous
 62
     7
370
    25
100
AcDbCircle
 10
56.2740599957
 20
0.0007572441
 30
0.0
 40
2.8
100
AcDbArc
 50
90.0
 51
270.0
  0
LINE
  5
72
330
1F
100
AcDbEntity
  8
0
  6
Continuous
 62
     7
370
    25
100
AcDbLine
 10
64.9545136933
 20
2.8007572441
 30
0.0
 11
56.2740599957
 21
2.8007572441
 31
0.0
  0
ARC
  5
73
330
1F
100
AcDbEntity
  8
0
  6
Continuous
 62
     7
370
    25
100
AcDbCircle
 10
64.9545136933
 20
0.0007572441
 30
0.0
 40
2.799999999999999
100
AcDbArc
 50
270.0
 51
90.0
  0
LINE
  5
74
330
1F
100
AcDbEntity
  8
0
  6
Continuous
 62
     7
370
    25
100
AcDbLine
 10
56.2740599957
 20
-2.7992427559
 30
0.0
 11
64.9545136933
 21
-2.7992427559
 31
0.0
  0
ENDSEC
  0
SECTION
  2
OBJECTS
  0
DICTIONARY
  5
C
330
0
100
AcDbDictionary
281
     1
  3
ACAD_GROUP
350
D
  3
ACAD_LAYOUT
350
1A
  3
ACAD_MLINESTYLE
350
17
  3
ACAD_PLOTSETTINGS
350
19
  3
ACAD_PLOTSTYLENAME
350
E
  3
ACAD_SCALELIST
350
47
  3
DWGPROPS
350
75
  0
DICTIONARY
  5
D
102
{ACAD_REACTORS
330
C
102
}
330
C
100
AcDbDictionary
281
     1
  0
DICTIONARY
  5
1A
102
{ACAD_REACTORS
330
C
102
}
330
C
100
AcDbDictionary
281
     1
  3
Layout1
350
1E
  3
Layout2
350
26
  3
Model
350
22
  0
DICTIONARY
  5
17
102
{ACAD_REACTORS
330
C
102
}
330
C
100
AcDbDictionary
281
     1
  3
Standard
350
18
  0
DICTIONARY
  5
19
102
{ACAD_REACTORS
330
C
102
}
330
C
100
AcDbDictionary
281
     1
  0
ACDBDICTIONARYWDFLT
  5
E
102
{ACAD_REACTORS
330
C
102
}
330
C
100
AcDbDictionary
281
     1
  3
Normal
350
F
100
AcDbDictionaryWithDefault
340
F
  0
DICTIONARY
  5
47
102
{ACAD_REACTORS
330
C
102
}
330
C
100
AcDbDictionary
281
     1
  3
A0
350
48
  3
A1
350
49
  3
A2
350
4A
  3
A3
350
4B
  3
A4
350
4C
  3
A5
350
4D
  3
A6
350
4E
  3
A7
350
4F
  3
A8
350
50
  3
A9
350
51
  3
B0
350
52
  3
B1
350
53
  3
B2
350
54
  3
B3
350
55
  3
B4
350
56
  3
B5
350
57
  3
B6
350
58
  0
XRECORD
  5
75
102
{ACAD_REACTORS
330
C
102
}
330
C
100
AcDbXrecord
280
     1
  1
DWGPROPS COOKIE
  2

  3

  4

  6

  7

  8
mahmo
  9

300
=
301
=
302
=
303
=
304
=
305
=
306
=
307
=
308
=
309
=
 40
0.0
 41
2461297.312923461
 42
2461297.313019908
  1

 90
        0
  0
LAYOUT
  5
1E
102
{ACAD_REACTORS
330
1A
102
}
330
1A
100
AcDbPlotSettings
  1

  2
none_device
  4

  6

 40
0.0
 41
0.0
 42
0.0
 43
0.0
 44
0.0
 45
0.0
 46
0.0
 47
0.0
 48
0.0
 49
0.0
140
0.0
141
0.0
142
1.0
143
1.0
 70
   688
 72
     1
 73
     0
 74
     5
  7

 75
    16
147
1.0
148
0.0
149
0.0
100
AcDbLayout
  1
Layout1
 70
     1
 71
     1
 10
0.0
 20
0.0
 11
420.0
 21
297.0
 12
0.0
 22
0.0
 32
0.0
 14
1.0000000000E+20
 24
1.0000000000E+20
 34
1.0000000000E+20
 15
-1.0000000000E+20
 25
-1.0000000000E+20
 35
-1.0000000000E+20
146
0.0
 13
0.0
 23
0.0
 33
0.0
 16
1.0
 26
0.0
 36
0.0
 17
0.0
 27
1.0
 37
0.0
 76
     0
330
1B
  0
LAYOUT
  5
26
102
{ACAD_REACTORS
330
1A
102
}
330
1A
100
AcDbPlotSettings
  1

  2
none_device
  4

  6

 40
0.0
 41
0.0
 42
0.0
 43
0.0
 44
0.0
 45
0.0
 46
0.0
 47
0.0
 48
0.0
 49
0.0
140
0.0
141
0.0
142
1.0
143
1.0
 70
   688
 72
     1
 73
     0
 74
     5
  7

 75
    16
147
1.0
148
0.0
149
0.0
100
AcDbLayout
  1
Layout2
 70
     1
 71
     2
 10
0.0
 20
0.0
 11
0.0
 21
0.0
 12
0.0
 22
0.0
 32
0.0
 14
0.0
 24
0.0
 34
0.0
 15
0.0
 25
0.0
 35
0.0
146
0.0
 13
0.0
 23
0.0
 33
0.0
 16
1.0
 26
0.0
 36
0.0
 17
0.0
 27
1.0
 37
0.0
 76
     0
330
23
  0
LAYOUT
  5
22
102
{ACAD_REACTORS
330
1A
102
}
330
1A
100
AcDbPlotSettings
  1

  2
none_device
  4
ANSI_A_(11.00_x_8.50_Inches)
  6

 40
6.35
 41
19.05
 42
6.35000508
 43
19.05000254
 44
279.4
 45
215.9
 46
-123.4984347876
 47
88.8152486274
 48
0.0
 49
0.0
140
0.0
141
0.0
142
0.1554867507
143
1.0
 70
  1696
 72
     0
 73
     0
 74
     0
  7

 75
     0
147
0.0179189148
148
-1300.4909072572
149
0.0
100
AcDbLayout
  1
Model
 70
     1
 71
     0
 10
0.0
 20
0.0
 11
420.0
 21
297.0
 12
0.0
 22
0.0
 32
0.0
 14
30.0163388937
 24
-4.1210911479
 34
0.0
 15
100.0544608072
 25
4.1640095085
 35
0.0
146
0.0
 13
0.0
 23
0.0
 33
0.0
 16
1.0
 26
0.0
 36
0.0
 17
0.0
 27
1.0
 37
0.0
 76
     0
330
1F
331
29
  0
MLINESTYLE
  5
18
102
{ACAD_REACTORS
330
17
102
}
330
17
100
AcDbMlineStyle
  2
Standard
 70
     0
  3

 62
   256
 51
90.0
 52
90.0
 71
     2
 49
0.5
 62
   256
  6
BYLAYER
 49
-0.5
 62
   256
  6
BYLAYER
  0
ACDBPLACEHOLDER
  5
F
102
{ACAD_REACTORS
330
E
102
}
330
E
  0
SCALE
  5
48
102
{ACAD_REACTORS
330
47
102
}
330
47
100
AcDbScale
 70
     0
300
1:1
140
1.0
141
1.0
290
     1
  0
SCALE
  5
49
102
{ACAD_REACTORS
330
47
102
}
330
47
100
AcDbScale
 70
     0
300
1:2
140
1.0
141
2.0
290
     0
  0
SCALE
  5
4A
102
{ACAD_REACTORS
330
47
102
}
330
47
100
AcDbScale
 70
     0
300
1:4
140
1.0
141
4.0
290
     0
  0
SCALE
  5
4B
102
{ACAD_REACTORS
330
47
102
}
330
47
100
AcDbScale
 70
     0
300
1:5
140
1.0
141
5.0
290
     0
  0
SCALE
  5
4C
102
{ACAD_REACTORS
330
47
102
}
330
47
100
AcDbScale
 70
     0
300
1:8
140
1.0
141
8.0
290
     0
  0
SCALE
  5
4D
102
{ACAD_REACTORS
330
47
102
}
330
47
100
AcDbScale
 70
     0
300
1:10
140
1.0
141
10.0
290
     0
  0
SCALE
  5
4E
102
{ACAD_REACTORS
330
47
102
}
330
47
100
AcDbScale
 70
     0
300
1:16
140
1.0
141
16.0
290
     0
  0
SCALE
  5
4F
102
{ACAD_REACTORS
330
47
102
}
330
47
100
AcDbScale
 70
     0
300
1:20
140
1.0
141
20.0
290
     0
  0
SCALE
  5
50
102
{ACAD_REACTORS
330
47
102
}
330
47
100
AcDbScale
 70
     0
300
1:30
140
1.0
141
30.0
290
     0
  0
SCALE
  5
51
102
{ACAD_REACTORS
330
47
102
}
330
47
100
AcDbScale
 70
     0
300
1:40
140
1.0
141
40.0
290
     0
  0
SCALE
  5
52
102
{ACAD_REACTORS
330
47
102
}
330
47
100
AcDbScale
 70
     0
300
1:50
140
1.0
141
50.0
290
     0
  0
SCALE
  5
53
102
{ACAD_REACTORS
330
47
102
}
330
47
100
AcDbScale
 70
     0
300
1:100
140
1.0
141
100.0
290
     0
  0
SCALE
  5
54
102
{ACAD_REACTORS
330
47
102
}
330
47
100
AcDbScale
 70
     0
300
2:1
140
2.0
141
1.0
290
     0
  0
SCALE
  5
55
102
{ACAD_REACTORS
330
47
102
}
330
47
100
AcDbScale
 70
     0
300
4:1
140
4.0
141
1.0
290
     0
  0
SCALE
  5
56
102
{ACAD_REACTORS
330
47
102
}
330
47
100
AcDbScale
 70
     0
300
8:1
140
8.0
141
1.0
290
     0
  0
SCALE
  5
57
102
{ACAD_REACTORS
330
47
102
}
330
47
100
AcDbScale
 70
     0
300
10:1
140
10.0
141
1.0
290
     0
  0
SCALE
  5
58
102
{ACAD_REACTORS
330
47
102
}
330
47
100
AcDbScale
 70
     0
300
100:1
140
100.0
141
1.0
290
     0
  0
ENDSEC
  0
EOF
