  0
SECTION
  2
HEADER
  9
$ACADVER
  1
AC1015
  9
$ACADMAINTVER
 70
     6
  9
$DWGCODEPAGE
  3
ANSI_1252
  9
$INSBASE
 10
0.0
 20
0.0
 30
0.0
  9
$EXTMIN
 10
20.0108935663
 20
-4.7287029885
 30
0.0
  9
$EXTMAX
 10
100.0544683654
 20
4.7286248217
 30
0.0
  9
$LIMMIN
 10
0.0
 20
0.0
  9
$LIMMAX
 10
420.0
 20
297.0
  9
$ORTHOMODE
 70
     0
  9
$REGENMODE
 70
     1
  9
$FILLMODE
 70
     1
  9
$QTEXTMODE
 70
     0
  9
$MIRRTEXT
 70
     1
  9
$LTSCALE
 40
1.0
  9
$ATTMODE
 70
     1
  9
$TEXTSIZE
 40
3.5
  9
$TRACEWID
 40
1.0
  9
$TEXTSTYLE
  7
Standard
  9
$CLAYER
  8
0
  9
$CELTYPE
  6
ByLayer
  9
$CECOLOR
 62
   256
  9
$CELTSCALE
 40
1.0
  9
$DISPSILH
 70
     0
  9
$DIMSCALE
 40
1.0
  9
$DIMASZ
 40
3.302
  9
$DIMEXO
 40
0.0
  9
$DIMDLI
 40
3.75
  9
$DIMRND
 40
0.0
  9
$DIMDLE
 40
0.0
  9
$DIMEXE
 40
1.0
  9
$DIMTP
 40
0.0
  9
$DIMTM
 40
0.0
  9
$DIMTXT
 40
3.5
  9
$DIMCEN
 40
2.5
  9
$DIMTSZ
 40
0.0
  9
$DIMTOL
 70
     0
  9
$DIMLIM
 70
     0
  9
$DIMTIH
 70
     1
  9
$DIMTOH
 70
     1
  9
$DIMSE1
 70
     0
  9
$DIMSE2
 70
     0
  9
$DIMTAD
 70
     1
  9
$DIMZIN
 70
     1
  9
$DIMBLK
  1

  9
$DIMASO
 70
     1
  9
$DIMSHO
 70
     1
  9
$DIMPOST
  1

  9
$DIMAPOST
  1

  9
$DIMALT
 70
     0
  9
$DIMALTD
 70
     3
  9
$DIMALTF
 40
0.0393700787
  9
$DIMLFAC
 40
1.0
  9
$DIMTOFL
 70
     1
  9
$DIMTVP
 40
0.0
  9
$DIMTIX
 70
     0
  9
$DIMSOXD
 70
     0
  9
$DIMSAH
 70
     0
  9
$DIMBLK1
  1

  9
$DIMBLK2
  1

  9
$DIMSTYLE
  2
ISO-25
  9
$DIMCLRD
 70
     0
  9
$DIMCLRE
 70
     0
  9
$DIMCLRT
 70
     0
  9
$DIMTFAC
 40
1.0
  9
$DIMGAP
 40
1.524
  9
$DIMJUST
 70
     0
  9
$DIMSD1
 70
     0
  9
$DIMSD2
 70
     0
  9
$DIMTOLJ
 70
     0
  9
$DIMTZIN
 70
     1
  9
$DIMALTZ
 70
     0
  9
$DIMALTTZ
 70
     0
  9
$DIMUPT
 70
     0
  9
$DIMDEC
 70
     2
  9
$DIMTDEC
 70
     2
  9
$DIMALTU
 70
     2
  9
$DIMALTTD
 70
     3
  9
$DIMTXSTY
  7
Standard
  9
$DIMAUNIT
 70
     0
  9
$DIMADEC
 70
     2
  9
$DIMALTRND
 40
0.0
  9
$DIMAZIN
 70
     0
  9
$DIMDSEP
 70
    44
  9
$DIMATFIT
 70
     3
  9
$DIMFRAC
 70
     0
  9
$DIMLDRBLK
  1

  9
$DIMLUNIT
 70
     2
  9
$DIMLWD
 70
    -2
  9
$DIMLWE
 70
    -2
  9
$DIMTMOVE
 70
     0
  9
$LUNITS
 70
     2
  9
$LUPREC
 70
     2
  9
$SKETCHINC
 40
1.0
  9
$FILLETRAD
 40
0.0
  9
$AUNITS
 70
     0
  9
$AUPREC
 70
     2
  9
$MENU
  1
.
  9
$ELEVATION
 40
0.0
  9
$PELEVATION
 40
0.0
  9
$THICKNESS
 40
0.0
  9
$LIMCHECK
 70
     0
  9
$CHAMFERA
 40
0.0
  9
$CHAMFERB
 40
0.0
  9
$CHAMFERC
 40
0.0
  9
$CHAMFERD
 40
0.0
  9
$SKPOLY
 70
     0
  9
$TDCREATE
 40
2461297.437923449
  9
$TDUCREATE
 40
2461297.312923449
  9
$TDUPDATE
 40
2461297.438019804
  9
$TDUUPDATE
 40
2461297.313019804
  9
$TDINDWG
 40
0.0000000116
  9
$TDUSRTIMER
 40
0.0000000116
  9
$USRTIMER
 70
     1
  9
$ANGBASE
 50
0.0
  9
$ANGDIR
 70
     0
  9
$PDMODE
 70
     0
  9
$PDSIZE
 40
-1.0
  9
$PLINEWID
 40
0.0
  9
$SPLFRAME
 70
     0
  9
$SPLINETYPE
 70
     6
  9
$SPLINESEGS
 70
     8
  9
$HANDSEED
  5
75
  9
$SURFTAB1
 70
     6
  9
$SURFTAB2
 70
     6
  9
$SURFTYPE
 70
     6
  9
$SURFU
 70
     6
  9
$SURFV
 70
     6
  9
$UCSBASE
  2

  9
$UCSNAME
  2

  9
$UCSORG
 10
0.0
 20
0.0
 30
0.0
  9
$UCSXDIR
 10
1.0
 20
0.0
 30
0.0
  9
$UCSYDIR
 10
0.0
 20
1.0
 30
0.0
  9
$UCSORTHOREF
  2

  9
$UCSORTHOVIEW
 70
     0
  9
$UCSORGTOP
 10
0.0
 20
0.0
 30
0.0
  9
$UCSORGBOTTOM
 10
0.0
 20
0.0
 30
0.0
  9
$UCSORGLEFT
 10
0.0
 20
0.0
 30
0.0
  9
$UCSORGRIGHT
 10
0.0
 20
0.0
 30
0.0
  9
$UCSORGFRONT
 10
0.0
 20
0.0
 30
0.0
  9
$UCSORGBACK
 10
0.0
 20
0.0
 30
0.0
  9
$PUCSBASE
  2

  9
$PUCSNAME
  2

  9
$PUCSORG
 10
0.0
 20
0.0
 30
0.0
  9
$PUCSXDIR
 10
1.0
 20
0.0
 30
0.0
  9
$PUCSYDIR
 10
0.0
 20
1.0
 30
0.0
  9
$PUCSORTHOREF
  2

  9
$PUCSORTHOVIEW
 70
     0
  9
$PUCSORGTOP
 10
0.0
 20
0.0
 30
0.0
  9
$PUCSORGBOTTOM
 10
0.0
 20
0.0
 30
0.0
  9
$PUCSORGLEFT
 10
0.0
 20
0.0
 30
0.0
  9
$PUCSORGRIGHT
 10
0.0
 20
0.0
 30
0.0
  9
$PUCSORGFRONT
 10
0.0
 20
0.0
 30
0.0
  9
$PUCSORGBACK
 10
0.0
 20
0.0
 30
0.0
  9
$USERI1
 70
     0
  9
$USERI2
 70
     0
  9
$USERI3
 70
     0
  9
$USERI4
 70
     0
  9
$USERI5
 70
     0
  9
$USERR1
 40
0.0
  9
$USERR2
 40
0.0
  9
$USERR3
 40
0.0
  9
$USERR4
 40
0.0
  9
$USERR5
 40
0.0
  9
$WORLDVIEW
 70
     1
  9
$SHADEDGE
 70
     3
  9
$SHADEDIF
 70
    70
  9
$TILEMODE
 70
     1
  9
$MAXACTVP
 70
    64
  9
$PINSBASE
 10
0.0
 20
0.0
 30
0.0
  9
$PLIMCHECK
 70
     0
  9
$PEXTMIN
 10
1.0000000000E+20
 20
1.0000000000E+20
 30
1.0000000000E+20
  9
$PEXTMAX
 10
-1.0000000000E+20
 20
-1.0000000000E+20
 30
-1.0000000000E+20
  9
$PLIMMIN
 10
0.0
 20
0.0
  9
$PLIMMAX
 10
420.0
 20
297.0
  9
$UNITMODE
 70
     0
  9
$VISRETAIN
 70
     1
  9
$PLINEGEN
 70
     0
  9
$PSLTSCALE
 70
     1
  9
$TREEDEPTH
 70
  3020
  9
$CMLSTYLE
  2
Standard
  9
$CMLJUST
 70
     0
  9
$CMLSCALE
 40
20.0
  9
$PROXYGRAPHICS
 70
     1
  9
$MEASUREMENT
 70
     1
  9
$CELWEIGHT
370
    -1
  9
$ENDCAPS
280
     0
  9
$JOINSTYLE
280
     0
  9
$LWDISPLAY
290
     1
  9
$INSUNITS
 70
     4
  9
$HYPERLINKBASE
  1

  9
$STYLESHEET
  1

  9
$XEDIT
290
     1
  9
$CEPSNTYPE
380
     0
  9
$PSTYLEMODE
290
     1
  9
$FINGERPRINTGUID
  2
{c0bcdf8d-890e-4caa-b427-0ff1f4805beb}
  9
$VERSIONGUID
  2
{FAEB1C32-E019-11D5-929B-00C0DF256EC4}
  9
$EXTNAMES
290
     1
  9
$PSVPSCALE
 40
0.0
  9
$OLESTARTUP
290
     0
  0
ENDSEC
  0
SECTION
  2
CLASSES
  0
CLASS
  1
ACDBDICTIONARYWDFLT
  2
AcDbDictionaryWithDefault
  3
ObjectDBX Classes
 90
        0
280
     0
281
     0
  0
CLASS
  1
VISUALSTYLE
  2
AcDbVisualStyle
  3
ObjectDBX Classes
 90
     4095
280
     0
281
     0
  0
CLASS
  1
MATERIAL
  2
AcDbMaterial
  3
ObjectDBX Classes
 90
     1153
280
     0
281
     0
  0
CLASS
  1
SCALE
  2
AcDbScale
  3
ObjectDBX Classes
 90
     1153
280
     0
281
     0
  0
CLASS
  1
TABLESTYLE
  2
AcDbTableStyle
  3
ObjectDBX Classes
 90
     4095
280
     0
281
     0
  0
CLASS
  1
MLEADERSTYLE
  2
AcDbMLeaderStyle
  3
ACDB_MLEADERSTYLE_CLASS
 90
     4095
280
     0
281
     0
  0
CLASS
  1
SUN
  2
AcDbSun
  3
SCENEOE
 90
     1153
280
     0
281
     0
  0
CLASS
  1
ACDBPLACEHOLDER
  2
AcDbPlaceHolder
  3
ObjectDBX Classes
 90
        0
280
     0
281
     0
  0
CLASS
  1
LAYOUT
  2
AcDbLayout
  3
ObjectDBX Classes
 90
        0
280
     0
281
     0
  0
ENDSEC
  0
SECTION
  2
TABLES
  0
TABLE
  2
VPORT
  5
8
330
0
100
AcDbSymbolTable
 70
     1
  0
VPORT
  5
29
330
8
100
AcDbSymbolTableRecord
100
AcDbViewportTableRecord
  2
*Active
 70
     0
 10
0.0
 20
0.0
 11
1.0
 21
1.0
 12
60.0326809658
 22
-0.0000390834
 13
0.0
 23
0.0
 14
10.0
 24
10.0
 15
10.0
 25
10.0
 16
0.0
 26
0.0
 36
1.0
 17
0.0
 27
0.0
 37
0.0
 40
9.6464743664
 41
8.4636565852
 42
50.0
 43
0.0
 44
0.0
 50
0.0
 51
0.0
 71
     0
 72
   100
 73
     1
 74
     3
 75
     0
 76
     0
 77
     0
 78
     0
281
     0
 65
     1
110
0.0
120
0.0
130
0.0
111
1.0
121
0.0
131
0.0
112
0.0
122
1.0
132
0.0
 79
     0
146
0.0
  0
ENDTAB
  0
TABLE
  2
LTYPE
  5
5
330
0
100
AcDbSymbolTable
 70
     6
  0
LTYPE
  5
14
330
5
100
AcDbSymbolTableRecord
100
AcDbLinetypeTableRecord
  2
ByBlock
 70
     0
  3

 72
    65
 73
     0
 40
0.0
  0
LTYPE
  5
15
330
5
100
AcDbSymbolTableRecord
100
AcDbLinetypeTableRecord
  2
ByLayer
 70
     0
  3

 72
    65
 73
     0
 40
0.0
  0
LTYPE
  5
16
330
5
100
AcDbSymbolTableRecord
100
AcDbLinetypeTableRecord
  2
Continuous
 70
     0
  3
Solid line
 72
    65
 73
     0
 40
0.0
  0
LTYPE
  5
5E
330
5
100
AcDbSymbolTableRecord
100
AcDbLinetypeTableRecord
  2
HIDDEN
 70
     0
  3
Hidden __ __ __ __ __ __ __ __ __ __ __ __ __ __
 72
    65
 73
     2
 40
1.905
 49
1.27
 74
     0
 49
-0.635
 74
     0
  0
LTYPE
  5
5F
330
5
100
AcDbSymbolTableRecord
100
AcDbLinetypeTableRecord
  2
PHANTOM
 70
     0
  3
Phantom ______  __  __  ______  __  __  ______
 72
    65
 73
     6
 40
12.7
 49
6.35
 74
     0
 49
-1.27
 74
     0
 49
1.27
 74
     0
 49
-1.27
 74
     0
 49
1.27
 74
     0
 49
-1.27
 74
     0
  0
LTYPE
  5
60
330
5
100
AcDbSymbolTableRecord
100
AcDbLinetypeTableRecord
  2
CENTER
 70
     0
  3
Center ____ _ ____ _ ____ _ ____ _ ____ _ ____
 72
    65
 73
     4
 40
10.16
 49
6.35
 74
     0
 49
-1.27
 74
     0
 49
1.27
 74
     0
 49
-1.27
 74
     0
  0
LTYPE
  5
61
330
5
100
AcDbSymbolTableRecord
100
AcDbLinetypeTableRecord
  2
CENTERX2
 70
     0
  3
Center (2x) ________  __  ________  __  _____
 72
    65
 73
     4
 40
20.32
 49
12.7
 74
     0
 49
-2.54
 74
     0
 49
2.54
 74
     0
 49
-2.54
 74
     0
  0
LTYPE
  5
62
330
5
100
AcDbSymbolTableRecord
100
AcDbLinetypeTableRecord
  2
DOT2
 70
     0
  3
Dot (.5x) ........................................
 72
    65
 73
     2
 40
0.635
 49
0.0
 74
     0
 49
-0.635
 74
     0
  0
ENDTAB
  0
TABLE
  2
LAYER
  5
2
330
0
100
AcDbSymbolTable
 70
     1
  0
LAYER
  5
10
330
2
100
AcDbSymbolTableRecord
100
AcDbLayerTableRecord
  2
0
 70
     0
 62
     7
  6
Continuous
370
    -3
390
F
  0
ENDTAB
  0
TABLE
  2
STYLE
  5
3
330
0
100
AcDbSymbolTable
 70
     1
  0
STYLE
  5
11
330
3
100
AcDbSymbolTableRecord
100
AcDbTextStyleTableRecord
  2
Standard
 70
     0
 40
0.0
 41
1.0
 50
0.0
 71
     0
 42
3.5
  3
txt
  4

  0
ENDTAB
  0
TABLE
  2
VIEW
  5
6
330
0
100
AcDbSymbolTable
 70
     0
  0
ENDTAB
  0
TABLE
  2
UCS
  5
7
330
0
100
AcDbSymbolTable
 70
     0
  0
ENDTAB
  0
TABLE
  2
APPID
  5
9
330
0
100
AcDbSymbolTable
 70
     1
  0
APPID
  5
12
330
9
100
AcDbSymbolTableRecord
100
AcDbRegAppTableRecord
  2
ACAD
 70
     0
  0
ENDTAB
  0
TABLE
  2
DIMSTYLE
  5
A
330
0
100
AcDbSymbolTable
 70
     1
100
AcDbDimStyleTable
  0
DIMSTYLE
105
27
330
A
100
AcDbSymbolTableRecord
100
AcDbDimStyleTableRecord
  2
ISO-25
 70
     0
 41
2.5
 42
0.625
 43
3.75
 44
1.25
 73
     0
 74
     0
 77
     1
 78
     8
140
2.5
141
2.5
143
0.0393700787
147
0.625
171
     3
172
     1
178
     0
271
     2
272
     2
274
     3
278
    44
283
     0
284
     8
340
11
  0
ENDTAB
  0
TABLE
  2
BLOCK_RECORD
  5
1
330
0
100
AcDbSymbolTable
 70
     1
  0
BLOCK_RECORD
  5
1F
330
1
100
AcDbSymbolTableRecord
100
AcDbBlockTableRecord
  2
*Model_Space
340
22
  0
BLOCK_RECORD
  5
1B
330
1
100
AcDbSymbolTableRecord
100
AcDbBlockTableRecord
  2
*Paper_Space
340
1E
  0
BLOCK_RECORD
  5
23
330
1
100
AcDbSymbolTableRecord
100
AcDbBlockTableRecord
  2
*Paper_Space0
340
26
  0
ENDTAB
  0
ENDSEC
  0
SECTION
  2
BLOCKS
  0
BLOCK
  5
20
330
1F
100
AcDbEntity
  8
0
100
AcDbBlockBegin
  2
*Model_Space
 70
     0
 10
0.0
 20
0.0
 30
0.0
  3
*Model_Space
  1

  0
ENDBLK
  5
21
330
1F
100
AcDbEntity
  8
0
100
AcDbBlockEnd
  0
BLOCK
  5
1C
330
1B
100
AcDbEntity
 67
     1
  8
0
100
AcDbBlockBegin
  2
*Paper_Space
 70
     0
 10
0.0
 20
0.0
 30
0.0
  3
*Paper_Space
  1

  0
ENDBLK
  5
1D
330
1B
100
AcDbEntity
 67
     1
  8
0
100
AcDbBlockEnd
  0
BLOCK
  5
24
330
23
100
AcDbEntity
  8
0
100
AcDbBlockBegin
  2
*Paper_Space0
 70
     0
 10
0.0
 20
0.0
 30
0.0
  3
*Paper_Space0
  1

  0
ENDBLK
  5
25
330
23
100
AcDbEntity
  8
0
100
AcDbBlockEnd
  0
ENDSEC
  0
SECTION
  2
ENTITIES
  0
LINE
  5
63
330
1F
100
AcDbEntity
  8
0
  6
Continuous
 62
     7
370
    25
100
AcDbLine
 10
48.7217899131
 20
1.9992800674
 30
0.0
 11
51.7217899131
 21
1.9992800674
 31
0.0
  0
LINE
  5
64
330
1F
100
AcDbEntity
  8
0
  6
Continuous
 62
     7
370
    25
100
AcDbLine
 10
51.7217899131
 20
1.9992800674
 30
0.0
 11
51.7217899131
 21
-2.0007199326
 31
0.0
  0
LINE
  5
65
330
1F
100
AcDbEntity
  8
0
  6
Continuous
 62
     7
370
    25
100
AcDbLine
 10
51.7217899131
 20
-2.0007199326
 30
0.0
 11
48.7217899131
 21
-2.0007199326
 31
0.0
  0
LINE
  5
66
330
1F
100
AcDbEntity
  8
0
  6
Continuous
 62
     7
370
    25
100
AcDbLine
 10
48.7217899131
 20
-2.0007199326
 30
0.0
 11
48.7217899131
 21
1.9992800674
 31
0.0
  0
LINE
  5
67
330
1F
100
AcDbEntity
  8
0
  6
Continuous
 62
     7
370
    25
100
AcDbLine
 10
69.5843821299
 20
1.9989717933
 30
0.0
 11
72.5843821299
 21
1.9989717933
 31
0.0
  0
LINE
  5
68
330
1F
100
AcDbEntity
  8
0
  6
Continuous
 62
     7
370
    25
100
AcDbLine
 10
72.5843821299
 20
1.9989717933
 30
0.0
 11
72.5843821299
 21
-2.0010282067
 31
0.0
  0
LINE
  5
69
330
1F
100
AcDbEntity
  8
0
  6
Continuous
 62
     7
370
    25
100
AcDbLine
 10
72.5843821299
 20
-2.0010282067
 30
0.0
 11
69.5843821299
 21
-2.0010282067
 31
0.0
  0
LINE
  5
6A
330
1F
100
AcDbEntity
  8
0
  6
Continuous
 62
     7
370
    25
100
AcDbLine
 10
69.5843821299
 20
-2.0010282067
 30
0.0
 11
69.5843821299
 21
1.9989717933
 31
0.0
  0
ARC
  5
6B
330
1F
100
AcDbEntity
  8
0
  6
Continuous
 62
     7
370
    25
100
AcDbCircle
 10
63.4031693119
 20
0.0003242898
 30
0.0
 40
2.664546128908497
100
AcDbArc
 50
270.0004281969
 51
90.0004281969
  0
LINE
  5
6C
330
1F
100
AcDbEntity
  8
0
  6
Continuous
 62
     7
370
    25
100
AcDbLine
 10
56.6622112723
 20
-2.6642722173
 30
0.0
 11
63.4031892253
 21
-2.664221839
 31
0.0
  0
ARC
  5
6D
330
1F
100
AcDbEntity
  8
0
  6
Continuous
 62
     7
370
    25
100
AcDbCircle
 10
56.6621913589
 20
0.0002739115
 30
0.0
 40
2.664546128908496
100
AcDbArc
 50
90.0004281969
 51
270.0004281969
  0
LINE
  5
6E
330
1F
100
AcDbEntity
  8
0
  6
Continuous
 62
     7
370
    25
100
AcDbLine
 10
63.4031493986
 20
2.6648704187
 30
0.0
 11
56.6621714456
 21
2.6648200403
 31
0.0
  0
SPLINE
  5
6F
330
1F
100
AcDbEntity
  8
0
  6
Continuous
 62
     7
370
    25
100
AcDbSpline
210
0.0
220
0.0
230
1.0
 70
    11
 71
     3
 72
   138
 73
   134
 74
     0
 42
0.00000001
 43
0.00000001
 40
0.0
 40
0.0
 40
0.0
 40
0.0
 40
0.0021061680707412
 40
0.0043205901155111
 40
0.00677278324255
 40
0.0095566969740557
 40
0.0127340412762951
 40
0.016342887665016
 40
0.0204056041416188
 40
0.0249341021959062
 40
0.0299330711387399
 40
0.0354022405625184
 40
0.0413374297387623
 40
0.0477315899593609
 40
0.0545753893368606
 40
0.0618574049639954
 40
0.0695645708943233
 40
0.0776823107915671
 40
0.0861946839628209
 40
0.0950844406286816
 40
0.1043332440826675
 40
0.1139217001652501
 40
0.1238293388173807
 40
0.1340347075877426
 40
0.1445155308376062
 40
0.1552487162444546
 40
0.1662103559114239
 40
0.1773757827851012
 40
0.1887198210860831
 40
0.2002166471905668
 40
0.2118399506598019
 40
0.223562989450439
 40
0.2353586527269131
 40
0.2471996247425814
 40
0.2590583952397627
 40
0.2709072260003518
 40
0.2827184568406497
 40
0.294464514017973
 40
0.3061176891751031
 40
0.3176507706404048
 40
0.3290366181378914
 40
0.3402485103878132
 40
0.3512599991079841
 40
0.3620452732879947
 40
0.3725788910118388
 40
0.3828361423787241
 40
0.3927927394522929
 40
0.4024253201575171
 40
0.4117111148153431
 40
0.4206282443910386
 40
0.4291556726786626
 40
0.4372731794892729
 40
0.4449615609568891
 40
0.4522025749754582
 40
0.4589790625951323
 40
0.4652748756520636
 40
0.4710749628198788
 40
0.4763655692602005
 40
0.4811339605823388
 40
0.4853687677728626
 40
0.4890597841785489
 40
0.4921981479581782
 40
0.494776266124308
 40
0.4967880100265546
 40
0.4982284254079303
 40
0.4990940729269256
 40
0.4993828620531811
 40
0.5006171379468192
 40
0.5009059270730747
 40
0.5017715745920699
 40
0.5032119899734457
 40
0.5052237338756922
 40
0.5078018520418222
 40
0.5109402158214513
 40
0.5146312322271377
 40
0.5188660394176614
 40
0.5236344307397998
 40
0.5289250371801215
 40
0.5347251243479365
 40
0.5410209374048679
 40
0.5477974250245419
 40
0.5550384390431111
 40
0.5627268205107272
 40
0.5708443273213376
 40
0.5793717556089617
 40
0.5882888851846572
 40
0.5975746798424832
 40
0.6072072605477075
 40
0.6171638576212762
 40
0.6274211089881614
 40
0.6379547267120056
 40
0.6487400008920161
 40
0.659751489612187
 40
0.6709633818621088
 40
0.6823492293595954
 40
0.693882310824897
 40
0.7055354859820271
 40
0.7172815431593506
 40
0.7290927739996484
 40
0.7409416047602375
 40
0.7528003752574187
 40
0.7646413472730871
 40
0.7764370105495613
 40
0.7881600493401983
 40
0.7997833528094334
 40
0.811280178913917
 40
0.8226242172148989
 40
0.8337896440885763
 40
0.8447512837555455
 40
0.855484469162394
 40
0.8659652924122576
 40
0.8761706611826194
 40
0.8860782998347502
 40
0.8956667559173327
 40
0.9049155593713186
 40
0.9138053160371792
 40
0.922317689208433
 40
0.9304354291056768
 40
0.9381425950360048
 40
0.9454246106631397
 40
0.9522684100406392
 40
0.9586625702612378
 40
0.9645977594374817
 40
0.9700669288612601
 40
0.9750658978040939
 40
0.9795943958583813
 40
0.9836571123349841
 40
0.9872659587237052
 40
0.9904433030259444
 40
0.99322721675745
 40
0.9956794098844889
 40
0.9978938319292588
 40
1.0
 40
1.0
 40
1.0
 40
1.0
 10
20.01089356626465
 20
-0.0000000000000056
 30
0.0
 10
20.01089341280586
 20
-0.1150155419244409
 30
0.0
 10
20.04385331383864
 20
-0.3509583012394106
 30
0.0
 10
20.19168355522227
 20
-0.6929575891940318
 30
0.0
 10
20.43325794587071
 20
-1.022108793550344
 30
0.0
 10
20.76564396656698
 20
-1.339840508767482
 30
0.0
 10
21.1877661585927
 20
-1.647268736087016
 30
0.0
 10
21.69900988898546
 20
-1.944687208773154
 30
0.0
 10
22.2986269470003
 20
-2.231758003226989
 30
0.0
 10
22.98555420006664
 20
-2.507830391538841
 30
0.0
 10
23.75842886633874
 20
-2.772082640386139
 30
0.0
 10
24.61560134720358
 20
-3.023629451416737
 30
0.0
 10
25.55518515705859
 20
-3.26152312113952
 30
0.0
 10
26.57504749591616
 20
-3.484900030186835
 30
0.0
 10
27.6728675384353
 20
-3.692842548862416
 30
0.0
 10
28.84610743441515
 20
-3.884594102194297
 30
0.0
 10
30.09205939360367
 20
-4.059367748410675
 30
0.0
 10
31.40782540505434
 20
-4.216573462843096
 30
0.0
 10
32.79034759760367
 20
-4.355649708418178
 30
0.0
 10
34.23640221161878
 20
-4.476209507703107
 30
0.0
 10
35.74261977782825
 20
-4.57797398835292
 30
0.0
 10
37.30549139889505
 20
-4.660772290126498
 30
0.0
 10
38.92136797120438
 20
-4.724622907065928
 30
0.0
 10
40.58647681996121
 20
-4.769645193612863
 30
0.0
 10
42.29693205908013
 20
-4.796085152288539
 30
0.0
 10
44.04874305190905
 20
-4.804352041617068
 30
0.0
 10
45.8378182730406
 20
-4.794940054862399
 30
0.0
 10
47.65998036710661
 20
-4.768464834719358
 30
0.0
 10
49.51097464292129
 20
-4.725643813570747
 30
0.0
 10
51.38648295632071
 20
-4.667291014371143
 30
0.0
 10
53.28212475287147
 20
-4.594258758790799
 30
0.0
 10
55.19347219470384
 20
-4.507486661664171
 30
0.0
 10
57.11606294549284
 20
-4.40795962696811
 30
0.0
 10
59.04540986778364
 20
-4.296680343923202
 30
0.0
 10
60.9770077309739
 20
-4.174682640923714
 30
0.0
 10
62.90634554550262
 20
-4.043003894021762
 30
0.0
 10
64.8289196912774
 20
-3.902677986192238
 30
0.0
 10
66.74023936134489
 20
-3.754756781045209
 30
0.0
 10
68.63584194217395
 20
-3.600230103462321
 30
0.0
 10
70.51129718171863
 20
-3.440107392615223
 30
0.0
 10
72.36223186863909
 20
-3.275359135271185
 30
0.0
 10
74.18431774870396
 20
-3.106932688977068
 30
0.0
 10
75.97330379503333
 20
-2.935773232220487
 30
0.0
 10
77.72500584248128
 20
-2.762751766388467
 30
0.0
 10
79.43534088812883
 20
-2.588766997919656
 30
0.0
 10
81.10030705022761
 20
-2.414664853673706
 30
0.0
 10
82.71601993934915
 20
-2.241301423774174
 30
0.0
 10
84.2787026607049
 20
-2.069520087066733
 30
0.0
 10
85.7847042055476
 20
-1.900090539215704
 30
0.0
 10
87.23051322043368
 20
-1.733873713009659
 30
0.0
 10
88.61275012387739
 20
-1.57164256810083
 30
0.0
 10
89.9281864831214
 20
-1.414194170006329
 30
0.0
 10
91.17374632003379
 20
-1.262304314695341
 30
0.0
 10
92.34652579280032
 20
-1.116769186700886
 30
0.0
 10
93.44378271155901
 20
-0.978322520674582
 30
0.0
 10
94.46295644656036
 20
-0.8477386872105472
 30
0.0
 10
95.40166248395222
 20
-0.7256893115738593
 30
0.0
 10
96.25771147573995
 20
-0.6129178037467875
 30
0.0
 10
97.02911197506748
 20
-0.5100509221744164
 30
0.0
 10
97.71403205505682
 20
-0.4176696434842029
 30
0.0
 10
98.31096971978488
 20
-0.3365223015905977
 30
0.0
 10
98.81823801397942
 20
-0.266523357818225
 30
0.0
 10
99.23548785293976
 20
-0.2098380038995503
 30
0.0
 10
99.55951243583569
 20
-0.1622005751663425
 30
0.0
 10
99.79497667456401
 20
-0.1351734414060374
 30
0.0
 10
99.93024500555079
 20
-0.1059261086494316
 30
0.0
 10
100.068992975789
 20
-0.1085694962885813
 30
0.0
 10
100.0689932652203
 20
0.1083558622248756
 30
0.0
 10
99.93024528792834
 20
0.1057128448330117
 30
0.0
 10
99.79497703498903
 20
0.1349605385513502
 30
0.0
 10
99.55951286838277
 20
0.1619883006448433
 30
0.0
 10
99.23548841260803
 20
0.2096265940337385
 30
0.0
 10
98.81823872491276
 20
0.2663130613781982
 30
0.0
 10
98.31097061751183
 20
0.3363133587896096
 30
0.0
 10
97.714033169326
 20
0.4174622936039583
 30
0.0
 10
97.02911333585891
 20
0.5098453999946092
 30
0.0
 10
96.25771311103252
 20
0.6127143400395708
 30
0.0
 10
95.40166442017653
 20
0.7254881322224366
 30
0.0
 10
94.46295870847565
 20
0.8475400127844969
 30
0.0
 10
93.44378532194006
 20
0.9781265659005827
 30
0.0
 10
92.34652877262796
 20
1.116576159943154
 30
0.0
 10
91.17374968822419
 20
1.262114417484823
 30
0.0
 10
89.92819025663246
 20
1.414007596556467
 30
0.0
 10
88.6127543175433
 20
1.571459504876438
 30
0.0
 10
87.23051784701467
 20
1.733694338267066
 30
0.0
 10
85.7847092756816
 20
1.899915022596107
 30
0.0
 10
84.27870818296448
 20
2.069348589193487
 30
0.0
 10
82.7160259200117
 20
2.241134095899943
 30
0.0
 10
81.10031349351411
 20
2.414501837308918
 30
0.0
 10
79.4353477960103
 20
2.588608424496266
 30
0.0
 10
77.72501321464577
 20
2.762597756972827
 30
0.0
 10
75.97331162890862
 20
2.935623897199855
 30
0.0
 10
74.18432603932332
 20
3.106788127843156
 30
0.0
 10
72.3622406087086
 20
3.275219436350672
 30
0.0
 10
70.51130636142442
 20
3.439972632890723
 30
0.0
 10
68.63585154917062
 20
3.600100348366737
 30
0.0
 10
66.74024938070113
 20
3.754632084341485
 30
0.0
 10
64.82893010536651
 20
3.902558389821391
 30
0.0
 10
62.90635633405675
 20
4.042889428015974
 30
0.0
 10
60.97701887091756
 20
4.17457332333202
 30
0.0
 10
59.04542133328368
 20
4.296576180776342
 30
0.0
 10
57.11607470794726
 20
4.407860612259683
 30
0.0
 10
55.19348422275176
 20
4.507392777365475
 30
0.0
 10
53.28213701247643
 20
4.59416997489924
 30
0.0
 10
51.38649541081795
 20
4.667207288976181
 30
0.0
 10
49.51098725313918
 20
4.725565092946681
 30
0.0
 10
47.65999309159864
 20
4.768391053450889
 30
0.0
 10
45.83783106818787
 20
4.79487113601119
 30
0.0
 10
44.04875587217856
 20
4.804287896891246
 30
0.0
 10
42.29694485729551
 20
4.796025682249086
 30
0.0
 10
40.58648954762806
 20
4.769590287902499
 30
0.0
 10
38.92138057873593
 20
4.724572444678278
 30
0.0
 10
37.30550383604785
 20
4.660726139686121
 30
0.0
 10
35.74263199404026
 20
4.577932008416683
 30
0.0
 10
34.23641415627851
 20
4.476171547090471
 30
0.0
 10
32.79035922055616
 20
4.355615606585126
 30
0.0
 10
31.40783665688872
 20
4.216543050254134
 30
0.0
 10
30.09207022594111
 20
4.059340846927869
 30
0.0
 10
28.84611780037562
 20
3.884570525519762
 30
0.0
 10
27.67287739271335
 20
3.692822102964935
 30
0.0
 10
26.57505679530606
 20
3.484882513809548
 30
0.0
 10
25.55519386037361
 20
3.261508326253198
 30
0.0
 10
24.6156094157056
 20
3.023617163799251
 30
0.0
 10
23.75843626359407
 20
2.772072640123926
 30
0.0
 10
22.98556089217082
 20
2.507822453684167
 30
0.0
 10
22.29863290241114
 20
2.231751898430344
 30
0.0
 10
21.69901507835362
 20
1.944682704048267
 30
0.0
 10
21.18777055430518
 20
1.647265595610865
 30
0.0
 10
20.76564754191232
 20
1.339838494720398
 30
0.0
 10
20.43326067335422
 20
1.022107666472449
 30
0.0
 10
20.19168540437038
 20
0.692957106755666
 30
0.0
 10
20.04385425036649
 20
0.3509582132854638
 30
0.0
 10
20.01089371972344
 20
0.1150155419244296
 30
0.0
 10
20.01089356626465
 20
-0.0000000000000056
 30
0.0
  0
ARC
  5
70
330
1F
100
AcDbEntity
  8
0
  6
Continuous
 62
     7
370
    25
100
AcDbCircle
 10
33.3726129682
 20
0.0000998581
 30
0.0
 40
3.200000000000001
100
AcDbArc
 50
90.0
 51
270.0
  0
LINE
  5
71
330
1F
100
AcDbEntity
  8
0
  6
Continuous
 62
     7
370
    25
100
AcDbLine
 10
43.6288125454
 20
3.2000998581
 30
0.0
 11
33.3726129682
 21
3.2000998581
 31
0.0
  0
ARC
  5
72
330
1F
100
AcDbEntity
  8
0
  6
Continuous
 62
     7
370
    25
100
AcDbCircle
 10
43.6288125454
 20
0.0000998581
 30
0.0
 40
3.200000000000001
100
AcDbArc
 50
270.0
 51
90.0
  0
LINE
  5
73
330
1F
100
AcDbEntity
  8
0
  6
Continuous
 62
     7
370
    25
100
AcDbLine
 10
33.3726129682
 20
-3.1999001419
 30
0.0
 11
43.6288125454
 21
-3.1999001419
 31
0.0
  0
ENDSEC
  0
SECTION
  2
OBJECTS
  0
DICTIONARY
  5
C
330
0
100
AcDbDictionary
281
     1
  3
ACAD_GROUP
350
D
  3
ACAD_LAYOUT
350
1A
  3
ACAD_MLINESTYLE
350
17
  3
ACAD_PLOTSETTINGS
350
19
  3
ACAD_PLOTSTYLENAME
350
E
  3
ACAD_SCALELIST
350
47
  3
DWGPROPS
350
74
  0
DICTIONARY
  5
D
102
{ACAD_REACTORS
330
C
102
}
330
C
100
AcDbDictionary
281
     1
  0
DICTIONARY
  5
1A
102
{ACAD_REACTORS
330
C
102
}
330
C
100
AcDbDictionary
281
     1
  3
Layout1
350
1E
  3
Layout2
350
26
  3
Model
350
22
  0
DICTIONARY
  5
17
102
{ACAD_REACTORS
330
C
102
}
330
C
100
AcDbDictionary
281
     1
  3
Standard
350
18
  0
DICTIONARY
  5
19
102
{ACAD_REACTORS
330
C
102
}
330
C
100
AcDbDictionary
281
     1
  0
ACDBDICTIONARYWDFLT
  5
E
102
{ACAD_REACTORS
330
C
102
}
330
C
100
AcDbDictionary
281
     1
  3
Normal
350
F
100
AcDbDictionaryWithDefault
340
F
  0
DICTIONARY
  5
47
102
{ACAD_REACTORS
330
C
102
}
330
C
100
AcDbDictionary
281
     1
  3
A0
350
48
  3
A1
350
49
  3
A2
350
4A
  3
A3
350
4B
  3
A4
350
4C
  3
A5
350
4D
  3
A6
350
4E
  3
A7
350
4F
  3
A8
350
50
  3
A9
350
51
  3
B0
350
52
  3
B1
350
53
  3
B2
350
54
  3
B3
350
55
  3
B4
350
56
  3
B5
350
57
  3
B6
350
58
  0
XRECORD
  5
74
102
{ACAD_REACTORS
330
C
102
}
330
C
100
AcDbXrecord
280
     1
  1
DWGPROPS COOKIE
  2

  3

  4

  6

  7

  8
mahmo
  9

300
=
301
=
302
=
303
=
304
=
305
=
306
=
307
=
308
=
309
=
 40
0.0
 41
2461297.312923449
 42
2461297.313019804
  1

 90
        0
  0
LAYOUT
  5
1E
102
{ACAD_REACTORS
330
1A
102
}
330
1A
100
AcDbPlotSettings
  1

  2
none_device
  4

  6

 40
0.0
 41
0.0
 42
0.0
 43
0.0
 44
0.0
 45
0.0
 46
0.0
 47
0.0
 48
0.0
 49
0.0
140
0.0
141
0.0
142
1.0
143
1.0
 70
   688
 72
     1
 73
     0
 74
     5
  7

 75
    16
147
1.0
148
0.0
149
0.0
100
AcDbLayout
  1
Layout1
 70
     1
 71
     1
 10
0.0
 20
0.0
 11
420.0
 21
297.0
 12
0.0
 22
0.0
 32
0.0
 14
1.0000000000E+20
 24
1.0000000000E+20
 34
1.0000000000E+20
 15
-1.0000000000E+20
 25
-1.0000000000E+20
 35
-1.0000000000E+20
146
0.0
 13
0.0
 23
0.0
 33
0.0
 16
1.0
 26
0.0
 36
0.0
 17
0.0
 27
1.0
 37
0.0
 76
     0
330
1B
  0
LAYOUT
  5
26
102
{ACAD_REACTORS
330
1A
102
}
330
1A
100
AcDbPlotSettings
  1

  2
none_device
  4

  6

 40
0.0
 41
0.0
 42
0.0
 43
0.0
 44
0.0
 45
0.0
 46
0.0
 47
0.0
 48
0.0
 49
0.0
140
0.0
141
0.0
142
1.0
143
1.0
 70
   688
 72
     1
 73
     0
 74
     5
  7

 75
    16
147
1.0
148
0.0
149
0.0
100
AcDbLayout
  1
Layout2
 70
     1
 71
     2
 10
0.0
 20
0.0
 11
0.0
 21
0.0
 12
0.0
 22
0.0
 32
0.0
 14
0.0
 24
0.0
 34
0.0
 15
0.0
 25
0.0
 35
0.0
146
0.0
 13
0.0
 23
0.0
 33
0.0
 16
1.0
 26
0.0
 36
0.0
 17
0.0
 27
1.0
 37
0.0
 76
     0
330
23
  0
LAYOUT
  5
22
102
{ACAD_REACTORS
330
1A
102
}
330
1A
100
AcDbPlotSettings
  1

  2
none_device
  4
ANSI_A_(11.00_x_8.50_Inches)
  6

 40
6.35
 41
19.05
 42
6.35000508
 43
19.05000254
 44
279.4
 45
215.9
 46
-74.1045020786
 47
88.9001337902
 48
0.0
 49
0.0
140
0.0
141
0.0
142
0.1360508951
143
1.0
 70
  1696
 72
     0
 73
     0
 74
     0
  7

 75
     0
147
0.0179189148
148
-1300.4909072572
149
0.0
100
AcDbLayout
  1
Model
 70
     1
 71
     0
 10
0.0
 20
0.0
 11
420.0
 21
297.0
 12
0.0
 22
0.0
 32
0.0
 14
20.0108935663
 24
-4.7287029885
 34
0.0
 15
100.0544683654
 25
4.7286248217
 35
0.0
146
0.0
 13
0.0
 23
0.0
 33
0.0
 16
1.0
 26
0.0
 36
0.0
 17
0.0
 27
1.0
 37
0.0
 76
     0
330
1F
331
29
  0
MLINESTYLE
  5
18
102
{ACAD_REACTORS
330
17
102
}
330
17
100
AcDbMlineStyle
  2
Standard
 70
     0
  3

 62
   256
 51
90.0
 52
90.0
 71
     2
 49
0.5
 62
   256
  6
BYLAYER
 49
-0.5
 62
   256
  6
BYLAYER
  0
ACDBPLACEHOLDER
  5
F
102
{ACAD_REACTORS
330
E
102
}
330
E
  0
SCALE
  5
48
102
{ACAD_REACTORS
330
47
102
}
330
47
100
AcDbScale
 70
     0
300
1:1
140
1.0
141
1.0
290
     1
  0
SCALE
  5
49
102
{ACAD_REACTORS
330
47
102
}
330
47
100
AcDbScale
 70
     0
300
1:2
140
1.0
141
2.0
290
     0
  0
SCALE
  5
4A
102
{ACAD_REACTORS
330
47
102
}
330
47
100
AcDbScale
 70
     0
300
1:4
140
1.0
141
4.0
290
     0
  0
SCALE
  5
4B
102
{ACAD_REACTORS
330
47
102
}
330
47
100
AcDbScale
 70
     0
300
1:5
140
1.0
141
5.0
290
     0
  0
SCALE
  5
4C
102
{ACAD_REACTORS
330
47
102
}
330
47
100
AcDbScale
 70
     0
300
1:8
140
1.0
141
8.0
290
     0
  0
SCALE
  5
4D
102
{ACAD_REACTORS
330
47
102
}
330
47
100
AcDbScale
 70
     0
300
1:10
140
1.0
141
10.0
290
     0
  0
SCALE
  5
4E
102
{ACAD_REACTORS
330
47
102
}
330
47
100
AcDbScale
 70
     0
300
1:16
140
1.0
141
16.0
290
     0
  0
SCALE
  5
4F
102
{ACAD_REACTORS
330
47
102
}
330
47
100
AcDbScale
 70
     0
300
1:20
140
1.0
141
20.0
290
     0
  0
SCALE
  5
50
102
{ACAD_REACTORS
330
47
102
}
330
47
100
AcDbScale
 70
     0
300
1:30
140
1.0
141
30.0
290
     0
  0
SCALE
  5
51
102
{ACAD_REACTORS
330
47
102
}
330
47
100
AcDbScale
 70
     0
300
1:40
140
1.0
141
40.0
290
     0
  0
SCALE
  5
52
102
{ACAD_REACTORS
330
47
102
}
330
47
100
AcDbScale
 70
     0
300
1:50
140
1.0
141
50.0
290
     0
  0
SCALE
  5
53
102
{ACAD_REACTORS
330
47
102
}
330
47
100
AcDbScale
 70
     0
300
1:100
140
1.0
141
100.0
290
     0
  0
SCALE
  5
54
102
{ACAD_REACTORS
330
47
102
}
330
47
100
AcDbScale
 70
     0
300
2:1
140
2.0
141
1.0
290
     0
  0
SCALE
  5
55
102
{ACAD_REACTORS
330
47
102
}
330
47
100
AcDbScale
 70
     0
300
4:1
140
4.0
141
1.0
290
     0
  0
SCALE
  5
56
102
{ACAD_REACTORS
330
47
102
}
330
47
100
AcDbScale
 70
     0
300
8:1
140
8.0
141
1.0
290
     0
  0
SCALE
  5
57
102
{ACAD_REACTORS
330
47
102
}
330
47
100
AcDbScale
 70
     0
300
10:1
140
10.0
141
1.0
290
     0
  0
SCALE
  5
58
102
{ACAD_REACTORS
330
47
102
}
330
47
100
AcDbScale
 70
     0
300
100:1
140
100.0
141
1.0
290
     0
  0
ENDSEC
  0
EOF
